<svg width="373" height="111" viewBox="0 0 373 111" fill="none" xmlns="http://www.w3.org/2000/svg">
<path d="M209.45 102.972H195.412L174.649 69.1816V102.972H160.529V48.6699H174.649L195.367 82.4606V48.6699H209.45V102.972Z" fill="white"/>
<path d="M237.237 82.7208H249.83L243.508 63.8853L237.237 82.7208ZM253.211 92.8312H233.856L230.475 102.972H215.387L236.872 48.6699H250.151L271.8 102.972H256.622L253.211 92.8312Z" fill="white"/>
<path d="M325.845 102.972H311.807V80.2946H291.007V102.972H276.887V48.6699H291.007V70.2301H311.807V48.6699H325.845V102.972Z" fill="white"/>
<path d="M358.941 48.6699H373.024V85.9276C373.024 89.3794 372.152 92.4714 370.425 95.1808C368.697 97.8902 366.284 99.9949 363.186 101.48C360.08 102.972 356.632 103.722 352.827 103.722C346.444 103.722 341.477 102.23 337.94 99.2525C334.395 96.26 332.622 92.0428 332.622 86.5705H346.779C346.779 89.0503 347.241 90.8642 348.165 91.9739C349.096 93.0914 350.645 93.6577 352.812 93.6577C354.77 93.6577 356.282 92.9842 357.332 91.6219C358.397 90.2672 358.926 88.3691 358.926 85.9353V48.6699H358.941Z" fill="white"/>
<path d="M119.904 0.000488281H97.3907C95.6852 0.000488281 94.3075 1.27864 94.3075 2.85528V23.7343C94.3075 25.3109 95.6852 26.5891 97.3907 26.5891H119.904C121.602 26.5891 122.987 25.3109 122.987 23.7343V2.85528C122.98 1.27864 121.602 0.000488281 119.904 0.000488281Z" fill="white"/>
<path d="M27.5732 84.228H3.45886C2.20027 84.228 1.17999 85.1694 1.17999 86.3404V108.697C1.17999 109.868 2.20027 110.809 3.45886 110.809H27.5806C28.8392 110.809 29.8595 109.868 29.8595 108.697V86.3404C29.8521 85.1694 28.8318 84.228 27.5732 84.228Z" fill="white"/>
<path d="M105.174 40.6564C93.7943 40.6564 83.4202 45.4322 76.5389 52.9404C74.9303 54.6931 71.8173 53.591 71.8173 51.2796V2.50321C71.8173 1.12557 70.6034 0.000488281 69.1139 0.000488281H38.6694C37.18 0.000488281 35.9735 1.12557 35.9661 2.50321C35.9661 8.67201 35.9586 24.1399 35.9437 24.3848C35.3777 34.1126 28.8018 34.7402 15.5158 34.809L3.45866 34.6483C1.98409 34.6254 0.762738 35.7045 0.718054 37.0745L0.658476 67.5664C0.613792 68.9823 1.83515 70.1534 3.36184 70.1534H15.5158H17.4149C26.657 70.1534 35.3182 67.8267 42.7729 63.7856C44.5751 62.8059 46.8391 63.9999 46.8391 65.9362V108.314C46.8391 109.692 48.0456 110.817 49.535 110.817H89.3333C90.8228 110.817 92.0367 109.699 92.0367 108.314V89.6394C92.0367 78.8861 101.443 70.161 113.046 70.161H120.269C121.759 70.161 122.973 69.0359 122.973 67.6583V43.1668C122.973 41.7815 121.759 40.664 120.269 40.664H105.174V40.6564Z" fill="white"/>
</svg>
