<svg width="574" height="376" viewBox="0 0 574 376" fill="none" xmlns="http://www.w3.org/2000/svg">
<g opacity="0.1">
<ellipse cx="6.77874" cy="6.78349" rx="6.77874" ry="6.78349" fill="white"/>
<ellipse cx="24.8532" cy="6.78349" rx="6.77874" ry="6.78349" fill="white"/>
<ellipse cx="42.9279" cy="6.78349" rx="6.77874" ry="6.78349" fill="white"/>
<ellipse cx="61.0024" cy="6.78349" rx="6.77874" ry="6.78349" fill="white"/>
<ellipse cx="79.0771" cy="6.78349" rx="6.77875" ry="6.78349" fill="white"/>
<ellipse cx="97.1703" cy="6.78349" rx="6.77874" ry="6.78349" fill="white"/>
<ellipse cx="115.245" cy="6.78349" rx="6.77874" ry="6.78349" fill="white"/>
<ellipse cx="133.319" cy="6.78349" rx="6.77874" ry="6.78349" fill="white"/>
<ellipse cx="151.394" cy="6.78349" rx="6.77874" ry="6.78349" fill="white"/>
<ellipse cx="169.468" cy="6.78349" rx="6.77873" ry="6.78349" fill="white"/>
<ellipse cx="187.543" cy="6.78349" rx="6.77872" ry="6.78349" fill="white"/>
<ellipse cx="205.618" cy="6.78349" rx="6.77874" ry="6.78349" fill="white"/>
<ellipse cx="223.692" cy="6.78349" rx="6.77875" ry="6.78349" fill="white"/>
<ellipse cx="241.767" cy="6.78349" rx="6.77874" ry="6.78349" fill="white"/>
<ellipse cx="259.86" cy="6.78349" rx="6.77874" ry="6.78349" fill="white"/>
<ellipse cx="277.935" cy="6.78349" rx="6.77875" ry="6.78349" fill="white"/>
<ellipse cx="296.009" cy="6.78349" rx="6.77875" ry="6.78349" fill="white"/>
<ellipse cx="314.077" cy="6.78349" rx="6.77875" ry="6.78349" fill="white"/>
<ellipse cx="332.159" cy="6.78349" rx="6.77873" ry="6.78349" fill="white"/>
<ellipse cx="350.241" cy="6.78349" rx="6.77873" ry="6.78349" fill="white"/>
<ellipse cx="368.322" cy="6.78349" rx="6.77873" ry="6.78349" fill="white"/>
<ellipse cx="386.404" cy="6.78349" rx="6.77873" ry="6.78349" fill="white"/>
<ellipse cx="404.486" cy="6.78349" rx="6.77875" ry="6.78349" fill="white"/>
<ellipse cx="422.568" cy="6.78349" rx="6.77873" ry="6.78349" fill="white"/>
<ellipse cx="440.649" cy="6.78349" rx="6.77875" ry="6.78349" fill="white"/>
<ellipse cx="458.731" cy="6.78349" rx="6.77873" ry="6.78349" fill="white"/>
<ellipse cx="476.813" cy="6.78349" rx="6.77878" ry="6.78349" fill="white"/>
<ellipse cx="494.894" cy="6.78349" rx="6.77872" ry="6.78349" fill="white"/>
<ellipse cx="512.976" cy="6.78349" rx="6.77875" ry="6.78349" fill="white"/>
<ellipse cx="531.058" cy="6.78349" rx="6.77872" ry="6.78349" fill="white"/>
<ellipse cx="549.14" cy="6.78349" rx="6.77872" ry="6.78349" fill="white"/>
<ellipse cx="567.221" cy="6.78349" rx="6.77875" ry="6.78349" fill="white"/>
</g>
<g opacity="0.1">
<ellipse cx="6.77874" cy="28.1033" rx="6.77874" ry="6.78349" fill="white"/>
<ellipse cx="24.8532" cy="28.1033" rx="6.77874" ry="6.78349" fill="white"/>
<ellipse cx="42.9279" cy="28.1033" rx="6.77874" ry="6.78349" fill="white"/>
<ellipse cx="61.0024" cy="28.1033" rx="6.77874" ry="6.78349" fill="white"/>
<ellipse cx="79.0771" cy="28.1033" rx="6.77875" ry="6.78349" fill="white"/>
<ellipse cx="97.1703" cy="28.1033" rx="6.77874" ry="6.78349" fill="white"/>
<ellipse cx="115.245" cy="28.1033" rx="6.77874" ry="6.78349" fill="white"/>
<ellipse cx="133.319" cy="28.1033" rx="6.77874" ry="6.78349" fill="white"/>
<ellipse cx="151.394" cy="28.1033" rx="6.77874" ry="6.78349" fill="white"/>
<ellipse cx="169.468" cy="28.1033" rx="6.77873" ry="6.78349" fill="white"/>
<ellipse cx="187.543" cy="28.1033" rx="6.77872" ry="6.78349" fill="white"/>
<ellipse cx="205.618" cy="28.1033" rx="6.77874" ry="6.78349" fill="white"/>
<ellipse cx="223.692" cy="28.1033" rx="6.77875" ry="6.78349" fill="white"/>
<ellipse cx="241.767" cy="28.1033" rx="6.77874" ry="6.78349" fill="white"/>
<ellipse cx="259.86" cy="28.1033" rx="6.77874" ry="6.78349" fill="white"/>
<ellipse cx="277.935" cy="28.1033" rx="6.77875" ry="6.78349" fill="white"/>
<ellipse cx="296.009" cy="28.1033" rx="6.77875" ry="6.78349" fill="white"/>
<ellipse cx="314.077" cy="28.1033" rx="6.77875" ry="6.78349" fill="white"/>
<ellipse cx="332.159" cy="28.1033" rx="6.77873" ry="6.78349" fill="white"/>
<ellipse cx="350.241" cy="28.1033" rx="6.77873" ry="6.78349" fill="white"/>
<ellipse cx="368.322" cy="28.1033" rx="6.77873" ry="6.78349" fill="white"/>
<ellipse cx="386.404" cy="28.1033" rx="6.77873" ry="6.78349" fill="white"/>
<ellipse cx="404.486" cy="28.1033" rx="6.77875" ry="6.78349" fill="white"/>
<ellipse cx="422.568" cy="28.1033" rx="6.77873" ry="6.78349" fill="white"/>
<ellipse cx="440.649" cy="28.1033" rx="6.77875" ry="6.78349" fill="white"/>
<ellipse cx="458.731" cy="28.1033" rx="6.77873" ry="6.78349" fill="white"/>
<ellipse cx="476.813" cy="28.1033" rx="6.77878" ry="6.78349" fill="white"/>
<ellipse cx="494.894" cy="28.1033" rx="6.77872" ry="6.78349" fill="white"/>
<ellipse cx="512.976" cy="28.1033" rx="6.77875" ry="6.78349" fill="white"/>
<ellipse cx="531.058" cy="28.1033" rx="6.77872" ry="6.78349" fill="white"/>
<ellipse cx="549.14" cy="28.1033" rx="6.77872" ry="6.78349" fill="white"/>
<ellipse cx="567.221" cy="28.1033" rx="6.77875" ry="6.78349" fill="white"/>
</g>
<g opacity="0.1">
<ellipse cx="6.77874" cy="49.4227" rx="6.77874" ry="6.78349" fill="white"/>
<ellipse cx="24.8532" cy="49.4227" rx="6.77874" ry="6.78349" fill="white"/>
<ellipse cx="42.9279" cy="49.4227" rx="6.77874" ry="6.78349" fill="white"/>
<ellipse cx="61.0024" cy="49.4227" rx="6.77874" ry="6.78349" fill="white"/>
<ellipse cx="79.0771" cy="49.4227" rx="6.77875" ry="6.78349" fill="white"/>
<ellipse cx="97.1703" cy="49.4227" rx="6.77874" ry="6.78349" fill="white"/>
<ellipse cx="115.245" cy="49.4227" rx="6.77874" ry="6.78349" fill="white"/>
<ellipse cx="133.319" cy="49.4227" rx="6.77874" ry="6.78349" fill="white"/>
<ellipse cx="151.394" cy="49.4227" rx="6.77874" ry="6.78349" fill="white"/>
<ellipse cx="169.468" cy="49.4227" rx="6.77873" ry="6.78349" fill="white"/>
<ellipse cx="187.543" cy="49.4227" rx="6.77872" ry="6.78349" fill="white"/>
<ellipse cx="205.618" cy="49.4227" rx="6.77874" ry="6.78349" fill="white"/>
<ellipse cx="223.692" cy="49.4227" rx="6.77875" ry="6.78349" fill="white"/>
<ellipse cx="241.767" cy="49.4227" rx="6.77874" ry="6.78349" fill="white"/>
<ellipse cx="259.86" cy="49.4227" rx="6.77874" ry="6.78349" fill="white"/>
<ellipse cx="277.935" cy="49.4227" rx="6.77875" ry="6.78349" fill="white"/>
<ellipse cx="296.009" cy="49.4227" rx="6.77875" ry="6.78349" fill="white"/>
<ellipse cx="314.077" cy="49.4227" rx="6.77875" ry="6.78349" fill="white"/>
<ellipse cx="332.159" cy="49.4227" rx="6.77873" ry="6.78349" fill="white"/>
<ellipse cx="350.241" cy="49.4227" rx="6.77873" ry="6.78349" fill="white"/>
<ellipse cx="368.322" cy="49.4227" rx="6.77873" ry="6.78349" fill="white"/>
<ellipse cx="386.404" cy="49.4227" rx="6.77873" ry="6.78349" fill="white"/>
<ellipse cx="404.486" cy="49.4227" rx="6.77875" ry="6.78349" fill="white"/>
<ellipse cx="422.568" cy="49.4227" rx="6.77873" ry="6.78349" fill="white"/>
<ellipse cx="440.649" cy="49.4227" rx="6.77875" ry="6.78349" fill="white"/>
<ellipse cx="458.731" cy="49.4227" rx="6.77873" ry="6.78349" fill="white"/>
<ellipse cx="476.813" cy="49.4227" rx="6.77878" ry="6.78349" fill="white"/>
<ellipse cx="494.894" cy="49.4227" rx="6.77872" ry="6.78349" fill="white"/>
<ellipse cx="512.976" cy="49.4227" rx="6.77875" ry="6.78349" fill="white"/>
<ellipse cx="531.058" cy="49.4227" rx="6.77872" ry="6.78349" fill="white"/>
<ellipse cx="549.14" cy="49.4227" rx="6.77872" ry="6.78349" fill="white"/>
<ellipse cx="567.221" cy="49.4227" rx="6.77875" ry="6.78349" fill="white"/>
</g>
<g opacity="0.1">
<ellipse cx="6.77874" cy="70.7425" rx="6.77874" ry="6.78349" fill="white"/>
<ellipse cx="24.8532" cy="70.7425" rx="6.77874" ry="6.78349" fill="white"/>
<ellipse cx="42.9279" cy="70.7425" rx="6.77874" ry="6.78349" fill="white"/>
<ellipse cx="61.0024" cy="70.7425" rx="6.77874" ry="6.78349" fill="white"/>
<ellipse cx="79.0771" cy="70.7425" rx="6.77875" ry="6.78349" fill="white"/>
<ellipse cx="97.1703" cy="70.7425" rx="6.77874" ry="6.78349" fill="white"/>
<ellipse cx="115.245" cy="70.7425" rx="6.77874" ry="6.78349" fill="white"/>
<ellipse cx="133.319" cy="70.7425" rx="6.77874" ry="6.78349" fill="white"/>
<ellipse cx="151.394" cy="70.7425" rx="6.77874" ry="6.78349" fill="white"/>
<ellipse cx="169.468" cy="70.7425" rx="6.77873" ry="6.78349" fill="white"/>
<ellipse cx="187.543" cy="70.7425" rx="6.77872" ry="6.78349" fill="white"/>
<ellipse cx="205.618" cy="70.7425" rx="6.77874" ry="6.78349" fill="white"/>
<ellipse cx="223.692" cy="70.7425" rx="6.77875" ry="6.78349" fill="white"/>
<ellipse cx="241.767" cy="70.7425" rx="6.77874" ry="6.78349" fill="white"/>
<ellipse cx="259.86" cy="70.7425" rx="6.77874" ry="6.78349" fill="white"/>
<ellipse cx="277.935" cy="70.7425" rx="6.77875" ry="6.78349" fill="white"/>
<ellipse cx="296.009" cy="70.7425" rx="6.77875" ry="6.78349" fill="white"/>
<ellipse cx="314.077" cy="70.7425" rx="6.77875" ry="6.78349" fill="white"/>
<ellipse cx="332.159" cy="70.7425" rx="6.77873" ry="6.78349" fill="white"/>
<ellipse cx="350.241" cy="70.7425" rx="6.77873" ry="6.78349" fill="white"/>
<ellipse cx="368.322" cy="70.7425" rx="6.77873" ry="6.78349" fill="white"/>
<ellipse cx="386.404" cy="70.7425" rx="6.77873" ry="6.78349" fill="white"/>
<ellipse cx="404.486" cy="70.7425" rx="6.77875" ry="6.78349" fill="white"/>
<ellipse cx="422.568" cy="70.7425" rx="6.77873" ry="6.78349" fill="white"/>
<ellipse cx="440.649" cy="70.7425" rx="6.77875" ry="6.78349" fill="white"/>
<ellipse cx="458.731" cy="70.7425" rx="6.77873" ry="6.78349" fill="white"/>
<ellipse cx="476.813" cy="70.7425" rx="6.77878" ry="6.78349" fill="white"/>
<ellipse cx="494.894" cy="70.7425" rx="6.77872" ry="6.78349" fill="white"/>
<ellipse cx="512.976" cy="70.7425" rx="6.77875" ry="6.78349" fill="white"/>
<ellipse cx="531.058" cy="70.7425" rx="6.77872" ry="6.78349" fill="white"/>
<ellipse cx="549.14" cy="70.7425" rx="6.77872" ry="6.78349" fill="white"/>
<ellipse cx="567.221" cy="70.7425" rx="6.77875" ry="6.78349" fill="white"/>
</g>
<g opacity="0.1">
<ellipse cx="6.77874" cy="92.0618" rx="6.77874" ry="6.7835" fill="white"/>
<ellipse cx="24.8532" cy="92.0618" rx="6.77874" ry="6.7835" fill="white"/>
<ellipse cx="42.9279" cy="92.0618" rx="6.77874" ry="6.7835" fill="white"/>
<ellipse cx="61.0024" cy="92.0618" rx="6.77874" ry="6.7835" fill="white"/>
<ellipse cx="79.0771" cy="92.0618" rx="6.77875" ry="6.7835" fill="white"/>
<ellipse cx="97.1703" cy="92.0618" rx="6.77874" ry="6.7835" fill="white"/>
<ellipse cx="115.245" cy="92.0618" rx="6.77874" ry="6.7835" fill="white"/>
<ellipse cx="133.319" cy="92.0618" rx="6.77874" ry="6.7835" fill="white"/>
<ellipse cx="151.394" cy="92.0618" rx="6.77874" ry="6.7835" fill="white"/>
<ellipse cx="169.468" cy="92.0618" rx="6.77873" ry="6.7835" fill="white"/>
<ellipse cx="187.543" cy="92.0618" rx="6.77872" ry="6.7835" fill="white"/>
<ellipse cx="205.618" cy="92.0618" rx="6.77874" ry="6.7835" fill="white"/>
<ellipse cx="223.692" cy="92.0618" rx="6.77875" ry="6.7835" fill="white"/>
<ellipse cx="241.767" cy="92.0618" rx="6.77874" ry="6.7835" fill="white"/>
<ellipse cx="259.86" cy="92.0618" rx="6.77874" ry="6.7835" fill="white"/>
<ellipse cx="277.935" cy="92.0618" rx="6.77875" ry="6.7835" fill="white"/>
<ellipse cx="296.009" cy="92.0618" rx="6.77875" ry="6.7835" fill="white"/>
<ellipse cx="314.077" cy="92.0618" rx="6.77875" ry="6.7835" fill="white"/>
<ellipse cx="332.159" cy="92.0618" rx="6.77873" ry="6.7835" fill="white"/>
<ellipse cx="350.241" cy="92.0618" rx="6.77873" ry="6.7835" fill="white"/>
<ellipse cx="368.322" cy="92.0618" rx="6.77873" ry="6.7835" fill="white"/>
<ellipse cx="386.404" cy="92.0618" rx="6.77873" ry="6.7835" fill="white"/>
<ellipse cx="404.486" cy="92.0618" rx="6.77875" ry="6.7835" fill="white"/>
<ellipse cx="422.568" cy="92.0618" rx="6.77873" ry="6.7835" fill="white"/>
<ellipse cx="440.649" cy="92.0618" rx="6.77875" ry="6.7835" fill="white"/>
<ellipse cx="458.731" cy="92.0618" rx="6.77873" ry="6.7835" fill="white"/>
<ellipse cx="476.813" cy="92.0618" rx="6.77878" ry="6.7835" fill="white"/>
<ellipse cx="494.894" cy="92.0618" rx="6.77872" ry="6.7835" fill="white"/>
<ellipse cx="512.976" cy="92.0618" rx="6.77875" ry="6.7835" fill="white"/>
<ellipse cx="531.058" cy="92.0618" rx="6.77872" ry="6.7835" fill="white"/>
<ellipse cx="549.14" cy="92.0618" rx="6.77872" ry="6.7835" fill="white"/>
<ellipse cx="567.221" cy="92.0618" rx="6.77875" ry="6.7835" fill="white"/>
</g>
<g opacity="0.1">
<ellipse cx="6.77874" cy="113.382" rx="6.77874" ry="6.78349" fill="white"/>
<ellipse cx="24.8532" cy="113.382" rx="6.77874" ry="6.78349" fill="white"/>
<ellipse cx="42.9279" cy="113.382" rx="6.77874" ry="6.78349" fill="white"/>
<ellipse cx="61.0024" cy="113.382" rx="6.77874" ry="6.78349" fill="white"/>
<ellipse cx="79.0771" cy="113.382" rx="6.77875" ry="6.78349" fill="white"/>
<ellipse cx="97.1703" cy="113.382" rx="6.77874" ry="6.78349" fill="white"/>
<ellipse cx="115.245" cy="113.382" rx="6.77874" ry="6.78349" fill="white"/>
<ellipse cx="133.319" cy="113.382" rx="6.77874" ry="6.78349" fill="white"/>
<ellipse cx="151.394" cy="113.382" rx="6.77874" ry="6.78349" fill="white"/>
<ellipse cx="169.468" cy="113.382" rx="6.77873" ry="6.78349" fill="white"/>
<ellipse cx="187.543" cy="113.382" rx="6.77872" ry="6.78349" fill="white"/>
<ellipse cx="205.618" cy="113.382" rx="6.77874" ry="6.78349" fill="white"/>
<ellipse cx="223.692" cy="113.382" rx="6.77875" ry="6.78349" fill="white"/>
<ellipse cx="241.767" cy="113.382" rx="6.77874" ry="6.78349" fill="white"/>
<ellipse cx="259.86" cy="113.382" rx="6.77874" ry="6.78349" fill="white"/>
<ellipse cx="277.935" cy="113.382" rx="6.77875" ry="6.78349" fill="white"/>
<ellipse cx="296.009" cy="113.382" rx="6.77875" ry="6.78349" fill="white"/>
<ellipse cx="314.077" cy="113.382" rx="6.77875" ry="6.78349" fill="white"/>
<ellipse cx="332.159" cy="113.382" rx="6.77873" ry="6.78349" fill="white"/>
<ellipse cx="350.241" cy="113.382" rx="6.77873" ry="6.78349" fill="white"/>
<ellipse cx="368.322" cy="113.382" rx="6.77873" ry="6.78349" fill="white"/>
<ellipse cx="386.404" cy="113.382" rx="6.77873" ry="6.78349" fill="white"/>
<ellipse cx="404.486" cy="113.382" rx="6.77875" ry="6.78349" fill="white"/>
<ellipse cx="422.568" cy="113.382" rx="6.77873" ry="6.78349" fill="white"/>
<ellipse cx="440.649" cy="113.382" rx="6.77875" ry="6.78349" fill="white"/>
<ellipse cx="458.731" cy="113.382" rx="6.77873" ry="6.78349" fill="white"/>
<ellipse cx="476.813" cy="113.382" rx="6.77878" ry="6.78349" fill="white"/>
<ellipse cx="494.894" cy="113.382" rx="6.77872" ry="6.78349" fill="white"/>
<ellipse cx="512.976" cy="113.382" rx="6.77875" ry="6.78349" fill="white"/>
<ellipse cx="531.058" cy="113.382" rx="6.77872" ry="6.78349" fill="white"/>
<ellipse cx="549.14" cy="113.382" rx="6.77872" ry="6.78349" fill="white"/>
<ellipse cx="567.221" cy="113.382" rx="6.77875" ry="6.78349" fill="white"/>
</g>
<g opacity="0.1">
<ellipse cx="6.77874" cy="134.701" rx="6.77874" ry="6.7835" fill="white"/>
<ellipse cx="24.8532" cy="134.701" rx="6.77874" ry="6.7835" fill="white"/>
<ellipse cx="42.9279" cy="134.701" rx="6.77874" ry="6.7835" fill="white"/>
<ellipse cx="61.0024" cy="134.701" rx="6.77874" ry="6.7835" fill="white"/>
<ellipse cx="79.0771" cy="134.701" rx="6.77875" ry="6.7835" fill="white"/>
<ellipse cx="97.1703" cy="134.701" rx="6.77874" ry="6.7835" fill="white"/>
<ellipse cx="115.245" cy="134.701" rx="6.77874" ry="6.7835" fill="white"/>
<ellipse cx="133.319" cy="134.701" rx="6.77874" ry="6.7835" fill="white"/>
<ellipse cx="151.394" cy="134.701" rx="6.77874" ry="6.7835" fill="white"/>
<ellipse cx="169.468" cy="134.701" rx="6.77873" ry="6.7835" fill="white"/>
<ellipse cx="187.543" cy="134.701" rx="6.77872" ry="6.7835" fill="white"/>
<ellipse cx="205.618" cy="134.701" rx="6.77874" ry="6.7835" fill="white"/>
<ellipse cx="223.692" cy="134.701" rx="6.77875" ry="6.7835" fill="white"/>
<ellipse cx="241.767" cy="134.701" rx="6.77874" ry="6.7835" fill="white"/>
<ellipse cx="259.86" cy="134.701" rx="6.77874" ry="6.7835" fill="white"/>
<ellipse cx="277.935" cy="134.701" rx="6.77875" ry="6.7835" fill="white"/>
<ellipse cx="296.009" cy="134.701" rx="6.77875" ry="6.7835" fill="white"/>
<ellipse cx="314.077" cy="134.701" rx="6.77875" ry="6.7835" fill="white"/>
<ellipse cx="332.159" cy="134.701" rx="6.77873" ry="6.7835" fill="white"/>
<ellipse cx="350.241" cy="134.701" rx="6.77873" ry="6.7835" fill="white"/>
<ellipse cx="368.322" cy="134.701" rx="6.77873" ry="6.7835" fill="white"/>
<ellipse cx="386.404" cy="134.701" rx="6.77873" ry="6.7835" fill="white"/>
<ellipse cx="404.486" cy="134.701" rx="6.77875" ry="6.7835" fill="white"/>
<ellipse cx="422.568" cy="134.701" rx="6.77873" ry="6.7835" fill="white"/>
<ellipse cx="440.649" cy="134.701" rx="6.77875" ry="6.7835" fill="white"/>
<ellipse cx="458.731" cy="134.701" rx="6.77873" ry="6.7835" fill="white"/>
<ellipse cx="476.813" cy="134.701" rx="6.77878" ry="6.7835" fill="white"/>
<ellipse cx="494.894" cy="134.701" rx="6.77872" ry="6.7835" fill="white"/>
<ellipse cx="512.976" cy="134.701" rx="6.77875" ry="6.7835" fill="white"/>
<ellipse cx="531.058" cy="134.701" rx="6.77872" ry="6.7835" fill="white"/>
<ellipse cx="549.14" cy="134.701" rx="6.77872" ry="6.7835" fill="white"/>
<ellipse cx="567.221" cy="134.701" rx="6.77875" ry="6.7835" fill="white"/>
</g>
<g opacity="0.1">
<ellipse cx="6.77874" cy="156.021" rx="6.77874" ry="6.7835" fill="white"/>
<ellipse cx="24.8532" cy="156.021" rx="6.77874" ry="6.7835" fill="white"/>
<ellipse cx="42.9279" cy="156.021" rx="6.77874" ry="6.7835" fill="white"/>
<ellipse cx="61.0024" cy="156.021" rx="6.77874" ry="6.7835" fill="white"/>
<ellipse cx="79.0771" cy="156.021" rx="6.77875" ry="6.7835" fill="white"/>
<ellipse cx="97.1703" cy="156.021" rx="6.77874" ry="6.7835" fill="white"/>
<ellipse cx="115.245" cy="156.021" rx="6.77874" ry="6.7835" fill="white"/>
<ellipse cx="133.319" cy="156.021" rx="6.77874" ry="6.7835" fill="white"/>
<ellipse cx="151.394" cy="156.021" rx="6.77874" ry="6.7835" fill="white"/>
<ellipse cx="169.468" cy="156.021" rx="6.77873" ry="6.7835" fill="white"/>
<ellipse cx="187.543" cy="156.021" rx="6.77872" ry="6.7835" fill="white"/>
<ellipse cx="205.618" cy="156.021" rx="6.77874" ry="6.7835" fill="white"/>
<ellipse cx="223.692" cy="156.021" rx="6.77875" ry="6.7835" fill="white"/>
<ellipse cx="241.767" cy="156.021" rx="6.77874" ry="6.7835" fill="white"/>
<ellipse cx="259.86" cy="156.021" rx="6.77874" ry="6.7835" fill="white"/>
<ellipse cx="277.935" cy="156.021" rx="6.77875" ry="6.7835" fill="white"/>
<ellipse cx="296.009" cy="156.021" rx="6.77875" ry="6.7835" fill="white"/>
<ellipse cx="314.077" cy="156.021" rx="6.77875" ry="6.7835" fill="white"/>
<ellipse cx="332.159" cy="156.021" rx="6.77873" ry="6.7835" fill="white"/>
<ellipse cx="350.241" cy="156.021" rx="6.77873" ry="6.7835" fill="white"/>
<ellipse cx="368.322" cy="156.021" rx="6.77873" ry="6.7835" fill="white"/>
<ellipse cx="386.404" cy="156.021" rx="6.77873" ry="6.7835" fill="white"/>
<ellipse cx="404.486" cy="156.021" rx="6.77875" ry="6.7835" fill="white"/>
<ellipse cx="422.568" cy="156.021" rx="6.77873" ry="6.7835" fill="white"/>
<ellipse cx="440.649" cy="156.021" rx="6.77875" ry="6.7835" fill="white"/>
<ellipse cx="458.731" cy="156.021" rx="6.77873" ry="6.7835" fill="white"/>
<ellipse cx="476.813" cy="156.021" rx="6.77878" ry="6.7835" fill="white"/>
<ellipse cx="494.894" cy="156.021" rx="6.77872" ry="6.7835" fill="white"/>
<ellipse cx="512.976" cy="156.021" rx="6.77875" ry="6.7835" fill="white"/>
<ellipse cx="531.058" cy="156.021" rx="6.77872" ry="6.7835" fill="white"/>
<ellipse cx="549.14" cy="156.021" rx="6.77872" ry="6.7835" fill="white"/>
<ellipse cx="567.221" cy="156.021" rx="6.77875" ry="6.7835" fill="white"/>
</g>
<g opacity="0.1">
<ellipse cx="6.77874" cy="177.34" rx="6.77874" ry="6.7835" fill="white"/>
<ellipse cx="24.8532" cy="177.34" rx="6.77874" ry="6.7835" fill="white"/>
<ellipse cx="42.9279" cy="177.34" rx="6.77874" ry="6.7835" fill="white"/>
<ellipse cx="61.0024" cy="177.34" rx="6.77874" ry="6.7835" fill="white"/>
<ellipse cx="79.0771" cy="177.34" rx="6.77875" ry="6.7835" fill="white"/>
<ellipse cx="97.1703" cy="177.34" rx="6.77874" ry="6.7835" fill="white"/>
<ellipse cx="115.245" cy="177.34" rx="6.77874" ry="6.7835" fill="white"/>
<ellipse cx="133.319" cy="177.34" rx="6.77874" ry="6.7835" fill="white"/>
<ellipse cx="151.394" cy="177.34" rx="6.77874" ry="6.7835" fill="white"/>
<ellipse cx="169.468" cy="177.34" rx="6.77873" ry="6.7835" fill="white"/>
<ellipse cx="187.543" cy="177.34" rx="6.77872" ry="6.7835" fill="white"/>
<ellipse cx="205.618" cy="177.34" rx="6.77874" ry="6.7835" fill="white"/>
<ellipse cx="223.692" cy="177.34" rx="6.77875" ry="6.7835" fill="white"/>
<ellipse cx="241.767" cy="177.34" rx="6.77874" ry="6.7835" fill="white"/>
<ellipse cx="259.86" cy="177.34" rx="6.77874" ry="6.7835" fill="white"/>
<ellipse cx="277.935" cy="177.34" rx="6.77875" ry="6.7835" fill="white"/>
<ellipse cx="296.009" cy="177.34" rx="6.77875" ry="6.7835" fill="white"/>
<ellipse cx="314.077" cy="177.34" rx="6.77875" ry="6.7835" fill="white"/>
<ellipse cx="332.159" cy="177.34" rx="6.77873" ry="6.7835" fill="white"/>
<ellipse cx="350.241" cy="177.34" rx="6.77873" ry="6.7835" fill="white"/>
<ellipse cx="368.322" cy="177.34" rx="6.77873" ry="6.7835" fill="white"/>
<ellipse cx="386.404" cy="177.34" rx="6.77873" ry="6.7835" fill="white"/>
<ellipse cx="404.486" cy="177.34" rx="6.77875" ry="6.7835" fill="white"/>
<ellipse cx="422.568" cy="177.34" rx="6.77873" ry="6.7835" fill="white"/>
<ellipse cx="440.649" cy="177.34" rx="6.77875" ry="6.7835" fill="white"/>
<ellipse cx="458.731" cy="177.34" rx="6.77873" ry="6.7835" fill="white"/>
<ellipse cx="476.813" cy="177.34" rx="6.77878" ry="6.7835" fill="white"/>
<ellipse cx="494.894" cy="177.34" rx="6.77872" ry="6.7835" fill="white"/>
<ellipse cx="512.976" cy="177.34" rx="6.77875" ry="6.7835" fill="white"/>
<ellipse cx="531.058" cy="177.34" rx="6.77872" ry="6.7835" fill="white"/>
<ellipse cx="549.14" cy="177.34" rx="6.77872" ry="6.7835" fill="white"/>
<ellipse cx="567.221" cy="177.34" rx="6.77875" ry="6.7835" fill="white"/>
</g>
<g opacity="0.1">
<ellipse cx="6.77874" cy="198.66" rx="6.77874" ry="6.78349" fill="white"/>
<ellipse cx="24.8532" cy="198.66" rx="6.77874" ry="6.78349" fill="white"/>
<ellipse cx="42.9279" cy="198.66" rx="6.77874" ry="6.78349" fill="white"/>
<ellipse cx="61.0024" cy="198.66" rx="6.77874" ry="6.78349" fill="white"/>
<ellipse cx="79.0771" cy="198.66" rx="6.77875" ry="6.78349" fill="white"/>
<ellipse cx="97.1703" cy="198.66" rx="6.77874" ry="6.78349" fill="white"/>
<ellipse cx="115.245" cy="198.66" rx="6.77874" ry="6.78349" fill="white"/>
<ellipse cx="133.319" cy="198.66" rx="6.77874" ry="6.78349" fill="white"/>
<ellipse cx="151.394" cy="198.66" rx="6.77874" ry="6.78349" fill="white"/>
<ellipse cx="169.468" cy="198.66" rx="6.77873" ry="6.78349" fill="white"/>
<ellipse cx="187.543" cy="198.66" rx="6.77872" ry="6.78349" fill="white"/>
<ellipse cx="205.618" cy="198.66" rx="6.77874" ry="6.78349" fill="white"/>
<ellipse cx="223.692" cy="198.66" rx="6.77875" ry="6.78349" fill="white"/>
<ellipse cx="241.767" cy="198.66" rx="6.77874" ry="6.78349" fill="white"/>
<ellipse cx="259.86" cy="198.66" rx="6.77874" ry="6.78349" fill="white"/>
<ellipse cx="277.935" cy="198.66" rx="6.77875" ry="6.78349" fill="white"/>
<ellipse cx="296.009" cy="198.66" rx="6.77875" ry="6.78349" fill="white"/>
<ellipse cx="314.077" cy="198.66" rx="6.77875" ry="6.78349" fill="white"/>
<ellipse cx="332.159" cy="198.66" rx="6.77873" ry="6.78349" fill="white"/>
<ellipse cx="350.241" cy="198.66" rx="6.77873" ry="6.78349" fill="white"/>
<ellipse cx="368.322" cy="198.66" rx="6.77873" ry="6.78349" fill="white"/>
<ellipse cx="386.404" cy="198.66" rx="6.77873" ry="6.78349" fill="white"/>
<ellipse cx="404.486" cy="198.66" rx="6.77875" ry="6.78349" fill="white"/>
<ellipse cx="422.568" cy="198.66" rx="6.77873" ry="6.78349" fill="white"/>
<ellipse cx="440.649" cy="198.66" rx="6.77875" ry="6.78349" fill="white"/>
<ellipse cx="458.731" cy="198.66" rx="6.77873" ry="6.78349" fill="white"/>
<ellipse cx="476.813" cy="198.66" rx="6.77878" ry="6.78349" fill="white"/>
<ellipse cx="494.894" cy="198.66" rx="6.77872" ry="6.78349" fill="white"/>
<ellipse cx="512.976" cy="198.66" rx="6.77875" ry="6.78349" fill="white"/>
<ellipse cx="531.058" cy="198.66" rx="6.77872" ry="6.78349" fill="white"/>
<ellipse cx="549.14" cy="198.66" rx="6.77872" ry="6.78349" fill="white"/>
<ellipse cx="567.221" cy="198.66" rx="6.77875" ry="6.78349" fill="white"/>
</g>
<g opacity="0.1">
<ellipse cx="6.77874" cy="219.979" rx="6.77874" ry="6.78349" fill="white"/>
<ellipse cx="24.8532" cy="219.979" rx="6.77874" ry="6.78349" fill="white"/>
<ellipse cx="42.9279" cy="219.979" rx="6.77874" ry="6.78349" fill="white"/>
<ellipse cx="61.0024" cy="219.979" rx="6.77874" ry="6.78349" fill="white"/>
<ellipse cx="79.0771" cy="219.979" rx="6.77875" ry="6.78349" fill="white"/>
<ellipse cx="97.1703" cy="219.979" rx="6.77874" ry="6.78349" fill="white"/>
<ellipse cx="115.245" cy="219.979" rx="6.77874" ry="6.78349" fill="white"/>
<ellipse cx="133.319" cy="219.979" rx="6.77874" ry="6.78349" fill="white"/>
<ellipse cx="151.394" cy="219.979" rx="6.77874" ry="6.78349" fill="white"/>
<ellipse cx="169.468" cy="219.979" rx="6.77873" ry="6.78349" fill="white"/>
<ellipse cx="187.543" cy="219.979" rx="6.77872" ry="6.78349" fill="white"/>
<ellipse cx="205.618" cy="219.979" rx="6.77874" ry="6.78349" fill="white"/>
<ellipse cx="223.692" cy="219.979" rx="6.77875" ry="6.78349" fill="white"/>
<ellipse cx="241.767" cy="219.979" rx="6.77874" ry="6.78349" fill="white"/>
<ellipse cx="259.86" cy="219.979" rx="6.77874" ry="6.78349" fill="white"/>
<ellipse cx="277.935" cy="219.979" rx="6.77875" ry="6.78349" fill="white"/>
<ellipse cx="296.009" cy="219.979" rx="6.77875" ry="6.78349" fill="white"/>
<ellipse cx="314.077" cy="219.979" rx="6.77875" ry="6.78349" fill="white"/>
<ellipse cx="332.159" cy="219.979" rx="6.77873" ry="6.78349" fill="white"/>
<ellipse cx="350.241" cy="219.979" rx="6.77873" ry="6.78349" fill="white"/>
<ellipse cx="368.322" cy="219.979" rx="6.77873" ry="6.78349" fill="white"/>
<ellipse cx="386.404" cy="219.979" rx="6.77873" ry="6.78349" fill="white"/>
<ellipse cx="404.486" cy="219.979" rx="6.77875" ry="6.78349" fill="white"/>
<ellipse cx="422.568" cy="219.979" rx="6.77873" ry="6.78349" fill="white"/>
<ellipse cx="440.649" cy="219.979" rx="6.77875" ry="6.78349" fill="white"/>
<ellipse cx="458.731" cy="219.979" rx="6.77873" ry="6.78349" fill="white"/>
<ellipse cx="476.813" cy="219.979" rx="6.77878" ry="6.78349" fill="white"/>
<ellipse cx="494.894" cy="219.979" rx="6.77872" ry="6.78349" fill="white"/>
<ellipse cx="512.976" cy="219.979" rx="6.77875" ry="6.78349" fill="white"/>
<ellipse cx="531.058" cy="219.979" rx="6.77872" ry="6.78349" fill="white"/>
<ellipse cx="549.14" cy="219.979" rx="6.77872" ry="6.78349" fill="white"/>
<ellipse cx="567.221" cy="219.979" rx="6.77875" ry="6.78349" fill="white"/>
</g>
<g opacity="0.1">
<ellipse cx="6.77874" cy="241.299" rx="6.77874" ry="6.78349" fill="white"/>
<ellipse cx="24.8532" cy="241.299" rx="6.77874" ry="6.78349" fill="white"/>
<ellipse cx="42.9279" cy="241.299" rx="6.77874" ry="6.78349" fill="white"/>
<ellipse cx="61.0024" cy="241.299" rx="6.77874" ry="6.78349" fill="white"/>
<ellipse cx="79.0771" cy="241.299" rx="6.77875" ry="6.78349" fill="white"/>
<ellipse cx="97.1703" cy="241.299" rx="6.77874" ry="6.78349" fill="white"/>
<ellipse cx="115.245" cy="241.299" rx="6.77874" ry="6.78349" fill="white"/>
<ellipse cx="133.319" cy="241.299" rx="6.77874" ry="6.78349" fill="white"/>
<ellipse cx="151.394" cy="241.299" rx="6.77874" ry="6.78349" fill="white"/>
<ellipse cx="169.468" cy="241.299" rx="6.77873" ry="6.78349" fill="white"/>
<ellipse cx="187.543" cy="241.299" rx="6.77872" ry="6.78349" fill="white"/>
<ellipse cx="205.618" cy="241.299" rx="6.77874" ry="6.78349" fill="white"/>
<ellipse cx="223.692" cy="241.299" rx="6.77875" ry="6.78349" fill="white"/>
<ellipse cx="241.767" cy="241.299" rx="6.77874" ry="6.78349" fill="white"/>
<ellipse cx="259.86" cy="241.299" rx="6.77874" ry="6.78349" fill="white"/>
<ellipse cx="277.935" cy="241.299" rx="6.77875" ry="6.78349" fill="white"/>
<ellipse cx="296.009" cy="241.299" rx="6.77875" ry="6.78349" fill="white"/>
<ellipse cx="314.077" cy="241.299" rx="6.77875" ry="6.78349" fill="white"/>
<ellipse cx="332.159" cy="241.299" rx="6.77873" ry="6.78349" fill="white"/>
<ellipse cx="350.241" cy="241.299" rx="6.77873" ry="6.78349" fill="white"/>
<ellipse cx="368.322" cy="241.299" rx="6.77873" ry="6.78349" fill="white"/>
<ellipse cx="386.404" cy="241.299" rx="6.77873" ry="6.78349" fill="white"/>
<ellipse cx="404.486" cy="241.299" rx="6.77875" ry="6.78349" fill="white"/>
<ellipse cx="422.568" cy="241.299" rx="6.77873" ry="6.78349" fill="white"/>
<ellipse cx="440.649" cy="241.299" rx="6.77875" ry="6.78349" fill="white"/>
<ellipse cx="458.731" cy="241.299" rx="6.77873" ry="6.78349" fill="white"/>
<ellipse cx="476.813" cy="241.299" rx="6.77878" ry="6.78349" fill="white"/>
<ellipse cx="494.894" cy="241.299" rx="6.77872" ry="6.78349" fill="white"/>
<ellipse cx="512.976" cy="241.299" rx="6.77875" ry="6.78349" fill="white"/>
<ellipse cx="531.058" cy="241.299" rx="6.77872" ry="6.78349" fill="white"/>
<ellipse cx="549.14" cy="241.299" rx="6.77872" ry="6.78349" fill="white"/>
<ellipse cx="567.221" cy="241.299" rx="6.77875" ry="6.78349" fill="white"/>
</g>
<g opacity="0.1">
<ellipse cx="6.77874" cy="262.618" rx="6.77874" ry="6.7835" fill="white"/>
<ellipse cx="24.8532" cy="262.618" rx="6.77874" ry="6.7835" fill="white"/>
<ellipse cx="42.9279" cy="262.618" rx="6.77874" ry="6.7835" fill="white"/>
<ellipse cx="61.0024" cy="262.618" rx="6.77874" ry="6.7835" fill="white"/>
<ellipse cx="79.0771" cy="262.618" rx="6.77875" ry="6.7835" fill="white"/>
<ellipse cx="97.1703" cy="262.618" rx="6.77874" ry="6.7835" fill="white"/>
<ellipse cx="115.245" cy="262.618" rx="6.77874" ry="6.7835" fill="white"/>
<ellipse cx="133.319" cy="262.618" rx="6.77874" ry="6.7835" fill="white"/>
<ellipse cx="151.394" cy="262.618" rx="6.77874" ry="6.7835" fill="white"/>
<ellipse cx="169.468" cy="262.618" rx="6.77873" ry="6.7835" fill="white"/>
<ellipse cx="187.543" cy="262.618" rx="6.77872" ry="6.7835" fill="white"/>
<ellipse cx="205.618" cy="262.618" rx="6.77874" ry="6.7835" fill="white"/>
<ellipse cx="223.692" cy="262.618" rx="6.77875" ry="6.7835" fill="white"/>
<ellipse cx="241.767" cy="262.618" rx="6.77874" ry="6.7835" fill="white"/>
<ellipse cx="259.86" cy="262.618" rx="6.77874" ry="6.7835" fill="white"/>
<ellipse cx="277.935" cy="262.618" rx="6.77875" ry="6.7835" fill="white"/>
<ellipse cx="296.009" cy="262.618" rx="6.77875" ry="6.7835" fill="white"/>
<ellipse cx="314.077" cy="262.618" rx="6.77875" ry="6.7835" fill="white"/>
<ellipse cx="332.159" cy="262.618" rx="6.77873" ry="6.7835" fill="white"/>
<ellipse cx="350.241" cy="262.618" rx="6.77873" ry="6.7835" fill="white"/>
<ellipse cx="368.322" cy="262.618" rx="6.77873" ry="6.7835" fill="white"/>
<ellipse cx="386.404" cy="262.618" rx="6.77873" ry="6.7835" fill="white"/>
<ellipse cx="404.486" cy="262.618" rx="6.77875" ry="6.7835" fill="white"/>
<ellipse cx="422.568" cy="262.618" rx="6.77873" ry="6.7835" fill="white"/>
<ellipse cx="440.649" cy="262.618" rx="6.77875" ry="6.7835" fill="white"/>
<ellipse cx="458.731" cy="262.618" rx="6.77873" ry="6.7835" fill="white"/>
<ellipse cx="476.813" cy="262.618" rx="6.77878" ry="6.7835" fill="white"/>
<ellipse cx="494.894" cy="262.618" rx="6.77872" ry="6.7835" fill="white"/>
<ellipse cx="512.976" cy="262.618" rx="6.77875" ry="6.7835" fill="white"/>
<ellipse cx="531.058" cy="262.618" rx="6.77872" ry="6.7835" fill="white"/>
<ellipse cx="549.14" cy="262.618" rx="6.77872" ry="6.7835" fill="white"/>
<ellipse cx="567.221" cy="262.618" rx="6.77875" ry="6.7835" fill="white"/>
</g>
<g opacity="0.1">
<ellipse cx="6.77874" cy="283.938" rx="6.77874" ry="6.78349" fill="white"/>
<ellipse cx="24.8532" cy="283.938" rx="6.77874" ry="6.78349" fill="white"/>
<ellipse cx="42.9279" cy="283.938" rx="6.77874" ry="6.78349" fill="white"/>
<ellipse cx="61.0024" cy="283.938" rx="6.77874" ry="6.78349" fill="white"/>
<ellipse cx="79.0771" cy="283.938" rx="6.77875" ry="6.78349" fill="white"/>
<ellipse cx="97.1703" cy="283.938" rx="6.77874" ry="6.78349" fill="white"/>
<ellipse cx="115.245" cy="283.938" rx="6.77874" ry="6.78349" fill="white"/>
<ellipse cx="133.319" cy="283.938" rx="6.77874" ry="6.78349" fill="white"/>
<ellipse cx="151.394" cy="283.938" rx="6.77874" ry="6.78349" fill="white"/>
<ellipse cx="169.468" cy="283.938" rx="6.77873" ry="6.78349" fill="white"/>
<ellipse cx="187.543" cy="283.938" rx="6.77872" ry="6.78349" fill="white"/>
<ellipse cx="205.618" cy="283.938" rx="6.77874" ry="6.78349" fill="white"/>
<ellipse cx="223.692" cy="283.938" rx="6.77875" ry="6.78349" fill="white"/>
<ellipse cx="241.767" cy="283.938" rx="6.77874" ry="6.78349" fill="white"/>
<ellipse cx="259.86" cy="283.938" rx="6.77874" ry="6.78349" fill="white"/>
<ellipse cx="277.935" cy="283.938" rx="6.77875" ry="6.78349" fill="white"/>
<ellipse cx="296.009" cy="283.938" rx="6.77875" ry="6.78349" fill="white"/>
<ellipse cx="314.077" cy="283.938" rx="6.77875" ry="6.78349" fill="white"/>
<ellipse cx="332.159" cy="283.938" rx="6.77873" ry="6.78349" fill="white"/>
<ellipse cx="350.241" cy="283.938" rx="6.77873" ry="6.78349" fill="white"/>
<ellipse cx="368.322" cy="283.938" rx="6.77873" ry="6.78349" fill="white"/>
<ellipse cx="386.404" cy="283.938" rx="6.77873" ry="6.78349" fill="white"/>
<ellipse cx="404.486" cy="283.938" rx="6.77875" ry="6.78349" fill="white"/>
<ellipse cx="422.568" cy="283.938" rx="6.77873" ry="6.78349" fill="white"/>
<ellipse cx="440.649" cy="283.938" rx="6.77875" ry="6.78349" fill="white"/>
<ellipse cx="458.731" cy="283.938" rx="6.77873" ry="6.78349" fill="white"/>
<ellipse cx="476.813" cy="283.938" rx="6.77878" ry="6.78349" fill="white"/>
<ellipse cx="494.894" cy="283.938" rx="6.77872" ry="6.78349" fill="white"/>
<ellipse cx="512.976" cy="283.938" rx="6.77875" ry="6.78349" fill="white"/>
<ellipse cx="531.058" cy="283.938" rx="6.77872" ry="6.78349" fill="white"/>
<ellipse cx="549.14" cy="283.938" rx="6.77872" ry="6.78349" fill="white"/>
<ellipse cx="567.221" cy="283.938" rx="6.77875" ry="6.78349" fill="white"/>
</g>
<g opacity="0.1">
<ellipse cx="6.77874" cy="305.258" rx="6.77874" ry="6.78349" fill="white"/>
<ellipse cx="24.8532" cy="305.258" rx="6.77874" ry="6.78349" fill="white"/>
<ellipse cx="42.9279" cy="305.258" rx="6.77874" ry="6.78349" fill="white"/>
<ellipse cx="61.0024" cy="305.258" rx="6.77874" ry="6.78349" fill="white"/>
<ellipse cx="79.0771" cy="305.258" rx="6.77875" ry="6.78349" fill="white"/>
<ellipse cx="97.1703" cy="305.258" rx="6.77874" ry="6.78349" fill="white"/>
<ellipse cx="115.245" cy="305.258" rx="6.77874" ry="6.78349" fill="white"/>
<ellipse cx="133.319" cy="305.258" rx="6.77874" ry="6.78349" fill="white"/>
<ellipse cx="151.394" cy="305.258" rx="6.77874" ry="6.78349" fill="white"/>
<ellipse cx="169.468" cy="305.258" rx="6.77873" ry="6.78349" fill="white"/>
<ellipse cx="187.543" cy="305.258" rx="6.77872" ry="6.78349" fill="white"/>
<ellipse cx="205.618" cy="305.258" rx="6.77874" ry="6.78349" fill="white"/>
<ellipse cx="223.692" cy="305.258" rx="6.77875" ry="6.78349" fill="white"/>
<ellipse cx="241.767" cy="305.258" rx="6.77874" ry="6.78349" fill="white"/>
<ellipse cx="259.86" cy="305.258" rx="6.77874" ry="6.78349" fill="white"/>
<ellipse cx="277.935" cy="305.258" rx="6.77875" ry="6.78349" fill="white"/>
<ellipse cx="296.009" cy="305.258" rx="6.77875" ry="6.78349" fill="white"/>
<ellipse cx="314.077" cy="305.258" rx="6.77875" ry="6.78349" fill="white"/>
<ellipse cx="332.159" cy="305.258" rx="6.77873" ry="6.78349" fill="white"/>
<ellipse cx="350.241" cy="305.258" rx="6.77873" ry="6.78349" fill="white"/>
<ellipse cx="368.322" cy="305.258" rx="6.77873" ry="6.78349" fill="white"/>
<ellipse cx="386.404" cy="305.258" rx="6.77873" ry="6.78349" fill="white"/>
<ellipse cx="404.486" cy="305.258" rx="6.77875" ry="6.78349" fill="white"/>
<ellipse cx="422.568" cy="305.258" rx="6.77873" ry="6.78349" fill="white"/>
<ellipse cx="440.649" cy="305.258" rx="6.77875" ry="6.78349" fill="white"/>
<ellipse cx="458.731" cy="305.258" rx="6.77873" ry="6.78349" fill="white"/>
<ellipse cx="476.813" cy="305.258" rx="6.77878" ry="6.78349" fill="white"/>
<ellipse cx="494.894" cy="305.258" rx="6.77872" ry="6.78349" fill="white"/>
<ellipse cx="512.976" cy="305.258" rx="6.77875" ry="6.78349" fill="white"/>
<ellipse cx="531.058" cy="305.258" rx="6.77872" ry="6.78349" fill="white"/>
<ellipse cx="549.14" cy="305.258" rx="6.77872" ry="6.78349" fill="white"/>
<ellipse cx="567.221" cy="305.258" rx="6.77875" ry="6.78349" fill="white"/>
</g>
<g opacity="0.1">
<ellipse cx="6.77874" cy="326.577" rx="6.77874" ry="6.78349" fill="white"/>
<ellipse cx="24.8532" cy="326.577" rx="6.77874" ry="6.78349" fill="white"/>
<ellipse cx="42.9279" cy="326.577" rx="6.77874" ry="6.78349" fill="white"/>
<ellipse cx="61.0024" cy="326.577" rx="6.77874" ry="6.78349" fill="white"/>
<ellipse cx="79.0771" cy="326.577" rx="6.77875" ry="6.78349" fill="white"/>
<ellipse cx="97.1703" cy="326.577" rx="6.77874" ry="6.78349" fill="white"/>
<ellipse cx="115.245" cy="326.577" rx="6.77874" ry="6.78349" fill="white"/>
<ellipse cx="133.319" cy="326.577" rx="6.77874" ry="6.78349" fill="white"/>
<ellipse cx="151.394" cy="326.577" rx="6.77874" ry="6.78349" fill="white"/>
<ellipse cx="169.468" cy="326.577" rx="6.77873" ry="6.78349" fill="white"/>
<ellipse cx="187.543" cy="326.577" rx="6.77872" ry="6.78349" fill="white"/>
<ellipse cx="205.618" cy="326.577" rx="6.77874" ry="6.78349" fill="white"/>
<ellipse cx="223.692" cy="326.577" rx="6.77875" ry="6.78349" fill="white"/>
<ellipse cx="241.767" cy="326.577" rx="6.77874" ry="6.78349" fill="white"/>
<ellipse cx="259.86" cy="326.577" rx="6.77874" ry="6.78349" fill="white"/>
<ellipse cx="277.935" cy="326.577" rx="6.77875" ry="6.78349" fill="white"/>
<ellipse cx="296.009" cy="326.577" rx="6.77875" ry="6.78349" fill="white"/>
<ellipse cx="314.077" cy="326.577" rx="6.77875" ry="6.78349" fill="white"/>
<ellipse cx="332.159" cy="326.577" rx="6.77873" ry="6.78349" fill="white"/>
<ellipse cx="350.241" cy="326.577" rx="6.77873" ry="6.78349" fill="white"/>
<ellipse cx="368.322" cy="326.577" rx="6.77873" ry="6.78349" fill="white"/>
<ellipse cx="386.404" cy="326.577" rx="6.77873" ry="6.78349" fill="white"/>
<ellipse cx="404.486" cy="326.577" rx="6.77875" ry="6.78349" fill="white"/>
<ellipse cx="422.568" cy="326.577" rx="6.77873" ry="6.78349" fill="white"/>
<ellipse cx="440.649" cy="326.577" rx="6.77875" ry="6.78349" fill="white"/>
<ellipse cx="458.731" cy="326.577" rx="6.77873" ry="6.78349" fill="white"/>
<ellipse cx="476.813" cy="326.577" rx="6.77878" ry="6.78349" fill="white"/>
<ellipse cx="494.894" cy="326.577" rx="6.77872" ry="6.78349" fill="white"/>
<ellipse cx="512.976" cy="326.577" rx="6.77875" ry="6.78349" fill="white"/>
<ellipse cx="531.058" cy="326.577" rx="6.77872" ry="6.78349" fill="white"/>
<ellipse cx="549.14" cy="326.577" rx="6.77872" ry="6.78349" fill="white"/>
<ellipse cx="567.221" cy="326.577" rx="6.77875" ry="6.78349" fill="white"/>
</g>
<g opacity="0.1">
<ellipse cx="6.77874" cy="347.897" rx="6.77874" ry="6.78351" fill="white"/>
<ellipse cx="24.8532" cy="347.897" rx="6.77874" ry="6.78351" fill="white"/>
<ellipse cx="42.9279" cy="347.897" rx="6.77874" ry="6.78351" fill="white"/>
<ellipse cx="61.0024" cy="347.897" rx="6.77874" ry="6.78351" fill="white"/>
<ellipse cx="79.0771" cy="347.897" rx="6.77875" ry="6.78351" fill="white"/>
<ellipse cx="97.1703" cy="347.897" rx="6.77874" ry="6.78351" fill="white"/>
<ellipse cx="115.245" cy="347.897" rx="6.77874" ry="6.78351" fill="white"/>
<ellipse cx="133.319" cy="347.897" rx="6.77874" ry="6.78351" fill="white"/>
<ellipse cx="151.394" cy="347.897" rx="6.77874" ry="6.78351" fill="white"/>
<ellipse cx="169.468" cy="347.897" rx="6.77873" ry="6.78351" fill="white"/>
<ellipse cx="187.543" cy="347.897" rx="6.77872" ry="6.78351" fill="white"/>
<ellipse cx="205.618" cy="347.897" rx="6.77874" ry="6.78351" fill="white"/>
<ellipse cx="223.692" cy="347.897" rx="6.77875" ry="6.78351" fill="white"/>
<ellipse cx="241.767" cy="347.897" rx="6.77874" ry="6.78351" fill="white"/>
<ellipse cx="259.86" cy="347.897" rx="6.77874" ry="6.78351" fill="white"/>
<ellipse cx="277.935" cy="347.897" rx="6.77875" ry="6.78351" fill="white"/>
<ellipse cx="296.009" cy="347.897" rx="6.77875" ry="6.78351" fill="white"/>
<ellipse cx="314.077" cy="347.897" rx="6.77875" ry="6.78351" fill="white"/>
<ellipse cx="332.159" cy="347.897" rx="6.77873" ry="6.78351" fill="white"/>
<ellipse cx="350.241" cy="347.897" rx="6.77873" ry="6.78351" fill="white"/>
<ellipse cx="368.322" cy="347.897" rx="6.77873" ry="6.78351" fill="white"/>
<ellipse cx="386.404" cy="347.897" rx="6.77873" ry="6.78351" fill="white"/>
<ellipse cx="404.486" cy="347.897" rx="6.77875" ry="6.78351" fill="white"/>
<ellipse cx="422.568" cy="347.897" rx="6.77873" ry="6.78351" fill="white"/>
<ellipse cx="440.649" cy="347.897" rx="6.77875" ry="6.78351" fill="white"/>
<ellipse cx="458.731" cy="347.897" rx="6.77873" ry="6.78351" fill="white"/>
<ellipse cx="476.813" cy="347.897" rx="6.77878" ry="6.78351" fill="white"/>
<ellipse cx="494.894" cy="347.897" rx="6.77872" ry="6.78351" fill="white"/>
<ellipse cx="512.976" cy="347.897" rx="6.77875" ry="6.78351" fill="white"/>
<ellipse cx="531.058" cy="347.897" rx="6.77872" ry="6.78351" fill="white"/>
<ellipse cx="549.14" cy="347.897" rx="6.77872" ry="6.78351" fill="white"/>
<ellipse cx="567.221" cy="347.897" rx="6.77875" ry="6.78351" fill="white"/>
</g>
<g opacity="0.1">
<ellipse cx="6.77874" cy="369.217" rx="6.77874" ry="6.78349" fill="white"/>
<ellipse cx="24.8532" cy="369.217" rx="6.77874" ry="6.78349" fill="white"/>
<ellipse cx="42.9279" cy="369.217" rx="6.77874" ry="6.78349" fill="white"/>
<ellipse cx="61.0024" cy="369.217" rx="6.77874" ry="6.78349" fill="white"/>
<ellipse cx="79.0771" cy="369.217" rx="6.77875" ry="6.78349" fill="white"/>
<ellipse cx="97.1703" cy="369.217" rx="6.77874" ry="6.78349" fill="white"/>
<ellipse cx="115.245" cy="369.217" rx="6.77874" ry="6.78349" fill="white"/>
<ellipse cx="133.319" cy="369.217" rx="6.77874" ry="6.78349" fill="white"/>
<ellipse cx="151.394" cy="369.217" rx="6.77874" ry="6.78349" fill="white"/>
<ellipse cx="169.468" cy="369.217" rx="6.77873" ry="6.78349" fill="white"/>
<ellipse cx="187.543" cy="369.217" rx="6.77872" ry="6.78349" fill="white"/>
<ellipse cx="205.618" cy="369.217" rx="6.77874" ry="6.78349" fill="white"/>
<ellipse cx="223.692" cy="369.217" rx="6.77875" ry="6.78349" fill="white"/>
<ellipse cx="241.767" cy="369.217" rx="6.77874" ry="6.78349" fill="white"/>
<ellipse cx="259.86" cy="369.217" rx="6.77874" ry="6.78349" fill="white"/>
<ellipse cx="277.935" cy="369.217" rx="6.77875" ry="6.78349" fill="white"/>
<ellipse cx="296.009" cy="369.217" rx="6.77875" ry="6.78349" fill="white"/>
<ellipse cx="314.077" cy="369.217" rx="6.77875" ry="6.78349" fill="white"/>
<ellipse cx="332.159" cy="369.217" rx="6.77873" ry="6.78349" fill="white"/>
<ellipse cx="350.241" cy="369.217" rx="6.77873" ry="6.78349" fill="white"/>
<ellipse cx="368.322" cy="369.217" rx="6.77873" ry="6.78349" fill="white"/>
<ellipse cx="386.404" cy="369.217" rx="6.77873" ry="6.78349" fill="white"/>
<ellipse cx="404.486" cy="369.217" rx="6.77875" ry="6.78349" fill="white"/>
<ellipse cx="422.568" cy="369.217" rx="6.77873" ry="6.78349" fill="white"/>
<ellipse cx="440.649" cy="369.217" rx="6.77875" ry="6.78349" fill="white"/>
<ellipse cx="458.731" cy="369.217" rx="6.77873" ry="6.78349" fill="white"/>
<ellipse cx="476.813" cy="369.217" rx="6.77878" ry="6.78349" fill="white"/>
<ellipse cx="494.894" cy="369.217" rx="6.77872" ry="6.78349" fill="white"/>
<ellipse cx="512.976" cy="369.217" rx="6.77875" ry="6.78349" fill="white"/>
<ellipse cx="531.058" cy="369.217" rx="6.77872" ry="6.78349" fill="white"/>
<ellipse cx="549.14" cy="369.217" rx="6.77872" ry="6.78349" fill="white"/>
<ellipse cx="567.221" cy="369.217" rx="6.77875" ry="6.78349" fill="white"/>
</g>
</svg>
