<svg width="145" height="43" viewBox="0 0 145 43" fill="none" xmlns="http://www.w3.org/2000/svg">
<path d="M81.6749 40.0695H76.1756L68.0418 26.8781V40.0695H62.5104V18.8706H68.0418L76.1581 32.062V18.8706H81.6749V40.0695Z" fill="#F20732"/>
<path d="M92.5601 32.1636H97.4934L95.0166 24.8105L92.5601 32.1636ZM98.818 36.1106H91.2356L89.9111 40.0695H84.0004L92.4171 18.8706H97.6189L106.1 40.0695H100.154L98.818 36.1106Z" fill="#F20732"/>
<path d="M127.271 40.0695H121.772V31.2165H113.624V40.0695H108.092V18.8706H113.624V27.2874H121.772V18.8706H127.271V40.0695Z" fill="#F20732"/>
<path d="M140.236 18.8706H145.753V33.4155C145.753 34.7631 145.412 35.9702 144.735 37.0279C144.058 38.0856 143.113 38.9072 141.899 39.4869C140.683 40.0695 139.332 40.3623 137.841 40.3623C135.341 40.3623 133.395 39.7797 132.009 38.6174C130.621 37.4492 129.926 35.8028 129.926 33.6665H135.472C135.472 34.6346 135.653 35.3427 136.015 35.776C136.38 36.2122 136.986 36.4333 137.835 36.4333C138.603 36.4333 139.195 36.1704 139.606 35.6385C140.023 35.1097 140.231 34.3687 140.231 33.4185V18.8706H140.236Z" fill="#F20732"/>
<path d="M46.5958 -0.129395H37.7764C37.1083 -0.129395 36.5686 0.369579 36.5686 0.98508V9.13598C36.5686 9.75148 37.1083 10.2505 37.7764 10.2505H46.5958C47.261 10.2505 47.8036 9.75148 47.8036 9.13598V0.98508C47.8007 0.369579 47.261 -0.129395 46.5958 -0.129395Z" fill="#F20732"/>
<path d="M10.4257 32.752H0.979035C0.485991 32.752 0.0863037 33.1195 0.0863037 33.5766V42.3042C0.0863037 42.7613 0.485991 43.1288 0.979035 43.1288H10.4286C10.9216 43.1288 11.3213 42.7613 11.3213 42.3042V33.5766C11.3184 33.1195 10.9187 32.752 10.4257 32.752Z" fill="#F20732"/>
<path d="M40.8252 15.7422C36.3674 15.7422 32.3034 17.6066 29.6077 20.5377C28.9775 21.2219 27.758 20.7917 27.758 19.8893V0.847638C27.758 0.309822 27.2825 -0.129395 26.699 -0.129395H14.7726C14.1891 -0.129395 13.7165 0.309822 13.7136 0.847638C13.7136 3.25586 13.7106 9.29434 13.7048 9.38995C13.4831 13.1875 10.907 13.4325 5.70232 13.4594L0.979008 13.3967C0.401359 13.3877 -0.0770988 13.809 -0.0946034 14.3438L-0.117943 26.2475C-0.135447 26.8003 0.34301 27.2574 0.941082 27.2574H5.70232H6.44626C10.0668 27.2574 13.4597 26.3491 16.3801 24.7715C17.0861 24.3891 17.973 24.8552 17.973 25.6111V42.1549C17.973 42.6927 18.4456 43.1319 19.0291 43.1319H34.6198C35.2033 43.1319 35.6788 42.6957 35.6788 42.1549V34.8645C35.6788 30.6666 39.3635 27.2604 43.9089 27.2604H46.7388C47.3223 27.2604 47.7978 26.8212 47.7978 26.2834V16.7222C47.7978 16.1814 47.3223 15.7451 46.7388 15.7451H40.8252V15.7422Z" fill="#F20732"/>
</svg>
