<svg width="145" height="43" viewBox="0 0 145 43" fill="none" xmlns="http://www.w3.org/2000/svg">
<path d="M81.6748 40.0697H76.1755L68.0417 26.8782V40.0697H62.5103V18.8707H68.0417L76.158 32.0622V18.8707H81.6748V40.0697Z" fill="#F20732"/>
<path d="M92.5602 32.1638H97.4936L95.0167 24.8106L92.5602 32.1638ZM98.8181 36.1107H91.2357L89.9112 40.0697H84.0005L92.4173 18.8707H97.619L106.1 40.0697H100.154L98.8181 36.1107Z" fill="#F20732"/>
<path d="M127.271 40.0697H121.772V31.2166H113.624V40.0697H108.092V18.8707H113.624V27.2876H121.772V18.8707H127.271V40.0697Z" fill="#F20732"/>
<path d="M140.236 18.8707H145.753V33.4157C145.753 34.7632 145.412 35.9703 144.735 37.028C144.058 38.0857 143.113 38.9074 141.899 39.487C140.683 40.0696 139.332 40.3625 137.841 40.3625C135.341 40.3625 133.395 39.7798 132.009 38.6175C130.621 37.4493 129.926 35.803 129.926 33.6666H135.472C135.472 34.6347 135.653 35.3428 136.015 35.7761C136.38 36.2123 136.986 36.4334 137.835 36.4334C138.603 36.4334 139.195 36.1705 139.606 35.6386C140.023 35.1098 140.231 34.3688 140.231 33.4187V18.8707H140.236Z" fill="#F20732"/>
<path d="M46.5958 -0.12915H37.7764C37.1083 -0.12915 36.5686 0.369824 36.5686 0.985324V9.13623C36.5686 9.75173 37.1083 10.2507 37.7764 10.2507H46.5958C47.261 10.2507 47.8036 9.75173 47.8036 9.13623V0.985324C47.8007 0.369824 47.261 -0.12915 46.5958 -0.12915Z" fill="#F20732"/>
<path d="M10.4255 32.7523H0.978913C0.485869 32.7523 0.0861816 33.1198 0.0861816 33.577V42.3045C0.0861816 42.7617 0.485869 43.1292 0.978913 43.1292H10.4284C10.9215 43.1292 11.3212 42.7617 11.3212 42.3045V33.577C11.3183 33.1198 10.9186 32.7523 10.4255 32.7523Z" fill="#F20732"/>
<path d="M40.8252 15.7424C36.3674 15.7424 32.3034 17.6068 29.6077 20.5379C28.9775 21.2222 27.758 20.7919 27.758 19.8896V0.847883C27.758 0.310066 27.2825 -0.12915 26.699 -0.12915H14.7726C14.1891 -0.12915 13.7165 0.310066 13.7136 0.847883C13.7136 3.2561 13.7106 9.29459 13.7048 9.3902C13.4831 13.1878 10.907 13.4328 5.70232 13.4597L0.979008 13.3969C0.401359 13.388 -0.0770988 13.8093 -0.0946034 14.3441L-0.117943 26.2477C-0.135447 26.8005 0.34301 27.2577 0.941082 27.2577H5.70232H6.44626C10.0668 27.2577 13.4597 26.3493 16.3801 24.7717C17.0861 24.3893 17.973 24.8554 17.973 25.6113V42.1552C17.973 42.693 18.4456 43.1322 19.0291 43.1322H34.6198C35.2033 43.1322 35.6788 42.696 35.6788 42.1552V34.8648C35.6788 30.6668 39.3635 27.2606 43.9089 27.2606H46.7388C47.3223 27.2606 47.7978 26.8214 47.7978 26.2836V16.7224C47.7978 16.1816 47.3223 15.7454 46.7388 15.7454H40.8252V15.7424Z" fill="#F20732"/>
</svg>
