<svg width="149" height="50" viewBox="0 0 149 50" fill="none" xmlns="http://www.w3.org/2000/svg">
<g clip-path="url(#clip0_1_74)">
<path d="M83.6749 43.0695H78.1756L70.0418 29.8781V43.0695H64.5104V21.8706H70.0418L78.1581 35.062V21.8706H83.6749V43.0695Z" fill="white"/>
<path d="M94.5601 35.1636H99.4934L97.0166 27.8105L94.5601 35.1636ZM100.818 39.1106H93.2356L91.9111 43.0695H86.0004L94.4171 21.8706H99.6189L108.1 43.0695H102.154L100.818 39.1106Z" fill="white"/>
<path d="M129.271 43.0695H123.772V34.2165H115.624V43.0695H110.092V21.8706H115.624V30.2874H123.772V21.8706H129.271V43.0695Z" fill="white"/>
<path d="M142.236 21.8706H147.753V36.4155C147.753 37.7631 147.412 38.9702 146.735 40.0279C146.058 41.0856 145.113 41.9072 143.899 42.4869C142.683 43.0695 141.332 43.3623 139.841 43.3623C137.341 43.3623 135.395 42.7797 134.009 41.6174C132.621 40.4492 131.926 38.8028 131.926 36.6665H137.472C137.472 37.6346 137.653 38.3427 138.015 38.776C138.38 39.2122 138.986 39.4333 139.835 39.4333C140.603 39.4333 141.195 39.1704 141.606 38.6385C142.023 38.1097 142.231 37.3687 142.231 36.4185V21.8706H142.236Z" fill="white"/>
<path d="M48.5958 2.87061H39.7764C39.1083 2.87061 38.5686 3.36958 38.5686 3.98508V12.136C38.5686 12.7515 39.1083 13.2505 39.7764 13.2505H48.5958C49.261 13.2505 49.8036 12.7515 49.8036 12.136V3.98508C49.8007 3.36958 49.261 2.87061 48.5958 2.87061Z" fill="white"/>
<path d="M12.4257 35.752H2.97904C2.48599 35.752 2.0863 36.1195 2.0863 36.5766V45.3042C2.0863 45.7613 2.48599 46.1288 2.97904 46.1288H12.4286C12.9216 46.1288 13.3213 45.7613 13.3213 45.3042V36.5766C13.3184 36.1195 12.9187 35.752 12.4257 35.752Z" fill="white"/>
<path d="M42.8252 18.7422C38.3673 18.7422 34.3034 20.6066 31.6077 23.5377C30.9775 24.2219 29.758 23.7917 29.758 22.8893V3.84764C29.758 3.30982 29.2825 2.87061 28.699 2.87061H16.7726C16.1891 2.87061 15.7165 3.30982 15.7136 3.84764C15.7136 6.25586 15.7106 12.2943 15.7048 12.39C15.4831 16.1875 12.907 16.4325 7.70232 16.4594L2.97901 16.3967C2.40136 16.3877 1.9229 16.809 1.9054 17.3438L1.88206 29.2475C1.86455 29.8003 2.34301 30.2574 2.94108 30.2574H7.70232H8.44626C12.0668 30.2574 15.4597 29.3491 18.3801 27.7715C19.0861 27.3891 19.973 27.8552 19.973 28.6111V45.1549C19.973 45.6927 20.4456 46.1319 21.0291 46.1319H36.6198C37.2033 46.1319 37.6788 45.6957 37.6788 45.1549V37.8645C37.6788 33.6666 41.3635 30.2604 45.9089 30.2604H48.7388C49.3223 30.2604 49.7978 29.8212 49.7978 29.2834V19.7222C49.7978 19.1814 49.3223 18.7451 48.7388 18.7451H42.8252V18.7422Z" fill="white"/>
</g>
<defs>
<clipPath id="clip0_1_74">
<rect width="145" height="43" fill="white" transform="translate(2 3)"/>
</clipPath>
</defs>
</svg>
