<svg width="494" height="488" viewBox="0 0 494 488" fill="none" xmlns="http://www.w3.org/2000/svg">
<path d="M254.645 8.99669C201.164 30.2526 196.041 84.5847 147.886 89.2481C105.929 93.3116 89.9808 53.9818 60.5387 61.0281C15.6916 71.7641 -12.5031 178.634 5.50714 266.508C24.1058 357.244 102.247 477.865 231.706 486.096C377.048 495.338 487.023 356.552 493.738 234.759C494.464 221.588 498.753 111.228 414.341 46.0358C410.123 42.7783 326.944 -19.7361 254.645 8.99669Z" fill="#F4F7FA"/>
<path d="M159.298 461.549C170.525 461.471 189.427 461.34 206.757 449.116C238.261 426.891 244.115 379.126 236.686 345.43C230.306 316.488 209.638 292.782 168.304 245.372C129.374 200.721 114.038 192.362 115.461 172.574C117.49 144.363 150.712 132.804 148.144 99.5368C147.836 95.5453 146.776 81.8333 136.9 73.8604C119.993 60.2103 89.1158 72.9505 73.0503 84.3417C57.5547 95.3291 37.6585 117.954 40.4481 141.849C42.4699 159.162 54.6813 162.435 53.0484 177.322C51.4055 192.3 38.547 193.504 26.2736 215.311C21.37 224.023 11.5275 241.51 14.9977 260.103C19.4839 284.146 42.1631 288.273 41.003 306.814C40.1648 320.21 28.0507 322.435 23.9668 337.02C18.5904 356.222 33.0348 375.762 45.273 391.863C59.6805 410.822 98.5594 461.972 159.298 461.549Z" fill="url(#paint0_linear_103_333)"/>
<path opacity="0.16" d="M127.111 79.7839C135.103 90.411 94.5376 112.637 89.0254 157.795C83.094 206.383 121.359 251.877 139.043 272.902C169.214 308.773 186.976 309.13 202.666 343.518C208.876 357.128 221.813 385.482 209.622 414.894C208.488 417.627 195.405 447.903 166.468 454.734C133.644 462.484 105.378 434.179 81.0219 409.79C66.3042 395.052 36.9058 365.612 45.9134 346.876C51.4206 335.423 70.0109 330.606 83.5651 331.908C102.91 333.764 114.64 348.341 117.296 345.749C119.688 343.414 112.474 329.344 100.387 316.697C76.2088 291.401 57.2547 297.665 40.2671 275.945C38.2084 273.313 22.1965 252.216 28.9694 230.32C32.8756 217.692 44.4616 204.471 55.4508 205.253C67.8801 206.14 74.1803 224.557 77.6572 222.972C80.9817 221.457 77.2398 203.698 70.9782 186.687C61.7761 161.691 54.7987 159.137 53.1088 144.673C50.5287 122.606 64.0025 104.882 65.9757 102.362C84.4654 78.75 120.28 70.6984 127.111 79.7839Z" fill="white"/>
<path d="M357.212 184.029L285.748 163.31C278.015 161.068 273.577 153.157 275.864 145.656L297.306 79.112C299.564 71.7039 303.889 69.4015 312.875 69.3881H331.096L385.593 88.665C392.903 90.9858 397.07 98.7224 394.924 105.96L388.643 184.592C386.472 191.918 364.632 186.181 357.212 184.029Z" fill="url(#paint1_linear_103_333)"/>
<path d="M376.799 187.803L305.334 167.081C297.601 164.839 293.163 156.929 295.452 149.428L316.894 79.1103C319.152 71.7021 327.179 67.6704 334.795 70.0884L405.183 92.4352C412.492 94.756 416.66 102.493 414.514 109.73L394.15 178.419C391.976 185.747 384.219 189.953 376.799 187.803Z" fill="url(#paint2_linear_103_333)"/>
<path d="M355.112 139.51L343.806 136.107L335.848 162.507L321.5 158.298L343.323 86.1967L368.825 94.2047C376.862 96.7283 382.478 100.537 385.696 105.633C388.906 110.72 389.493 116.674 387.456 123.504C386.009 128.355 383.803 132.098 380.836 134.733C377.863 137.373 374.049 139.042 369.389 139.738L375.379 173.359L375.174 174.047L360.086 169.62L355.112 139.51ZM347.424 124.107L358.849 127.586C362.391 128.665 365.412 128.556 367.915 127.266C370.413 125.977 372.157 123.682 373.144 120.382C374.151 117.019 374.032 114.095 372.787 111.605C371.541 109.115 369.03 107.282 365.249 106.107L353.91 102.585L347.424 124.107Z" fill="white"/>
<g opacity="0.3">
<path opacity="0.3" d="M346.29 156.161C348.54 133.984 371.982 125.766 371.873 105.658C371.828 97.1539 367.583 87.5389 356.039 76.8347L335.076 70.1789C327.304 67.7123 319.113 71.8261 316.808 79.3867L295.535 149.148C293.202 156.803 297.73 164.876 305.621 167.164L352.455 180.742C347.828 172.76 345.444 164.511 346.29 156.161Z" fill="url(#paint3_linear_103_333)"/>
</g>
<path d="M288.994 117.301C286.001 120.639 282.211 123.16 277.979 124.647L208.021 149.224C200.166 151.962 191.328 148.089 188.304 140.552L160.604 72.2517C158.733 67.6386 158.743 62.4825 160.615 57.8711C164.845 47.4517 173.93 28.3524 180.79 25.9193L242.536 26.6365C250.222 24.1733 258.799 28.2619 261.718 35.7488L305.309 83.3229C306.711 88.1505 306.788 91.284 303.44 98.0387C300.498 103.972 293.666 112.088 288.994 117.301Z" fill="url(#paint4_linear_103_333)"/>
<path d="M296.02 97.9968L223.439 123.305C215.585 126.043 206.746 122.17 203.722 114.633L174.961 42.966C171.888 35.3081 175.911 27.0018 183.923 24.4347L257.954 0.717186C265.641 -1.74606 274.217 2.34259 277.136 9.8295L304.447 79.9079C307.319 87.2775 303.557 95.3677 296.02 97.9968Z" fill="url(#paint5_linear_103_333)"/>
<path d="M228.614 108.084L198.77 33.1968L224.448 24.8821C233.266 22.0267 240.613 21.6078 246.504 23.6086C252.376 25.6043 256.618 29.9376 259.236 36.6085C260.665 40.2463 261.022 43.7468 260.308 47.1133C259.594 50.4814 257.885 53.3468 255.178 55.7111C259.225 55.4347 262.868 56.3848 266.107 58.5581C269.34 60.7298 271.771 63.8918 273.403 68.0491C276.184 75.1372 276.112 81.2434 273.188 86.3793C270.258 91.5237 264.759 95.5302 256.666 98.3989L228.614 108.084ZM226.378 59.7009L237.441 56.0195C244.893 53.3853 247.421 49.057 245.042 43.0229C243.711 39.6448 241.801 37.5234 239.312 36.6621C236.82 35.7991 233.516 36.0404 229.395 37.3893L218.889 40.8295L226.378 59.7009ZM230.691 70.5694L238.661 90.6557L251.384 86.3073C254.868 85.1176 257.246 83.3346 258.522 80.9585C259.798 78.5841 259.842 75.8913 258.653 72.8751C255.981 66.0936 251.22 63.7896 244.358 65.9797L230.691 70.5694Z" fill="white"/>
<g opacity="0.3">
<path opacity="0.3" d="M249.22 75.6668C238.804 54.8566 246.898 38.3947 234.82 25.4133C230.996 21.3029 224.668 17.0249 213.394 14.9956L184.223 24.3425C176.047 26.9616 171.94 35.4388 175.076 43.2542L203.61 114.355C206.696 122.046 215.717 125.999 223.731 123.206L278.11 104.244C267.408 98.2113 255.979 89.171 249.22 75.6668Z" fill="url(#paint6_linear_103_333)"/>
</g>
<path d="M212.259 464.77L254.532 486.259C259.651 488.649 266.219 483.541 266.219 475.61V400.796C266.219 392.865 343.891 382.449 338.773 380.857L212.259 369.66C207.882 368.3 204.379 373.04 204.379 380.232V448.069C204.379 455.261 207.882 462.726 212.259 464.77Z" fill="url(#paint7_linear_103_333)"/>
<path d="M338.773 481.984L262.693 487.951C254.45 488.598 247.743 482.695 247.743 474.764V399.95C247.743 392.019 254.45 385.241 262.693 384.814L338.773 380.857C346.664 380.447 353.038 386.372 353.038 394.088V466.892C353.038 474.61 346.664 481.366 338.773 481.984Z" fill="url(#paint8_linear_103_333)"/>
<path d="M277.024 473.971V396.925L299.958 395.657C306.461 395.297 312.26 396.488 317.359 399.224C322.446 401.954 326.407 406.011 329.251 411.395C332.089 416.772 333.505 422.987 333.505 430.043V433.537C333.505 440.595 332.112 446.966 329.324 452.657C326.531 458.357 322.588 462.912 317.485 466.322C312.369 469.742 306.578 471.714 300.11 472.235L277.024 473.971ZM292.41 408.883V460.113L299.803 459.582C305.765 459.153 310.31 456.817 313.445 452.575C316.575 448.34 318.172 442.487 318.24 435.013V430.982C318.24 423.233 316.692 417.456 313.596 413.644C310.494 409.826 305.951 408.09 299.954 408.441L292.41 408.883Z" fill="white"/>
<path opacity="0.3" d="M325.537 442.274C319.826 413.959 307.961 397.974 297.711 382.994L262.998 384.799C254.588 385.236 247.743 392.153 247.743 400.247V474.469C247.743 482.562 254.588 488.586 262.998 487.928L328.213 482.814C328.999 469.873 328.357 456.249 325.537 442.274Z" fill="url(#paint9_linear_103_333)"/>
<path d="M204.379 286.622V353.924C204.379 361.264 207.954 368.323 212.423 369.712L235.781 376.973L256.703 383.478C261.924 385.102 266.219 379.875 266.219 371.782V297.56C266.219 289.466 349.63 281.631 344.409 280.823L240.454 274.521L212.423 274.581C207.954 273.887 204.379 279.285 204.379 286.622Z" fill="url(#paint10_linear_103_333)"/>
<path d="M338.478 279.739L296.104 280.823L262.998 281.669C254.588 281.884 247.743 288.62 247.743 296.715V370.937C247.743 379.031 254.588 385.236 262.998 384.798L297.711 382.994L338.478 380.874C346.533 380.455 353.038 373.732 353.038 365.857V293.628C353.038 285.751 346.533 279.533 338.478 279.739Z" fill="url(#paint11_linear_103_333)"/>
<path d="M286.199 363.732V325.25L315.901 374.339L330.983 373.585V297.608L315.951 298.062V348.353L286.526 299.505C282.456 309.395 279.693 320.372 279.651 333.037C279.611 345.447 282.196 355.112 286.199 363.732Z" fill="white"/>
<path d="M270.762 299.428V376.598L286.199 375.825V363.732C282.197 355.111 279.611 345.447 279.652 333.039C279.694 320.374 282.456 309.397 286.528 299.507L286.199 298.962L270.762 299.428Z" fill="white"/>
<g opacity="0.3">
<path opacity="0.3" d="M296.104 280.823L262.998 281.669C254.588 281.884 247.743 288.62 247.743 296.715V370.937C247.743 379.031 254.588 385.236 262.998 384.798L297.711 382.994C287.896 368.648 279.577 355.248 279.651 333.039C279.723 311.823 287.409 295.366 296.104 280.823Z" fill="url(#paint12_linear_103_333)"/>
</g>
<path d="M212.259 274.496L256.893 281.46C262.011 282.259 266.219 276.433 266.219 268.436V193.004C266.219 185.008 344.958 178.593 339.839 178.602L285.723 177.152L212.26 178.602C207.883 178.608 204.381 184.49 204.381 191.741V260.138C204.379 267.389 207.882 273.814 212.259 274.496Z" fill="url(#paint13_linear_103_333)"/>
<path d="M338.773 279.732L262.693 281.678C254.45 281.889 247.743 275.63 247.743 267.701V192.887C247.743 184.956 254.45 178.533 262.693 178.54L338.773 178.605C346.664 178.612 353.038 184.874 353.038 192.59V265.393C353.038 273.11 346.664 279.529 338.773 279.732Z" fill="url(#paint14_linear_103_333)"/>
<path d="M314.36 253.015L287.713 253.508L282.605 269.392L266.221 269.76L293.978 192.726L308.062 192.687L335.378 268.203L319.437 268.562L314.36 253.015ZM291.839 244.141L310.28 243.844L301.031 215.445L291.839 244.141Z" fill="white"/>
<path opacity="0.3" d="M319.271 215.443C315.217 199.563 303.735 187.526 291.17 178.563L262.998 178.538C254.588 178.531 247.743 185.087 247.743 193.18V267.402C247.743 275.496 254.588 281.882 262.998 281.667L296.104 280.821C309.643 258.174 325.594 240.216 319.271 215.443Z" fill="url(#paint15_linear_103_333)"/>
<path d="M400.386 175.299C400.386 175.299 396.539 171.829 395.878 169.748C395.216 167.666 398.589 162.825 400.445 158.614C402.301 154.403 401.635 161.367 401.495 162.946C401.354 164.524 399.669 167.608 402.058 171.586L400.386 175.299Z" fill="url(#paint16_linear_103_333)"/>
<path d="M402.928 168.412C402.928 168.412 398.603 200.598 432.534 223.292L396.428 231.9C396.428 231.9 384.872 210.302 393.238 174.527L402.928 168.412Z" fill="url(#paint17_linear_103_333)"/>
<path d="M436.975 199.032C435.202 195.541 434.471 195.561 434.035 193.72C433.042 189.52 435.604 184.188 437.777 184.115C439.178 184.068 439.294 186.243 442.258 189.636C445.891 193.792 448.095 193.247 450.233 196.853C450.732 197.698 452.984 201.495 451.599 204.33C449.832 207.948 442.868 208.521 439.958 205.731C438.58 204.407 439.16 203.331 436.975 199.032Z" fill="url(#paint18_linear_103_333)"/>
<path d="M442.196 202.798C442.196 202.798 440.952 209.433 441.837 214.827C442.637 219.701 451.673 224.767 453.405 226.218C455.136 227.671 448.811 229.246 443.009 228.487C437.207 227.728 421.32 222.647 418.906 219.815C416.492 216.983 421.718 218.379 426.112 217.843C430.506 217.307 434.7 209.945 434.829 206.188C434.958 202.432 442.196 202.798 442.196 202.798Z" fill="url(#paint19_linear_103_333)"/>
<path d="M440.303 207.75C440.303 207.75 435.862 209.699 431.927 206.555C428.405 203.74 433.642 195.09 437.225 194.98C438.42 194.943 440.166 195.799 441.195 197.051C441.803 197.79 441.84 198.284 442.858 199.472C443.797 200.57 444.209 200.669 444.352 201.202C444.531 201.867 444.224 202.981 441.812 204.895C443.014 204.674 444.05 204.99 444.451 205.691C444.514 205.803 444.647 206.152 444.608 206.512C444.466 207.817 442.759 208.422 440.303 207.75Z" fill="url(#paint20_linear_103_333)"/>
<path d="M342.689 184.674C342.689 184.674 339.999 184.299 340.838 179.165C341.496 175.14 340.998 173.786 340.047 174.5C339.097 175.214 338.962 177.539 338.962 177.539C338.962 177.539 335.496 174.583 334.067 170.709C332.639 166.835 331.722 170.098 331.415 172.035C331.11 173.972 333.455 179.986 334.78 181.107C336.106 182.228 338.044 187.169 338.044 187.169L342.689 184.674Z" fill="url(#paint21_linear_103_333)"/>
<path d="M442.179 468.668C443.564 471.49 443.175 472.703 442.83 473.236C441.819 474.801 439.388 473.323 433.039 474.073C432.295 474.162 430.873 474.353 429.101 473.936C427.582 473.578 425.792 472.77 425.867 472.363C425.896 472.215 426.165 472.155 426.268 472.133C428.03 471.758 439.057 468.375 439.057 468.375L442.179 468.668Z" fill="url(#paint22_linear_103_333)"/>
<path d="M443.026 462.464L442.041 468.773C442.041 468.773 439.331 470.689 438.618 468.363C438.105 466.69 438.12 462.183 438.12 462.183L443.026 462.464Z" fill="url(#paint23_linear_103_333)"/>
<path d="M412.12 462.897L414.78 470.159L418.648 469.544L417.751 462.82L412.12 462.897Z" fill="url(#paint24_linear_103_333)"/>
<path d="M415.984 474.161C417.857 471.94 419.526 472.141 419.865 470.617C420.13 469.419 419.396 467.947 418.288 467.389C416.73 466.605 414.844 467.83 414.417 468.106C411.521 469.988 412.309 472.929 409.58 474.206C409.03 474.462 408.16 474.735 407.241 475.595C406.852 475.96 405.887 476.864 406.113 477.487C406.375 478.207 408.096 478.182 409.733 478.159C411.696 478.13 412.678 478.117 413.622 477.527C414.931 476.709 414.541 475.873 415.984 474.161Z" fill="url(#paint25_linear_103_333)"/>
<path d="M463.718 311.583C463.002 326.256 460.902 338.779 458.511 348.991C455.939 359.975 454.538 361.852 453.646 369.466C451.705 386.035 457.007 388.527 457.587 407.313C458.228 428.058 452.362 444.409 450.06 450.644C448.048 456.095 445.969 460.489 444.412 463.537C442.476 465.152 439.584 464.453 436.533 463.766C435.807 444.947 434.779 427.23 434.053 408.41C431.019 380.058 427.986 351.707 424.952 323.355C437.874 319.429 450.796 315.506 463.718 311.583Z" fill="url(#paint26_linear_103_333)"/>
<path opacity="0.3" d="M436.531 463.766C435.805 444.947 434.777 427.23 434.051 408.411C431.017 380.058 427.984 351.707 424.95 323.355C437.872 319.43 450.794 315.508 463.716 311.585C463.67 312.557 463.601 313.494 463.54 314.447C445.202 329.687 441.413 341.992 441.408 350.439C441.401 360.686 446.895 365.882 445.482 380.707C444.471 391.307 441.238 393.108 441.034 402.69C440.771 415.026 445.919 422.077 448.347 429.261C450.692 436.205 451.371 445.983 446.256 459.76C445.592 461.179 444.967 462.449 444.41 463.539C442.474 465.152 439.582 464.455 436.531 463.766Z" fill="url(#paint27_linear_103_333)"/>
<path d="M441.797 322.547C430.169 336.78 423.535 350.087 419.709 359.409C415.104 370.624 411.766 379.031 412.812 389.918C413.964 401.9 419.401 406.205 423.01 416.42C426.512 426.327 428.217 441.57 419.082 464.254C416.784 465.05 414.486 465.846 412.185 466.64C410.658 460.511 408.187 451.341 404.494 440.421C397.173 418.783 389.877 404.543 387.904 400.119C380.955 384.544 380.252 356.736 409.178 303.084C420.051 309.572 430.925 316.059 441.797 322.547Z" fill="url(#paint28_linear_103_333)"/>
<path d="M335.522 186.05C338.582 183.909 341.643 181.767 344.703 179.624C348.426 202.5 356.889 211.478 364.077 215.406C381.419 224.881 396.896 207.996 430.088 214.887C439.235 216.785 455.178 220.323 464.02 233.346C466.343 236.769 467.17 239.362 471.029 263.922C475.961 295.316 476.137 300.795 475.442 307.555C474.169 319.926 473.398 327.422 467.691 334.057C452.538 351.677 420.331 342.592 416.293 341.397C408.832 339.188 397.24 335.755 392.633 325.904C390.465 321.269 390.695 317.029 394.026 300.076C400.624 266.494 401.468 264.321 399.625 260.643C393.409 248.233 373.715 255.334 357.076 243.792C347.35 237.046 336.384 222.34 335.522 186.05Z" fill="url(#paint29_linear_103_333)"/>
<path opacity="0.3" d="M431.384 336.911C428.137 330.254 432.501 324.119 427.713 316.116C421.61 305.918 410.631 309.38 406.5 301.846C399.436 288.96 427.245 270.987 421.594 250.471C418.896 240.675 409.474 233.586 401.605 230.9C384.133 224.936 372.705 240.138 356.326 235.385C352.443 234.259 347.987 231.925 343.48 227.081C347.464 235.481 352.411 240.556 357.077 243.792C373.714 255.333 393.409 248.231 399.625 260.643C401.468 264.321 400.624 266.494 394.026 300.076C390.695 317.029 390.465 321.267 392.633 325.904C397.24 335.757 408.832 339.19 416.293 341.397C418.502 342.052 429.156 345.062 440.829 344.77C435.621 342.654 432.817 339.849 431.384 336.911Z" fill="url(#paint30_linear_103_333)"/>
<path d="M188.175 140.502C188.175 140.502 185.234 132.145 180.921 128.876C176.607 125.607 177.202 113.178 177.202 113.178C177.202 113.178 181.291 116.201 182.674 119.925C184.057 123.648 185.038 127.05 186.802 128.878C188.567 130.704 191.115 140.504 191.115 140.504H188.175V140.502Z" fill="url(#paint31_linear_103_333)"/>
<path d="M225.768 153.586C226.16 152.997 224.688 147.51 229.052 145.943C231.34 145.12 234.214 144.009 236.43 143.138C238.663 142.26 240.484 140.576 241.535 138.417L241.54 138.407C242.012 137.434 241.003 136.412 240.021 136.864C237.349 138.094 233.588 139.532 231.756 138.888C228.738 137.828 225.181 141.435 224.004 144.473C222.827 147.511 222.406 152.803 222.406 152.803L225.768 153.586Z" fill="url(#paint32_linear_103_333)"/>
<path d="M118.875 307.163L120.845 300.388L112.622 294.299L107.497 292.383L110.531 301.861L118.875 307.163Z" fill="url(#paint33_linear_103_333)"/>
<path d="M129.052 443.595C129.052 443.595 124.554 454.904 125.738 459.919C120.91 459.825 117.785 459.21 117.785 459.21C117.785 459.21 119.726 454.053 120.103 451.497C120.615 448.045 120.578 442.46 120.578 442.46L129.052 443.595Z" fill="url(#paint34_linear_103_333)"/>
<path d="M178.629 470.043C178.337 470.394 177.822 471.128 177.779 472.121C177.755 472.661 177.879 473.105 178.034 473.514C178.8 475.531 180.005 475.796 181.304 477.938C182.099 479.245 181.948 479.64 182.676 480.23C183.635 481.007 184.795 481.053 185.801 481.064C187.499 481.085 189.947 481.022 193.026 480.657C191.412 478.578 189.695 476.466 187.871 474.333C187.07 473.398 186.272 472.485 185.474 471.593L180.728 469.992C180.027 470.007 179.328 470.025 178.629 470.043Z" fill="#26264F"/>
<path d="M182.575 447.015C182.575 447.015 185.288 461.161 181.836 465.122C178.895 469.083 183.256 466.258 183.256 466.258L188.463 470.801L191.588 476.195C191.588 476.195 188.713 462.349 189.479 456.854C190.245 451.36 190.629 447.653 190.629 447.653L182.575 447.015Z" fill="url(#paint35_linear_103_333)"/>
<path d="M192.802 292.268C192.802 292.268 200.089 298.784 200.089 325.619C200.089 352.453 196.637 410.723 196.637 410.723L191.114 452.441C191.114 452.441 185.387 452.645 181.551 451.494C178.099 435.776 172.475 409.188 175.159 386.954C176.309 362.802 165.571 332.518 165.571 332.518C165.571 332.518 156.365 363.186 149.846 378.52C143.326 393.854 130.912 441.892 129.762 445.342C122.132 446.034 118.873 444.017 118.873 444.017C118.873 444.017 123.765 392.321 128.367 372.769C132.969 353.217 132.587 306.065 140.256 292.648C157.517 285.751 192.802 292.268 192.802 292.268Z" fill="url(#paint36_linear_103_333)"/>
<path d="M192.802 292.268C192.802 292.268 200.089 298.784 200.089 325.619C200.089 352.453 196.638 410.723 196.638 410.723L191.114 452.441C191.114 452.441 185.387 452.645 181.551 451.494C178.099 435.776 172.475 409.188 175.159 386.954C176.309 362.802 165.571 332.518 165.571 332.518C165.571 332.518 156.366 363.186 149.846 378.52C143.326 393.854 130.912 441.892 129.762 445.342C122.132 446.034 118.875 444.017 118.875 444.017C118.875 444.017 123.767 392.321 128.369 372.769C132.97 353.217 132.588 306.065 140.258 292.648C157.517 285.751 192.802 292.268 192.802 292.268Z" fill="url(#paint37_linear_103_333)"/>
<path opacity="0.25" d="M154.947 341.437C152.676 356.2 148.131 364.149 136.769 374.369C127.681 381.182 134.498 395.945 131.088 407.301C129.951 410.708 126.543 414.114 125.408 417.521C121.18 425.973 125.13 436.31 123.212 445.26C120.229 444.848 118.875 444.019 118.875 444.019C118.875 444.019 123.767 392.322 128.369 372.771C132.97 353.219 132.588 306.067 140.258 292.65C157.517 285.749 192.802 292.266 192.802 292.266C192.802 292.266 200.089 298.783 200.089 325.617C200.089 327.794 200.066 330.182 200.024 332.725C192.458 339.418 176.986 340.904 167.444 333.486C166.867 333.054 166.253 332.789 165.62 332.66C165.589 332.574 165.569 332.517 165.569 332.517C165.569 332.517 165.553 332.571 165.529 332.65C161.189 331.861 155.933 337.498 154.947 341.437Z" fill="url(#paint38_linear_103_333)"/>
<path d="M126.922 464.211C126.922 464.211 128.043 464.21 127.949 465.658C127.856 467.106 128.454 472.083 122.757 472.317C117.059 472.55 116.181 471.914 115.995 471.914C115.809 471.914 117.49 467.151 117.49 467.151L119.312 464.817L124.216 464.304L126.922 464.211Z" fill="#26264F"/>
<path d="M114.288 469.207C114.409 468.006 115.083 466.112 115.76 464.591C116.766 462.329 115.939 461.482 116.902 459.421C117.234 458.709 117.557 458.034 118.26 457.364C118.42 457.209 119.993 455.757 122.283 455.832C122.734 455.847 123.428 455.877 124.177 456.276C125.061 456.747 125.504 457.454 125.881 458.074C126.474 459.049 126.338 459.349 127.254 462.143C127.327 462.367 127.488 462.855 127.612 463.527C127.708 464.041 127.745 464.474 127.763 464.77C126.268 464.77 120.524 465.003 119.311 465.891C118.097 466.778 117.488 468.272 117.488 469.765C117.488 471.258 116.741 471.959 115.993 471.912C115.326 471.87 114 470.635 114.288 469.207Z" fill="#444B8C"/>
<path d="M183.303 463.136C182.018 463.157 181.078 464.177 180.367 466.637C179.656 469.097 176.248 471.273 180.225 470.754C184.201 470.235 187.09 475.865 188.51 477.946C189.93 480.027 193.742 481.877 193.648 479.843C193.554 477.809 191.871 476.857 191.398 474.776C190.924 472.694 186.23 463.089 183.303 463.136Z" fill="#444B8C"/>
<path d="M183.159 135.718C184.461 138.181 192.716 154.408 185.502 171.299C179.596 185.127 166.838 191.176 165.014 192.007C153.913 197.073 147.482 193.504 144.4 198.066C139.172 205.81 149.52 228.187 163.78 230.94C179.853 234.041 195.35 211.138 200.906 196.751C208.193 177.876 203.318 160.836 202.243 157.337C199.452 148.244 195.028 141.633 191.876 137.637C188.971 136.996 186.066 136.356 183.159 135.718Z" fill="url(#paint39_linear_103_333)"/>
<path d="M156.272 200.624C170.086 200.071 180.74 200.29 186.758 206.301C193.115 212.65 186.691 219.818 188.071 236.426C190.183 261.853 206.395 268.066 207.615 293.861C208.026 302.553 206.554 309.658 205.412 313.936C201.855 318.365 196.032 324.615 187.439 329.84C174.934 337.444 167.682 336.118 149.722 341.032C120.345 349.068 117.731 358.638 103.165 356.2C88.4436 353.735 75.5265 341.353 77.0872 334.552C78.021 330.48 83.9557 331.633 90.789 325.421C99.5954 317.416 96.1989 309.775 102.895 301.172C112.511 288.816 125.909 296.37 134.105 285.661C142.396 274.827 139.106 253.481 132.119 241.847C127.554 234.248 125.601 225.341 121.716 217.372C121.393 216.71 121.019 215.624 121.183 214.267C121.814 209.077 130.469 206.262 137.024 204.198C147.021 201.049 155.137 200.669 156.272 200.624Z" fill="url(#paint40_linear_103_333)"/>
<path d="M167.908 200.052L165.184 199.214C165.184 199.214 164.471 202.901 155.71 203.362C150.848 203.362 147.705 200.639 147.705 200.639L145.844 201.996C145.844 201.996 149.928 207.095 156.424 206.966C164.806 206.798 167.908 200.052 167.908 200.052Z" fill="url(#paint41_linear_103_333)"/>
<path d="M162.361 188.837C161.836 184.787 158.632 182.193 157.933 181.638C155.008 179.314 154.411 179.079 153.407 178.888L152.034 178.681C152.034 178.681 151.96 178.682 151.884 178.687C151.081 178.736 148.672 179.676 148.235 179.983C146.836 180.966 147.866 187.927 152.106 196.587C152.272 197.321 152.439 198.053 152.605 198.787C148.91 199.435 147.995 200.102 147.965 200.635C147.901 201.788 151.948 203.258 155.698 203.353C160.401 203.474 165.393 201.451 165.298 199.941C165.259 199.33 164.372 198.578 160.957 197.837C160.424 197.088 159.891 196.337 159.356 195.588C159.844 194.998 162.748 191.82 162.361 188.837Z" fill="url(#paint42_linear_103_333)"/>
<path d="M156.548 187.312C155.482 186.673 154.669 188.046 155.172 189.244C155.675 190.442 157.363 191.193 158.387 190.477C159.41 189.763 157.983 188.17 156.548 187.312Z" fill="url(#paint43_linear_103_333)"/>
<path d="M18.302 187.292C32.3423 172.063 65.0082 176.241 83.1274 188.47C91.5466 194.152 95.8686 200.865 105.817 201.429C113.379 201.858 125.411 199.015 131.747 190.827C132.545 189.795 135.738 185.469 140.531 180.013C142.645 177.608 144.748 175.349 148.005 174.84C148.833 174.711 151.586 174.262 153.406 176.04C154.882 177.479 155.244 179.984 154.808 181.789C154.546 182.868 154.209 182.982 154.258 183.689C154.394 185.675 158.01 186.539 157.809 187.538C157.665 188.252 155.782 187.991 155.458 188.889C155.103 189.871 157.17 190.717 158.059 193.188C159.723 194.303 160.774 197.074 161.138 200.783C161.673 206.234 161.125 210.664 160.092 214C155.116 230.062 151.557 241.552 142.944 247.968C131.54 256.462 121.27 248.62 92.2625 247.38C52.5404 245.681 42.6358 259.14 28.3607 249.932C10.5332 238.432 3.72512 203.102 18.302 187.292Z" fill="url(#paint44_linear_103_333)"/>
<path d="M220.726 149.219C221.533 152.461 224.737 166.854 216.393 180.536C208.597 193.319 195.621 197.453 193.202 198.169C181.501 201.627 172.411 197.808 168.719 201.895C162.456 208.829 172.786 231.82 186.518 236.543C201.997 241.867 220.554 221.362 228.073 207.894C237.935 190.228 235.499 172.673 234.926 169.057C233.439 159.662 229.984 152.496 227.426 148.098C226.607 147.97 225.375 147.873 223.915 148.128C222.525 148.369 221.442 148.84 220.726 149.219Z" fill="url(#paint45_linear_103_333)"/>
<path opacity="0.3" d="M102.722 346.481C106.254 342.861 102.367 335.562 107.584 330.135C112.427 325.098 117.909 329.166 125.706 324.833C135.705 319.275 132.95 309.098 142.501 303.627C149.37 299.693 152.597 303.922 163.274 301.859C173.933 299.8 186.916 292.455 193.33 279.328C196.054 273.75 197.06 268.205 197.192 263.25C201.987 271.811 206.959 280.015 207.613 293.861C208.024 302.553 206.552 309.658 205.41 313.936C201.853 318.365 196.031 324.615 187.437 329.84C174.932 337.444 167.68 336.118 149.72 341.032C120.343 349.068 117.73 358.638 103.163 356.2C93.7546 354.625 85.1041 348.999 80.4771 343.367C94.0547 349.408 100.159 349.108 102.722 346.481Z" fill="url(#paint46_linear_103_333)"/>
<defs>
<linearGradient id="paint0_linear_103_333" x1="206.05" y1="87.1453" x2="-110.104" y2="234.91" gradientUnits="userSpaceOnUse">
<stop stop-color="#F20732"/>
<stop offset="1" stop-color="#FF928E"/>
</linearGradient>
<linearGradient id="paint1_linear_103_333" x1="242.051" y1="164.63" x2="296.712" y2="145.7" gradientUnits="userSpaceOnUse">
<stop stop-color="#311944"/>
<stop offset="1" stop-color="#893976"/>
</linearGradient>
<linearGradient id="paint2_linear_103_333" x1="334.011" y1="62.4813" x2="446.983" y2="424.988" gradientUnits="userSpaceOnUse">
<stop stop-color="#FFC444"/>
<stop offset="0.9964" stop-color="#F36F56"/>
</linearGradient>
<linearGradient id="paint3_linear_103_333" x1="314.702" y1="68.6248" x2="427.565" y2="430.781" gradientUnits="userSpaceOnUse">
<stop stop-color="#FFC444"/>
<stop offset="0.9964" stop-color="#F36F56"/>
</linearGradient>
<linearGradient id="paint4_linear_103_333" x1="203.877" y1="115.694" x2="161.152" y2="177.359" gradientUnits="userSpaceOnUse">
<stop stop-color="#AB316D"/>
<stop offset="1" stop-color="#792D3D"/>
</linearGradient>
<linearGradient id="paint5_linear_103_333" x1="285.847" y1="6.057" x2="157.194" y2="117.279" gradientUnits="userSpaceOnUse">
<stop stop-color="#F20732"/>
<stop offset="1" stop-color="#FF928E"/>
</linearGradient>
<linearGradient id="paint6_linear_103_333" x1="176.434" y1="359.264" x2="206.148" y2="186.203" gradientUnits="userSpaceOnUse">
<stop stop-color="#FF9085"/>
<stop offset="1" stop-color="#FB6FBB"/>
</linearGradient>
<linearGradient id="paint7_linear_103_333" x1="360.147" y1="356.857" x2="184.078" y2="456.704" gradientUnits="userSpaceOnUse">
<stop stop-color="#311944"/>
<stop offset="1" stop-color="#893976"/>
</linearGradient>
<linearGradient id="paint8_linear_103_333" x1="284.815" y1="403.404" x2="417.751" y2="668.392" gradientUnits="userSpaceOnUse">
<stop offset="0.00359712" stop-color="#E38DDD"/>
<stop offset="1" stop-color="#9571F6"/>
</linearGradient>
<linearGradient id="paint9_linear_103_333" x1="265.774" y1="413.246" x2="399.488" y2="679.788" gradientUnits="userSpaceOnUse">
<stop offset="0.00359712" stop-color="#E38DDD"/>
<stop offset="1" stop-color="#9571F6"/>
</linearGradient>
<linearGradient id="paint10_linear_103_333" x1="204.38" y1="329.147" x2="344.645" y2="329.147" gradientUnits="userSpaceOnUse">
<stop stop-color="#444B8C"/>
<stop offset="0.9964" stop-color="#26264F"/>
</linearGradient>
<linearGradient id="paint11_linear_103_333" x1="257.854" y1="216.878" x2="447.372" y2="731.526" gradientUnits="userSpaceOnUse">
<stop stop-color="#AA80F9"/>
<stop offset="0.9964" stop-color="#6165D7"/>
</linearGradient>
<linearGradient id="paint12_linear_103_333" x1="234.134" y1="224.598" x2="426.575" y2="747.184" gradientUnits="userSpaceOnUse">
<stop stop-color="#AA80F9"/>
<stop offset="0.9964" stop-color="#6165D7"/>
</linearGradient>
<linearGradient id="paint13_linear_103_333" x1="219.821" y1="173.764" x2="318.407" y2="267.466" gradientUnits="userSpaceOnUse">
<stop stop-color="#AB316D"/>
<stop offset="1" stop-color="#792D3D"/>
</linearGradient>
<linearGradient id="paint14_linear_103_333" x1="270.27" y1="152.894" x2="375.543" y2="423.131" gradientUnits="userSpaceOnUse">
<stop stop-color="#FF9085"/>
<stop offset="1" stop-color="#FB6FBB"/>
</linearGradient>
<linearGradient id="paint15_linear_103_333" x1="251.509" y1="160.174" x2="357.391" y2="431.973" gradientUnits="userSpaceOnUse">
<stop stop-color="#FF9085"/>
<stop offset="1" stop-color="#FB6FBB"/>
</linearGradient>
<linearGradient id="paint16_linear_103_333" x1="399.403" y1="164.887" x2="410.238" y2="183.804" gradientUnits="userSpaceOnUse">
<stop stop-color="#AB316D"/>
<stop offset="1" stop-color="#792D3D"/>
</linearGradient>
<linearGradient id="paint17_linear_103_333" x1="423.143" y1="286.14" x2="413.362" y2="227.424" gradientUnits="userSpaceOnUse">
<stop stop-color="#AA80F9"/>
<stop offset="0.9964" stop-color="#6165D7"/>
</linearGradient>
<linearGradient id="paint18_linear_103_333" x1="443.103" y1="202.898" x2="442.348" y2="177.225" gradientUnits="userSpaceOnUse">
<stop offset="0.003597" stop-color="#26264F"/>
<stop offset="1" stop-color="#444B8C"/>
</linearGradient>
<linearGradient id="paint19_linear_103_333" x1="437.543" y1="164.809" x2="435.529" y2="240.241" gradientUnits="userSpaceOnUse">
<stop stop-color="#AB316D"/>
<stop offset="1" stop-color="#792D3D"/>
</linearGradient>
<linearGradient id="paint20_linear_103_333" x1="457.214" y1="190.855" x2="432.298" y2="206.15" gradientUnits="userSpaceOnUse">
<stop stop-color="#AB316D"/>
<stop offset="1" stop-color="#792D3D"/>
</linearGradient>
<linearGradient id="paint21_linear_103_333" x1="339.582" y1="185.012" x2="343.794" y2="198.468" gradientUnits="userSpaceOnUse">
<stop stop-color="#AB316D"/>
<stop offset="1" stop-color="#792D3D"/>
</linearGradient>
<linearGradient id="paint22_linear_103_333" x1="429.299" y1="490.448" x2="442.195" y2="445.692" gradientUnits="userSpaceOnUse">
<stop stop-color="#444B8C"/>
<stop offset="0.9964" stop-color="#26264F"/>
</linearGradient>
<linearGradient id="paint23_linear_103_333" x1="440.836" y1="481.609" x2="439.849" y2="410.012" gradientUnits="userSpaceOnUse">
<stop stop-color="#FFC444"/>
<stop offset="0.9964" stop-color="#F36F56"/>
</linearGradient>
<linearGradient id="paint24_linear_103_333" x1="415.564" y1="479.283" x2="414.576" y2="407.684" gradientUnits="userSpaceOnUse">
<stop stop-color="#FFC444"/>
<stop offset="0.9964" stop-color="#F36F56"/>
</linearGradient>
<linearGradient id="paint25_linear_103_333" x1="410.621" y1="482.059" x2="423.517" y2="437.303" gradientUnits="userSpaceOnUse">
<stop stop-color="#444B8C"/>
<stop offset="0.9964" stop-color="#26264F"/>
</linearGradient>
<linearGradient id="paint26_linear_103_333" x1="444.892" y1="327.031" x2="453.505" y2="474.884" gradientUnits="userSpaceOnUse">
<stop stop-color="#311944"/>
<stop offset="1" stop-color="#893976"/>
</linearGradient>
<linearGradient id="paint27_linear_103_333" x1="444.892" y1="327.031" x2="453.505" y2="474.884" gradientUnits="userSpaceOnUse">
<stop stop-color="#311944"/>
<stop offset="1" stop-color="#893976"/>
</linearGradient>
<linearGradient id="paint28_linear_103_333" x1="326.604" y1="389.846" x2="471.503" y2="381.25" gradientUnits="userSpaceOnUse">
<stop stop-color="#311944"/>
<stop offset="1" stop-color="#893976"/>
</linearGradient>
<linearGradient id="paint29_linear_103_333" x1="402.259" y1="224.045" x2="428.343" y2="359.961" gradientUnits="userSpaceOnUse">
<stop stop-color="#AA80F9"/>
<stop offset="0.9964" stop-color="#6165D7"/>
</linearGradient>
<linearGradient id="paint30_linear_103_333" x1="381.05" y1="228.115" x2="407.133" y2="364.032" gradientUnits="userSpaceOnUse">
<stop stop-color="#AA80F9"/>
<stop offset="0.9964" stop-color="#6165D7"/>
</linearGradient>
<linearGradient id="paint31_linear_103_333" x1="187.5" y1="119.841" x2="180.173" y2="135.201" gradientUnits="userSpaceOnUse">
<stop stop-color="#FFC444"/>
<stop offset="0.9964" stop-color="#F36F56"/>
</linearGradient>
<linearGradient id="paint32_linear_103_333" x1="235.301" y1="136.112" x2="227.072" y2="153.362" gradientUnits="userSpaceOnUse">
<stop stop-color="#FFC444"/>
<stop offset="0.9964" stop-color="#F36F56"/>
</linearGradient>
<linearGradient id="paint33_linear_103_333" x1="115.29" y1="295.446" x2="112.1" y2="302.01" gradientUnits="userSpaceOnUse">
<stop stop-color="#FFC444"/>
<stop offset="0.9964" stop-color="#F36F56"/>
</linearGradient>
<linearGradient id="paint34_linear_103_333" x1="123.419" y1="462.568" x2="123.419" y2="441.98" gradientUnits="userSpaceOnUse">
<stop stop-color="#FFC444"/>
<stop offset="0.9964" stop-color="#F36F56"/>
</linearGradient>
<linearGradient id="paint35_linear_103_333" x1="186.202" y1="468.436" x2="186.202" y2="443.624" gradientUnits="userSpaceOnUse">
<stop stop-color="#FFC444"/>
<stop offset="0.9964" stop-color="#F36F56"/>
</linearGradient>
<linearGradient id="paint36_linear_103_333" x1="200.089" y1="370.969" x2="118.875" y2="370.969" gradientUnits="userSpaceOnUse">
<stop stop-color="#311944"/>
<stop offset="1" stop-color="#893976"/>
</linearGradient>
<linearGradient id="paint37_linear_103_333" x1="202.671" y1="310.456" x2="144.2" y2="408.71" gradientUnits="userSpaceOnUse">
<stop stop-color="#311944"/>
<stop offset="1" stop-color="#893976"/>
</linearGradient>
<linearGradient id="paint38_linear_103_333" x1="179.637" y1="296.749" x2="121.166" y2="395.002" gradientUnits="userSpaceOnUse">
<stop stop-color="#311944"/>
<stop offset="1" stop-color="#893976"/>
</linearGradient>
<linearGradient id="paint39_linear_103_333" x1="202.402" y1="155.857" x2="154.979" y2="215.85" gradientUnits="userSpaceOnUse">
<stop stop-color="#FFC444"/>
<stop offset="0.9964" stop-color="#F36F56"/>
</linearGradient>
<linearGradient id="paint40_linear_103_333" x1="188.41" y1="210.81" x2="61.4373" y2="478.989" gradientUnits="userSpaceOnUse">
<stop stop-color="#FFC444"/>
<stop offset="0.9964" stop-color="#F36F56"/>
</linearGradient>
<linearGradient id="paint41_linear_103_333" x1="164.594" y1="188.805" x2="152.609" y2="207.863" gradientUnits="userSpaceOnUse">
<stop offset="0.00359712" stop-color="#E38DDD"/>
<stop offset="1" stop-color="#9571F6"/>
</linearGradient>
<linearGradient id="paint42_linear_103_333" x1="154.826" y1="192.38" x2="118.768" y2="234.141" gradientUnits="userSpaceOnUse">
<stop stop-color="#FFC444"/>
<stop offset="0.9964" stop-color="#F36F56"/>
</linearGradient>
<linearGradient id="paint43_linear_103_333" x1="154.838" y1="182.996" x2="162.354" y2="206.048" gradientUnits="userSpaceOnUse">
<stop stop-color="#FFC444"/>
<stop offset="0.9964" stop-color="#F36F56"/>
</linearGradient>
<linearGradient id="paint44_linear_103_333" x1="158.698" y1="94.8539" x2="48.3087" y2="270.393" gradientUnits="userSpaceOnUse">
<stop stop-color="#444B8C"/>
<stop offset="0.9964" stop-color="#26264F"/>
</linearGradient>
<linearGradient id="paint45_linear_103_333" x1="197.378" y1="209.177" x2="108.36" y2="492.217" gradientUnits="userSpaceOnUse">
<stop stop-color="#FFC444"/>
<stop offset="0.9964" stop-color="#F36F56"/>
</linearGradient>
<linearGradient id="paint46_linear_103_333" x1="200.99" y1="209.35" x2="138.279" y2="338.364" gradientUnits="userSpaceOnUse">
<stop stop-color="#FFC444"/>
<stop offset="0.9964" stop-color="#F36F56"/>
</linearGradient>
</defs>
</svg>
