<svg width="488" height="384" viewBox="0 0 488 384" fill="none" xmlns="http://www.w3.org/2000/svg">
<path d="M355.631 130.715L373.465 112.891L362.575 102.008C362.603 101.937 362.617 101.866 362.674 101.824L377.722 101.796V76.6365H362.561C362.518 76.4952 362.448 76.3821 362.405 76.2832L372.914 65.7813L355.079 47.9579L344.571 58.4597C344.387 58.3608 344.175 58.2477 343.962 58.177V43.7317L318.759 43.76V58.3042C318.476 58.4032 318.25 58.5304 317.996 58.6576L307.911 48.5798L290.063 66.4032L300.359 76.6931C300.26 76.9757 300.203 77.2302 300.076 77.4846H285.834V102.7H300.67C300.769 102.884 300.854 103.068 300.925 103.28L290.671 113.527L308.506 131.351L319.24 120.623C319.339 120.665 319.452 120.693 319.594 120.736L319.565 135.591H344.797V120.156C344.868 120.128 344.91 120.086 344.953 120.086L355.631 130.715ZM316.115 104.679C307.657 96.2268 307.657 82.5023 316.143 74.0217C324.6 65.5693 338.333 65.5693 346.791 74.0217C355.277 82.5023 355.277 96.2126 346.819 104.679C338.334 113.16 324.6 113.16 316.115 104.679Z" fill="#B3B0EB"/>
<path d="M358.502 49.0887H371.98V40.8483C372.009 40.8342 372.051 40.8201 372.079 40.8201L377.779 46.5021L387.297 36.9897L381.569 31.2652C381.598 31.1946 381.626 31.1239 381.64 31.0674H389.589V17.5973H381.64C381.612 17.4984 381.569 17.3711 381.513 17.2581L386.986 11.7881L377.454 2.27564L371.952 7.77391C371.811 7.70324 371.669 7.67497 371.528 7.61843V0H358.049V7.77391C357.908 7.84458 357.78 7.91525 357.639 7.97179L352.251 2.58659L342.718 12.1273L348.333 17.7386C348.305 17.8376 348.262 17.9507 348.206 18.0496H340.455V31.5197H348.573C348.587 31.5762 348.63 31.6186 348.658 31.6893L343.029 37.3006L352.562 46.8272L358.403 40.9897C358.431 41.0038 358.474 41.0038 358.488 41.018V49.0887H358.502ZM353.41 24.3253C353.41 17.9365 358.601 12.7492 365.022 12.7492C371.415 12.7492 376.605 17.9365 376.605 24.3253C376.605 30.7423 371.415 35.9296 365.022 35.9296C358.601 35.9155 353.41 30.7281 353.41 24.3253Z" fill="#B3B0EB"/>
<path d="M282.51 311.861H220.605V381.331H282.51V311.861Z" fill="#38356E"/>
<path d="M282.51 311.861H220.605V336.002H282.51V311.861Z" fill="#222042"/>
<path d="M309.61 383.904H193.494V376.215C193.494 369.741 198.741 364.497 205.219 364.497H297.871C304.348 364.497 309.596 369.741 309.596 376.215V383.904H309.61Z" fill="#222042"/>
<path d="M412.02 319.861H91.0826C84.8313 319.861 79.7539 314.787 79.7539 308.539V107.011C79.7539 100.764 84.8313 95.6897 91.0826 95.6897H412.034C418.285 95.6897 423.363 100.764 423.363 107.011V308.539C423.349 314.787 418.271 319.861 412.02 319.861Z" fill="#38356E"/>
<path d="M88.8477 306.207V109.343C88.8477 106.828 90.8984 104.778 93.4159 104.778H409.686C412.203 104.778 414.254 106.828 414.254 109.343V306.207C414.254 308.723 412.203 310.772 409.686 310.772H93.4159C90.8843 310.772 88.8477 308.723 88.8477 306.207Z" fill="white"/>
<path d="M162.336 163.93H8.37322C6.64775 163.93 5.26172 162.531 5.26172 160.821V65.5834C5.26172 63.859 6.66189 62.4739 8.37322 62.4739H162.336C164.061 62.4739 165.448 63.8732 165.448 65.5834V160.821C165.448 162.545 164.047 163.93 162.336 163.93Z" fill="url(#paint0_linear_126_12066)"/>
<path d="M7.46875 158.913V73.1735C7.46875 71.8166 8.57191 70.7141 9.92965 70.7141H160.795C162.153 70.7141 163.256 71.8166 163.256 73.1735V158.913C163.256 160.27 162.153 161.372 160.795 161.372H9.92965C8.57191 161.358 7.46875 160.27 7.46875 158.913Z" fill="white"/>
<path d="M160.173 68.6225C161.29 68.6225 162.195 67.7176 162.195 66.6013C162.195 65.485 161.29 64.5801 160.173 64.5801C159.056 64.5801 158.15 65.485 158.15 66.6013C158.15 67.7176 159.056 68.6225 160.173 68.6225Z" fill="white"/>
<path d="M153.468 68.6225C154.585 68.6225 155.49 67.7176 155.49 66.6013C155.49 65.485 154.585 64.5801 153.468 64.5801C152.351 64.5801 151.445 65.485 151.445 66.6013C151.445 67.7176 152.351 68.6225 153.468 68.6225Z" fill="white"/>
<path d="M148.801 66.6012C148.801 67.7178 147.896 68.6224 146.778 68.6224C145.661 68.6224 144.756 67.7178 144.756 66.6012C144.756 65.4846 145.661 64.58 146.778 64.58C147.896 64.5659 148.801 65.4705 148.801 66.6012Z" fill="white"/>
<path d="M29.4471 86.9406C29.4471 91.4636 25.7699 95.1386 21.2441 95.1386C16.7182 95.1386 13.041 91.4636 13.041 86.9406C13.041 82.4176 16.7182 78.7427 21.2441 78.7427C25.7699 78.7427 29.4471 82.4176 29.4471 86.9406Z" fill="#FFCD6E"/>
<path d="M155.505 78.8132H33.209V82.6861H155.505V78.8132Z" fill="#D5D4EB"/>
<path d="M116.442 85.0042H33.209V88.877H116.442V85.0042Z" fill="#D5D4EB"/>
<path d="M76.4872 91.5908H33.209V95.4636H76.4872V91.5908Z" fill="#D5D4EB"/>
<path d="M29.4471 113.047C29.4471 117.57 25.7699 121.245 21.2441 121.245C16.7182 121.245 13.041 117.57 13.041 113.047C13.041 108.524 16.7182 104.849 21.2441 104.849C25.7699 104.849 29.4471 108.524 29.4471 113.047Z" fill="#3DA0B8"/>
<path d="M155.505 104.905H33.209V108.778H155.505V104.905Z" fill="#D5D4EB"/>
<path d="M116.442 111.11H33.209V114.983H116.442V111.11Z" fill="#D5D4EB"/>
<path d="M76.4872 117.683H33.209V121.556H76.4872V117.683Z" fill="#D5D4EB"/>
<path d="M29.4471 139.139C29.4471 143.662 25.7699 147.337 21.2441 147.337C16.7182 147.337 13.041 143.662 13.041 139.139C13.041 134.616 16.7182 130.941 21.2441 130.941C25.7699 130.955 29.4471 134.616 29.4471 139.139Z" fill="url(#paint1_linear_126_12066)"/>
<path d="M155.505 131.011H33.209V134.884H155.505V131.011Z" fill="#D5D4EB"/>
<path d="M116.442 137.217H33.209V141.089H116.442V137.217Z" fill="#D5D4EB"/>
<path d="M76.4872 143.789H33.209V147.662H76.4872V143.789Z" fill="#D5D4EB"/>
<path d="M173.043 171.492V173.612H170.922" stroke="#38356E" stroke-width="0.5" stroke-linejoin="round"/>
<path d="M166.721 173.613H0.679688" stroke="#38356E" stroke-width="0.5" stroke-linejoin="round" stroke-dasharray="2.97 2.97"/>
<path d="M2.78711 53.7671H168.828" stroke="#38356E" stroke-width="0.5" stroke-linejoin="round" stroke-dasharray="2.97 2.97"/>
<path d="M170.922 53.7671H173.043V55.8872" stroke="#38356E" stroke-width="0.5" stroke-linejoin="round"/>
<path d="M173.043 60.1699V169.358" stroke="#38356E" stroke-width="0.5" stroke-linejoin="round" stroke-dasharray="3.03 3.03"/>
<path d="M176.508 50.3042H169.592V57.2159H176.508V50.3042Z" fill="#38356E"/>
<path d="M176.508 170.164H169.592V177.076H176.508V170.164Z" fill="#38356E"/>
<path d="M482.014 347.677H364.682C362.971 347.677 361.57 346.292 361.57 344.568V265.034C361.57 263.323 362.956 261.924 364.682 261.924H482.014C483.725 261.924 485.125 263.309 485.125 265.034V344.568C485.125 346.292 483.725 347.677 482.014 347.677Z" fill="#6965AB"/>
<path d="M363.438 343.536V270.871C363.438 269.783 364.314 268.892 365.418 268.892H481.279C482.368 268.892 483.259 269.769 483.259 270.871V343.536C483.259 344.624 482.382 345.515 481.279 345.515H365.418C364.329 345.501 363.438 344.624 363.438 343.536Z" fill="white"/>
<path d="M482.382 265.415C482.382 266.362 481.618 267.126 480.67 267.126C479.723 267.126 478.959 266.362 478.959 265.415C478.959 264.468 479.723 263.705 480.67 263.705C481.618 263.705 482.382 264.468 482.382 265.415Z" fill="white"/>
<path d="M476.712 265.415C476.712 266.362 475.948 267.126 475 267.126C474.053 267.126 473.289 266.362 473.289 265.415C473.289 264.468 474.053 263.705 475 263.705C475.948 263.705 476.712 264.468 476.712 265.415Z" fill="white"/>
<path d="M471.054 265.415C471.054 266.362 470.29 267.126 469.342 267.126C468.395 267.126 467.631 266.362 467.631 265.415C467.631 264.468 468.395 263.705 469.342 263.705C470.29 263.705 471.054 264.468 471.054 265.415Z" fill="white"/>
<path d="M440.619 311.571C443.036 302.053 437.274 292.378 427.75 289.962C418.225 287.546 408.544 293.304 406.127 302.823C403.71 312.342 409.471 322.017 418.996 324.432C428.521 326.848 438.201 321.09 440.619 311.571Z" fill="url(#paint2_linear_126_12066)"/>
<path d="M433.758 307.197L425.513 311.96L417.281 316.709V307.197V297.698L425.513 302.447L433.758 307.197Z" fill="white"/>
<path d="M483.245 337.472H363.438V339.833H483.245V337.472Z" fill="#D5D4EB"/>
<path d="M390.423 337.472H363.438V339.833H390.423V337.472Z" fill="#FF5E63"/>
<path d="M390.437 340.469C391.437 340.469 392.248 339.659 392.248 338.66C392.248 337.66 391.437 336.85 390.437 336.85C389.437 336.85 388.627 337.66 388.627 338.66C388.627 339.659 389.437 340.469 390.437 340.469Z" fill="#FF5E63"/>
<path d="M485.339 354.914H359.225" stroke="#38356E" stroke-width="0.5" stroke-linejoin="round" stroke-dasharray="3.02 3.02"/>
<path d="M357.088 354.914H354.967V352.794" stroke="#38356E" stroke-width="0.5" stroke-linejoin="round"/>
<path d="M354.967 348.695V260.412" stroke="#38356E" stroke-width="0.5" stroke-linejoin="round" stroke-dasharray="2.91 2.91"/>
<path d="M354.967 258.348V256.228H357.088" stroke="#38356E" stroke-width="0.5" stroke-linejoin="round"/>
<path d="M361.359 256.228H487.474" stroke="#38356E" stroke-width="0.5" stroke-linejoin="round" stroke-dasharray="3.02 3.02"/>
<path d="M357.653 253.557H352.293V258.914H357.653V253.557Z" fill="#38356E"/>
<path d="M357.653 352.243H352.293V357.6H357.653V352.243Z" fill="#38356E"/>
<path d="M464.831 127.308H406.334C405.189 127.308 404.27 126.389 404.27 125.245V83.4916C404.27 82.3467 405.189 81.428 406.334 81.428H430.109C430.661 81.428 431.184 81.64 431.566 82.0358L435.427 85.8944C435.809 86.2761 436.346 86.5022 436.884 86.5022H464.817C465.962 86.5022 466.881 87.421 466.881 88.5658V125.259C466.896 126.389 465.976 127.308 464.831 127.308Z" fill="#6D68B0"/>
<path d="M459.528 56.9332V109.499H409.871V49.0886H451.678L459.528 56.9332Z" fill="#D5D4EB"/>
<path d="M451.678 56.9332V49.0886L459.527 56.9332H451.678Z" fill="#CBCAE0"/>
<path d="M462.61 59.6893V112.255H412.953V51.8447H454.76L462.61 59.6893Z" fill="#E7E6FF"/>
<path d="M467.022 127.308H408.526C407.38 127.308 406.461 126.389 406.461 125.245V89.414C406.461 88.2691 407.38 87.3503 408.526 87.3503H432.301C432.852 87.3503 433.375 87.5624 433.757 87.9581L437.618 91.8168C438 92.1984 438.538 92.4246 439.075 92.4246H467.008C468.154 92.4246 469.073 93.3433 469.073 94.4882V125.245C469.101 126.389 468.168 127.308 467.022 127.308Z" fill="#8A84E0"/>
<path d="M454.76 59.6893V51.8447L462.609 59.6893H454.76Z" fill="#CBCAE0"/>
<path d="M452.667 55.2937H415.074V57.329H452.667V55.2937Z" fill="#CBCAE0"/>
<path d="M460.362 62.9827H415.203V64.2689H460.362V62.9827Z" fill="#CBCAE0"/>
<path d="M460.362 66.6294H415.203V67.9156H460.362V66.6294Z" fill="#CBCAE0"/>
<path d="M452.315 70.2761H415.203V71.5624H452.315V70.2761Z" fill="#CBCAE0"/>
<path d="M452.315 73.9226H415.203V75.2088H452.315V73.9226Z" fill="#CBCAE0"/>
<path d="M440.307 77.5693H415.203V78.8556H440.307V77.5693Z" fill="#CBCAE0"/>
<path d="M440.307 81.2161H415.203V82.5023H440.307V81.2161Z" fill="#CBCAE0"/>
<path d="M432.939 246.786C433.787 245.345 434.933 242.843 436.064 238.73V221.528C436.064 219.549 437.677 217.938 439.657 217.938H484.901C486.881 217.938 488.493 219.549 488.493 221.528V239.832C488.493 241.811 486.881 243.422 484.901 243.422H442.061C440.76 244.935 438.228 247.111 433.943 248.186C433.151 248.369 432.528 247.493 432.939 246.786Z" fill="url(#paint3_linear_126_12066)"/>
<path d="M471.52 224.101C473.416 223.139 476.103 223.888 476.994 225.811C477.885 223.888 480.572 223.139 482.467 224.101C484.362 225.062 485.381 227.323 485.197 229.443C485.027 231.563 483.811 233.486 482.241 234.899C480.728 236.256 478.875 237.203 476.994 238.009C475.113 237.203 473.274 236.27 471.747 234.899C470.163 233.486 468.96 231.549 468.791 229.443C468.607 227.323 469.625 225.062 471.52 224.101Z" fill="white"/>
<path d="M445.399 225.613V236.129H442.415V227.917H440.463V225.613H445.399Z" fill="white"/>
<path d="M449.217 235.705C448.51 235.281 447.972 234.645 447.576 233.825C447.18 233.005 446.982 232.016 446.982 230.885C446.982 229.754 447.18 228.779 447.576 227.945C447.972 227.125 448.524 226.489 449.217 226.065C449.924 225.641 450.716 225.415 451.621 225.415C452.512 225.415 453.304 225.627 454.012 226.065C454.719 226.503 455.256 227.125 455.652 227.945C456.048 228.765 456.246 229.754 456.246 230.885C456.246 232.016 456.048 232.991 455.652 233.825C455.256 234.645 454.705 235.281 454.012 235.705C453.304 236.129 452.512 236.355 451.621 236.355C450.716 236.341 449.91 236.129 449.217 235.705ZM452.809 233.189C453.106 232.708 453.248 231.931 453.248 230.885C453.248 229.839 453.106 229.062 452.809 228.581C452.512 228.101 452.116 227.846 451.621 227.846C451.112 227.846 450.702 228.086 450.405 228.581C450.108 229.062 449.967 229.839 449.967 230.885C449.967 231.931 450.108 232.708 450.405 233.189C450.702 233.67 451.112 233.924 451.621 233.924C452.116 233.91 452.512 233.67 452.809 233.189Z" fill="white"/>
<path d="M459.514 235.705C458.807 235.281 458.269 234.645 457.873 233.825C457.477 233.005 457.279 232.016 457.279 230.885C457.279 229.754 457.477 228.779 457.873 227.945C458.269 227.125 458.821 226.489 459.514 226.065C460.221 225.641 461.013 225.415 461.918 225.415C462.809 225.415 463.601 225.627 464.308 226.065C465.016 226.503 465.553 227.125 465.949 227.945C466.345 228.765 466.543 229.754 466.543 230.885C466.543 232.016 466.345 232.991 465.949 233.825C465.553 234.645 465.001 235.281 464.308 235.705C463.601 236.129 462.809 236.355 461.918 236.355C461.013 236.341 460.207 236.129 459.514 235.705ZM463.106 233.189C463.403 232.708 463.545 231.931 463.545 230.885C463.545 229.839 463.403 229.062 463.106 228.581C462.809 228.101 462.413 227.846 461.918 227.846C461.409 227.846 460.999 228.086 460.702 228.581C460.405 229.062 460.263 229.839 460.263 230.885C460.263 231.931 460.405 232.708 460.702 233.189C460.999 233.67 461.409 233.924 461.918 233.924C462.413 233.91 462.809 233.67 463.106 233.189Z" fill="white"/>
<path d="M396.294 296.03H106.811C103.233 296.03 100.348 293.133 100.348 289.571V125.994C100.348 122.418 103.247 119.534 106.811 119.534H396.294C399.872 119.534 402.757 122.432 402.757 125.994V289.571C402.757 293.133 399.872 296.03 396.294 296.03Z" fill="url(#paint4_linear_126_12066)"/>
<path d="M104.506 287.281V138.983C104.506 136.835 106.245 135.082 108.409 135.082H394.696C396.846 135.082 398.599 136.821 398.599 138.983V287.267C398.599 289.416 396.86 291.168 394.696 291.168H108.409C106.245 291.168 104.506 289.43 104.506 287.281Z" fill="white"/>
<path d="M396.648 127.308C396.648 129.428 394.937 131.139 392.815 131.139C390.694 131.139 388.982 129.428 388.982 127.308C388.982 125.188 390.694 123.478 392.815 123.478C394.923 123.492 396.648 125.202 396.648 127.308Z" fill="white"/>
<path d="M383.99 127.308C383.99 129.428 382.279 131.139 380.157 131.139C378.036 131.139 376.324 129.428 376.324 127.308C376.324 125.188 378.036 123.478 380.157 123.478C382.279 123.492 383.99 125.202 383.99 127.308Z" fill="white"/>
<path d="M371.332 127.308C371.332 129.428 369.62 131.139 367.499 131.139C365.377 131.139 363.666 129.428 363.666 127.308C363.666 125.188 365.377 123.478 367.499 123.478C369.62 123.492 371.332 125.202 371.332 127.308Z" fill="white"/>
<path d="M223.862 221.867V223.988H221.74" stroke="#38356E" stroke-width="0.5" stroke-linejoin="round"/>
<path d="M217.44 223.988H116.373" stroke="#38356E" stroke-width="0.5" stroke-linejoin="round" stroke-dasharray="3.04 3.04"/>
<path d="M114.223 223.988H112.102V221.867" stroke="#38356E" stroke-width="0.5" stroke-linejoin="round"/>
<path d="M112.102 217.387V148.156" stroke="#38356E" stroke-width="0.5" stroke-linejoin="round" stroke-dasharray="3.16 3.16"/>
<path d="M112.102 145.923V143.803H114.223" stroke="#38356E" stroke-width="0.5" stroke-linejoin="round"/>
<path d="M118.523 143.803H219.591" stroke="#38356E" stroke-width="0.5" stroke-linejoin="round" stroke-dasharray="3.04 3.04"/>
<path d="M221.74 143.803H223.862V145.923" stroke="#38356E" stroke-width="0.5" stroke-linejoin="round"/>
<path d="M223.861 150.39V219.634" stroke="#38356E" stroke-width="0.5" stroke-linejoin="round" stroke-dasharray="3.16 3.16"/>
<path d="M236.929 156.722H125.17V236.906H236.929V156.722Z" fill="url(#paint5_linear_126_12066)"/>
<path d="M229.687 230.475H132.17L162.903 172.538L185.985 212.355L201.655 195.832L229.687 230.475Z" stroke="white" stroke-width="2" stroke-miterlimit="10" stroke-linecap="round" stroke-linejoin="round"/>
<path d="M190.582 185.273C195.854 185.273 200.128 181.002 200.128 175.733C200.128 170.463 195.854 166.192 190.582 166.192C185.309 166.192 181.035 170.463 181.035 175.733C181.035 181.002 185.309 185.273 190.582 185.273Z" stroke="white" stroke-width="2" stroke-miterlimit="10" stroke-linecap="round" stroke-linejoin="round"/>
<path d="M388.981 145.033H249.77V153.584H388.981V145.033Z" fill="#D5D4EB"/>
<path d="M289.781 160.793H249.77V165.075H289.781V160.793Z" fill="#D5D4EB"/>
<path d="M311.477 160.793H295.24V165.075H311.477V160.793Z" fill="#D5D4EB"/>
<path d="M360.3 160.793H317.701V165.075H360.3V160.793Z" fill="#D5D4EB"/>
<path d="M388.982 160.793H363.68V165.075H388.982V160.793Z" fill="#D5D4EB"/>
<path d="M302.509 171.45H249.77V175.733H302.509V171.45Z" fill="#D5D4EB"/>
<path d="M328.873 171.45H308.352V175.733H328.873V171.45Z" fill="#D5D4EB"/>
<path d="M354.076 171.45H333.555V175.733H354.076V171.45Z" fill="#D5D4EB"/>
<path d="M383.296 171.45H357.244V175.733H383.296V171.45Z" fill="#D5D4EB"/>
<path d="M264.45 182.121H249.77V186.404H264.45V182.121Z" fill="#D5D4EB"/>
<path d="M344.982 182.121H318.619V186.404H344.982V182.121Z" fill="#D5D4EB"/>
<path d="M314.208 182.121H267.832V186.404H314.208V182.121Z" fill="#D5D4EB"/>
<path d="M283.02 192.779H249.77V197.062H283.02V192.779Z" fill="#D5D4EB"/>
<path d="M299.907 192.779H288.734V197.062H299.907V192.779Z" fill="#D5D4EB"/>
<path d="M327.063 192.779H305.113V197.062H327.063V192.779Z" fill="#D5D4EB"/>
<path d="M262.498 203.436H249.77V207.719H262.498V203.436Z" fill="#D5D4EB"/>
<path d="M295.241 203.436H267.309V207.719H295.241V203.436Z" fill="#D5D4EB"/>
<path d="M236.929 245.415H112.102V282.518H236.929V245.415Z" fill="#D5D4EB"/>
<path d="M139.1 247.931H115.41V269.953H139.1V247.931Z" fill="white"/>
<path d="M139.1 273.232H115.41V279.776H139.1V273.232Z" fill="white"/>
<path d="M145.595 279.764H169.285V257.743H145.595V279.764Z" fill="white"/>
<path d="M145.595 254.481H169.285V247.937H145.595V254.481Z" fill="white"/>
<path d="M201.825 247.931H178.135V269.953H201.825V247.931Z" fill="white"/>
<path d="M201.825 273.232H178.135V279.776H201.825V273.232Z" fill="white"/>
<path d="M208.314 279.764H232.004V257.743H208.314V279.764Z" fill="white"/>
<path d="M208.314 254.481H232.004V247.937H208.314V254.481Z" fill="white"/>
<path d="M393.183 223.04H252.67V218.277C252.67 216.666 253.971 215.365 255.583 215.365H390.255C391.867 215.365 393.168 216.666 393.168 218.277V223.04H393.183Z" fill="#8A84E0"/>
<path d="M391.768 221.556V279.705C391.768 281.048 390.679 282.122 389.35 282.122H256.517C255.173 282.122 254.098 281.034 254.098 279.705V221.556H391.768ZM393.183 220.143H252.67V279.705C252.67 281.825 254.381 283.535 256.503 283.535H389.336C391.457 283.535 393.168 281.811 393.168 279.705V220.143H393.183Z" fill="#8A84E0"/>
<path d="M275.241 227.761H257.562V278.73H275.241V227.761Z" fill="#D5D4EB"/>
<path d="M387.044 227.761H301.619V278.73H387.044V227.761Z" fill="#D5D4EB"/>
<path d="M382.858 230.475H306.174V235.677H382.858V230.475Z" fill="white"/>
<path d="M382.858 238.8H306.174V241.401H382.858V238.8Z" fill="white"/>
<path d="M296.626 238.8H278.947V244.878H296.626V238.8Z" fill="#D5D4EB"/>
<path d="M322.665 243.747H306.174V274.928H322.665V243.747Z" fill="white"/>
<path d="M363.157 243.747H346.666V274.928H363.157V243.747Z" fill="white"/>
<path d="M344.177 275.62H326.271V243.026H344.177V275.62ZM327.686 274.207H342.762V244.44H327.686V274.207Z" fill="white"/>
<path d="M383.565 275.62H365.66V243.026H383.565V275.62ZM367.06 274.207H382.137V244.44H367.06V274.207Z" fill="white"/>
<path d="M296.626 249.825H278.947V255.903H296.626V249.825Z" fill="#D5D4EB"/>
<path d="M296.626 260.85H278.947V266.928H296.626V260.85Z" fill="#D5D4EB"/>
<path d="M296.626 271.875H278.947V277.953H296.626V271.875Z" fill="#D5D4EB"/>
<path d="M256.757 56.4951H205.714C198.939 56.4951 193.452 61.9793 193.452 68.7496C193.452 70.7991 193.961 72.7355 194.852 74.4458L190.863 81.7108C189.873 83.5201 191.726 85.5837 193.636 84.7639L203.154 80.7356C203.974 80.9052 204.837 81.0041 205.714 81.0041H256.757C263.531 81.0041 269.019 75.52 269.019 68.7496C269.019 61.9793 263.531 56.4951 256.757 56.4951Z" fill="#3DA0B8"/>
<path d="M212.319 68.8202C212.319 71.2089 210.381 73.1595 207.977 73.1595C205.587 73.1595 203.635 71.2231 203.635 68.8202C203.635 66.4315 205.572 64.481 207.977 64.481C210.367 64.481 212.319 66.4315 212.319 68.8202Z" fill="white"/>
<path d="M228.145 68.8202C228.145 71.2089 226.207 73.1595 223.803 73.1595C221.413 73.1595 219.461 71.2231 219.461 68.8202C219.461 66.4315 221.399 64.481 223.803 64.481C226.207 64.481 228.145 66.4315 228.145 68.8202Z" fill="white"/>
<path d="M243.985 68.8202C243.985 71.2089 242.047 73.1595 239.643 73.1595C237.253 73.1595 235.301 71.2231 235.301 68.8202C235.301 66.4315 237.238 64.481 239.643 64.481C242.033 64.481 243.985 66.4315 243.985 68.8202Z" fill="white"/>
<path d="M259.811 68.8202C259.811 71.2089 257.873 73.1595 255.469 73.1595C253.065 73.1595 251.127 71.2231 251.127 68.8202C251.127 66.4315 253.065 64.481 255.469 64.481C257.873 64.481 259.811 66.4315 259.811 68.8202Z" fill="white"/>
<path d="M446.332 180.694H395.289C388.515 180.694 383.027 186.178 383.027 192.948C383.027 194.998 383.536 196.934 384.428 198.645L380.439 205.91C379.435 207.719 381.302 209.782 383.211 208.963L392.73 204.934C393.55 205.104 394.413 205.203 395.289 205.203H446.332C453.107 205.203 458.594 199.719 458.594 192.948C458.594 186.178 453.093 180.694 446.332 180.694Z" fill="#FFCD6E"/>
<path d="M401.895 193.019C401.895 195.408 399.957 197.358 397.553 197.358C395.149 197.358 393.211 195.422 393.211 193.019C393.211 190.63 395.149 188.68 397.553 188.68C399.957 188.68 401.895 190.63 401.895 193.019Z" fill="white"/>
<path d="M417.721 193.019C417.721 195.408 415.783 197.358 413.379 197.358C410.975 197.358 409.037 195.422 409.037 193.019C409.037 190.63 410.975 188.68 413.379 188.68C415.783 188.68 417.721 190.63 417.721 193.019Z" fill="white"/>
<path d="M433.561 193.019C433.561 195.408 431.623 197.358 429.219 197.358C426.829 197.358 424.877 195.422 424.877 193.019C424.877 190.63 426.815 188.68 429.219 188.68C431.609 188.694 433.561 190.63 433.561 193.019Z" fill="white"/>
<path d="M449.387 193.019C449.387 195.408 447.449 197.358 445.045 197.358C442.655 197.358 440.703 195.422 440.703 193.019C440.703 190.63 442.641 188.68 445.045 188.68C447.449 188.694 449.387 190.63 449.387 193.019Z" fill="white"/>
<path d="M135.181 278.588L133.13 280.327C126.299 286.094 118.195 290.179 109.483 292.214L106.541 292.907C100.799 285.331 91.7049 280.44 81.4652 280.44C64.1115 280.44 50.0391 294.504 50.0391 311.847C50.0391 329.19 64.1115 343.253 81.4652 343.253C98.8189 343.253 112.891 329.19 112.891 311.847C112.891 311.366 112.877 310.871 112.849 310.391L115.72 308.398C125.733 301.444 133.229 291.451 137.09 279.903C137.486 278.73 136.115 277.797 135.181 278.588Z" fill="url(#paint6_linear_126_12066)"/>
<path d="M83.7557 292.539L88.0128 301.147C88.3805 301.896 89.1018 302.419 89.9362 302.546L99.4546 303.931C101.548 304.242 102.382 306.815 100.869 308.285L93.9812 314.984C93.373 315.564 93.1043 316.412 93.2457 317.246L94.8722 326.716C95.2258 328.808 93.0336 330.391 91.1667 329.401L82.6525 324.935C81.9029 324.539 81.0119 324.539 80.2764 324.935L71.7622 329.401C69.8812 330.391 67.7031 328.794 68.0567 326.716L69.6832 317.246C69.8246 316.412 69.5559 315.578 68.9477 314.984L62.06 308.285C60.5467 306.801 61.3811 304.228 63.4743 303.931L72.9927 302.546C73.8271 302.419 74.5484 301.896 74.9162 301.147L79.1733 292.539C80.1067 290.631 82.8222 290.631 83.7557 292.539Z" fill="white"/>
<path d="M93.9542 197.118H11.8105V218.319H93.9542V197.118Z" fill="#8A84E0"/>
<path d="M40.7196 200.51L35.5998 214.616H31.668L28.4999 205.853L25.2187 214.616H21.2869L16.1953 200.51H20.0564L23.3942 210.051L26.8593 200.51H30.3244L33.6763 210.051L37.1131 200.51H40.7196Z" fill="white"/>
<path d="M64.9618 200.51L59.842 214.616H55.9102L52.7421 205.853L49.4609 214.616H45.5291L40.4375 200.51H44.2986L47.6364 210.051L51.1015 200.51H54.5666L57.9185 210.051L61.3553 200.51H64.9618Z" fill="white"/>
<path d="M89.202 200.51L84.0822 214.616H80.1504L76.9823 205.853L73.7011 214.616H69.7693L64.6777 200.51H68.5388L71.8766 210.051L75.3417 200.51H78.8068L82.1587 210.051L85.5955 200.51H89.202Z" fill="white"/>
<path d="M7.46875 197.118H16.1668" stroke="#38356E" stroke-miterlimit="10"/>
<path d="M7.46875 218.32H16.1668" stroke="#38356E" stroke-miterlimit="10"/>
<path d="M11.8105 197.118V218.319" stroke="#38356E" stroke-miterlimit="10"/>
<path d="M240.365 197.966L233.166 196.044L225.967 194.107L227.904 201.302L229.828 208.496L233.774 204.553L241.991 212.765L244.636 210.122L236.419 201.91L240.365 197.966Z" fill="#222042"/>
<defs>
<linearGradient id="paint0_linear_126_12066" x1="141.613" y1="67.4223" x2="38.7254" y2="200.062" gradientUnits="userSpaceOnUse">
<stop stop-color="#F20732"/>
<stop offset="1" stop-color="#FF928E"/>
</linearGradient>
<linearGradient id="paint1_linear_126_12066" x1="27.006" y1="131.741" x2="10.1842" y2="145.484" gradientUnits="userSpaceOnUse">
<stop stop-color="#F20732"/>
<stop offset="1" stop-color="#FF928E"/>
</linearGradient>
<linearGradient id="paint2_linear_126_12066" x1="410.884" y1="291.144" x2="430.774" y2="333.842" gradientUnits="userSpaceOnUse">
<stop stop-color="#F20732"/>
<stop offset="1" stop-color="#FF928E"/>
</linearGradient>
<linearGradient id="paint3_linear_126_12066" x1="480.207" y1="219.414" x2="450.965" y2="263.335" gradientUnits="userSpaceOnUse">
<stop stop-color="#F20732"/>
<stop offset="1" stop-color="#FF928E"/>
</linearGradient>
<linearGradient id="paint4_linear_126_12066" x1="357.76" y1="128.143" x2="182.92" y2="372.751" gradientUnits="userSpaceOnUse">
<stop stop-color="#F20732"/>
<stop offset="1" stop-color="#FF928E"/>
</linearGradient>
<linearGradient id="paint5_linear_126_12066" x1="220.3" y1="160.633" x2="137.045" y2="255.382" gradientUnits="userSpaceOnUse">
<stop stop-color="#F20732"/>
<stop offset="1" stop-color="#FF928E"/>
</linearGradient>
<linearGradient id="paint6_linear_126_12066" x1="124.197" y1="281.463" x2="56.4659" y2="355.636" gradientUnits="userSpaceOnUse">
<stop stop-color="#F20732"/>
<stop offset="1" stop-color="#FF928E"/>
</linearGradient>
</defs>
</svg>
