<svg width="456" height="347" viewBox="0 0 456 347" fill="none" xmlns="http://www.w3.org/2000/svg">
<g clip-path="url(#clip0_126_12341)">
<path d="M59.9971 342.733C59.6385 342.733 59.2885 342.545 59.0836 342.212C57.8799 340.173 56.6591 337.996 55.4384 335.76C55.1566 335.248 55.3445 334.608 55.8567 334.335C56.3689 334.053 57.0092 334.241 57.2823 334.753C58.4946 336.972 59.7068 339.114 60.8935 341.145C61.1922 341.649 61.0215 342.289 60.5178 342.588C60.3642 342.69 60.1764 342.733 59.9971 342.733ZM435.81 338.722C435.767 338.722 435.724 338.722 435.682 338.713C435.101 338.645 434.691 338.116 434.768 337.535C435.041 335.333 435.4 332.935 435.861 330.196C435.955 329.624 436.501 329.24 437.073 329.334C437.645 329.428 438.029 329.974 437.935 330.546C437.474 333.251 437.124 335.624 436.851 337.8C436.791 338.338 436.33 338.722 435.81 338.722ZM52.92 329.795C52.5358 329.795 52.1687 329.59 51.9809 329.223C50.8796 327.081 49.7698 324.845 48.6856 322.6C48.4295 322.08 48.6515 321.448 49.1723 321.192C49.7015 320.945 50.3247 321.158 50.5808 321.678C51.665 323.914 52.7663 326.133 53.8505 328.258C54.1151 328.779 53.9103 329.411 53.3895 329.675C53.2444 329.761 53.0822 329.795 52.92 329.795ZM438.226 324.171C438.157 324.171 438.089 324.162 438.021 324.153C437.449 324.042 437.073 323.488 437.184 322.916C437.637 320.569 438.132 318.145 438.635 315.67C438.755 315.098 439.31 314.74 439.882 314.851C440.454 314.97 440.821 315.525 440.701 316.097C440.189 318.555 439.703 320.97 439.25 323.317C439.165 323.821 438.721 324.171 438.226 324.171ZM46.5002 316.515C46.099 316.515 45.7148 316.285 45.5441 315.901C44.5282 313.682 43.5208 311.412 42.5391 309.141C42.3086 308.604 42.5561 307.989 43.0854 307.759C43.6147 307.528 44.2379 307.776 44.4684 308.305C45.4416 310.558 46.449 312.82 47.4563 315.022C47.6954 315.551 47.4649 316.174 46.9356 316.413C46.799 316.481 46.6453 316.515 46.5002 316.515ZM441.196 309.722C441.12 309.722 441.051 309.713 440.975 309.696C440.403 309.577 440.044 309.013 440.163 308.45L441.709 301.239C441.828 300.675 442.383 300.3 442.955 300.428C443.527 300.547 443.886 301.111 443.766 301.674L442.221 308.885C442.118 309.38 441.683 309.722 441.196 309.722ZM40.6353 302.98C40.217 302.98 39.8243 302.732 39.6621 302.331C38.7231 300.052 37.8011 297.739 36.9218 295.461C36.7083 294.915 36.9815 294.309 37.5194 294.095C38.0572 293.882 38.6718 294.155 38.8853 294.693C39.7646 296.963 40.6866 299.259 41.6171 301.52C41.839 302.058 41.5829 302.672 41.0451 302.894C40.9 302.954 40.7634 302.98 40.6353 302.98ZM444.278 295.29C444.21 295.29 444.133 295.282 444.056 295.264C443.484 295.145 443.126 294.59 443.245 294.018C443.758 291.586 444.253 289.171 444.731 286.807C444.842 286.235 445.397 285.868 445.969 285.979C446.541 286.09 446.908 286.645 446.797 287.217C446.319 289.589 445.823 292.013 445.303 294.454C445.209 294.957 444.765 295.29 444.278 295.29ZM35.2912 289.239C34.8644 289.239 34.4546 288.975 34.3009 288.548C33.4558 286.235 32.6192 283.897 31.8252 281.584C31.6374 281.038 31.9277 280.432 32.4826 280.244C33.0289 280.056 33.635 280.346 33.8229 280.901C34.6168 283.197 35.4449 285.535 36.2815 287.831C36.4778 288.377 36.2047 288.983 35.6583 289.179C35.5388 289.222 35.4107 289.239 35.2912 289.239ZM447.164 280.824C447.104 280.824 447.036 280.816 446.976 280.807C446.404 280.705 446.028 280.15 446.131 279.578C446.609 276.975 447.027 274.534 447.36 272.333C447.446 271.761 447.983 271.368 448.564 271.454C449.136 271.539 449.529 272.077 449.443 272.657C449.093 274.91 448.692 277.3 448.197 279.962C448.111 280.474 447.667 280.824 447.164 280.824ZM30.4935 275.294C30.0495 275.294 29.6312 275.012 29.4946 274.56C28.7349 272.187 27.9921 269.806 27.3092 267.485C27.147 266.93 27.4628 266.341 28.0177 266.179C28.5812 266.017 29.1617 266.333 29.3239 266.888C30.0069 269.192 30.741 271.556 31.5008 273.92C31.6801 274.475 31.3728 275.064 30.8179 275.243C30.7154 275.277 30.6044 275.294 30.4935 275.294ZM449.366 266.239C449.332 266.239 449.298 266.239 449.255 266.23C448.675 266.171 448.257 265.659 448.316 265.078C448.461 263.645 448.572 262.296 448.632 261.084C448.632 260.077 448.607 258.985 448.555 257.875C448.53 257.295 448.974 256.8 449.554 256.774C450.126 256.732 450.63 257.193 450.655 257.773C450.707 258.908 450.741 260.043 450.741 261.135C450.672 262.441 450.561 263.815 450.416 265.292C450.357 265.838 449.896 266.239 449.366 266.239ZM26.3018 261.153C25.8408 261.153 25.414 260.845 25.2859 260.376C24.6371 257.978 24.0139 255.562 23.442 253.207C23.3054 252.644 23.6468 252.072 24.2188 251.935C24.7823 251.799 25.3542 252.14 25.4908 252.712C26.0628 255.05 26.6775 257.44 27.3263 259.83C27.4799 260.393 27.147 260.965 26.5835 261.118C26.4811 261.135 26.3872 261.153 26.3018 261.153ZM448.888 251.551C448.376 251.551 447.924 251.176 447.847 250.647C447.514 248.334 447.061 245.927 446.506 243.486C446.378 242.923 446.728 242.351 447.3 242.223C447.864 242.087 448.436 242.445 448.564 243.017C449.136 245.509 449.597 247.975 449.938 250.339C450.024 250.911 449.622 251.449 449.05 251.534C448.991 251.543 448.939 251.551 448.888 251.551ZM22.8102 246.823C22.3236 246.823 21.8882 246.482 21.7773 245.987C21.2565 243.529 20.7699 241.08 20.3516 238.716C20.2491 238.144 20.6333 237.598 21.2053 237.495C21.7858 237.393 22.3236 237.777 22.4261 238.349C22.8444 240.687 23.3224 243.111 23.8432 245.552C23.9627 246.123 23.6042 246.678 23.0322 246.798C22.9554 246.815 22.8871 246.823 22.8102 246.823ZM445.636 237.188C445.183 237.188 444.765 236.898 444.628 236.437C443.954 234.201 443.186 231.862 442.332 229.498C442.136 228.952 442.417 228.346 442.964 228.15C443.51 227.945 444.116 228.235 444.312 228.782C445.175 231.18 445.96 233.552 446.643 235.831C446.814 236.386 446.498 236.975 445.934 237.145C445.841 237.171 445.738 237.188 445.636 237.188ZM20.2321 232.306C19.7113 232.306 19.2674 231.922 19.1906 231.402C18.8406 228.884 18.5503 226.4 18.3283 224.028C18.2771 223.448 18.704 222.936 19.2759 222.884C19.8564 222.833 20.3687 223.26 20.4199 223.832C20.6333 226.17 20.9236 228.619 21.265 231.103C21.3419 231.675 20.9406 232.212 20.3687 232.289C20.326 232.298 20.2833 232.306 20.2321 232.306ZM440.676 223.311C440.257 223.311 439.865 223.064 439.703 222.654C439.549 222.278 439.395 221.911 439.242 221.536C438.422 219.684 437.585 217.806 436.757 215.929C436.527 215.4 436.766 214.777 437.295 214.538C437.824 214.307 438.448 214.546 438.687 215.075C439.515 216.953 440.343 218.822 441.179 220.691C441.35 221.092 441.504 221.468 441.657 221.852C441.879 222.389 441.615 223.004 441.077 223.226C440.94 223.285 440.804 223.311 440.676 223.311ZM18.9003 217.627C18.3369 217.627 17.8673 217.183 17.8503 216.611C17.799 215.246 17.7734 213.872 17.7734 212.549C17.7734 211.406 17.7905 210.279 17.8332 209.17C17.8503 208.589 18.3198 208.094 18.9259 208.154C19.5064 208.171 19.9589 208.657 19.9418 209.238C19.9077 210.322 19.8821 211.423 19.8821 212.541C19.8821 213.846 19.9077 215.186 19.9589 216.526C19.976 217.107 19.5235 217.593 18.943 217.619C18.9259 217.627 18.9088 217.627 18.9003 217.627ZM434.768 209.81C434.358 209.81 433.974 209.571 433.803 209.17C432.83 206.908 431.874 204.638 430.944 202.359C430.722 201.821 430.986 201.207 431.524 200.985C432.062 200.763 432.677 201.019 432.899 201.565C433.821 203.836 434.777 206.089 435.741 208.342C435.972 208.879 435.724 209.494 435.186 209.724C435.05 209.784 434.905 209.81 434.768 209.81ZM19.6174 202.931C19.5577 202.931 19.4979 202.922 19.4381 202.914C18.8662 202.82 18.482 202.274 18.5759 201.702C18.9942 199.227 19.5747 196.769 20.3004 194.396C20.4711 193.842 21.0602 193.526 21.6151 193.697C22.17 193.867 22.4858 194.456 22.3151 195.011C21.6151 197.298 21.0602 199.662 20.6589 202.043C20.5736 202.564 20.1296 202.931 19.6174 202.931ZM429.211 196.155C428.784 196.155 428.383 195.899 428.229 195.472C427.307 193.031 426.487 190.761 425.719 188.508C425.531 187.962 425.821 187.356 426.376 187.176C426.931 186.989 427.529 187.287 427.708 187.834C428.468 190.061 429.279 192.314 430.192 194.729C430.397 195.276 430.124 195.881 429.578 196.086C429.467 196.137 429.339 196.155 429.211 196.155ZM23.9286 188.875C23.7834 188.875 23.6298 188.841 23.4932 188.781C22.9639 188.542 22.7334 187.91 22.9724 187.39C23.9969 185.145 25.192 182.926 26.5238 180.784C26.8311 180.289 27.4799 180.135 27.9751 180.443C28.4702 180.75 28.6239 181.399 28.3165 181.894C27.036 183.95 25.8835 186.092 24.8932 188.26C24.7054 188.653 24.3298 188.875 23.9286 188.875ZM424.473 182.201C424.02 182.201 423.602 181.902 423.465 181.45C422.748 179.026 422.099 176.619 421.527 174.289C421.391 173.726 421.732 173.154 422.296 173.018C422.859 172.881 423.431 173.223 423.568 173.786C424.131 176.082 424.771 178.454 425.48 180.852C425.642 181.407 425.326 181.996 424.771 182.158C424.678 182.192 424.575 182.201 424.473 182.201ZM31.6716 176.389C31.4411 176.389 31.2106 176.312 31.0142 176.158C30.5618 175.791 30.4849 175.134 30.852 174.682C32.3716 172.779 34.0448 170.901 35.829 169.101C36.2388 168.691 36.9047 168.682 37.3145 169.092C37.7242 169.502 37.7328 170.167 37.323 170.577C35.59 172.327 33.968 174.144 32.4911 175.996C32.2862 176.252 31.9789 176.389 31.6716 176.389ZM420.99 167.889C420.494 167.889 420.051 167.539 419.957 167.035C419.666 165.482 419.393 163.903 419.163 162.333C419.069 161.377 419 160.481 418.949 159.593C418.915 159.013 419.368 158.518 419.948 158.484C420.486 158.45 421.024 158.893 421.058 159.474C421.109 160.327 421.169 161.189 421.254 162.068C421.476 163.562 421.741 165.115 422.031 166.634C422.142 167.206 421.766 167.752 421.194 167.863C421.118 167.88 421.049 167.889 420.99 167.889ZM42.0951 165.994C41.7964 165.994 41.5061 165.866 41.2927 165.627C40.917 165.183 40.9683 164.518 41.4122 164.142C43.2732 162.546 45.194 160.959 47.1149 159.414C47.5673 159.047 48.2332 159.124 48.5917 159.576C48.9588 160.028 48.882 160.694 48.4295 161.053C46.5258 162.58 44.6221 164.159 42.7781 165.738C42.5732 165.917 42.3342 165.994 42.0951 165.994ZM53.5773 156.751C53.2614 156.751 52.9456 156.606 52.7407 156.333C52.3907 155.872 52.4846 155.207 52.9456 154.857C54.9005 153.38 56.9067 151.904 58.9129 150.47C59.391 150.129 60.0483 150.24 60.3812 150.717C60.7227 151.187 60.6117 151.853 60.1337 152.185C58.1446 153.602 56.1555 155.061 54.2176 156.529C54.0212 156.683 53.7993 156.751 53.5773 156.751ZM419.991 153.227C419.974 153.227 419.957 153.227 419.94 153.227C419.359 153.201 418.907 152.706 418.932 152.126C419.043 149.634 419.24 147.21 419.444 144.735C419.496 144.154 419.991 143.728 420.58 143.77C421.16 143.822 421.587 144.325 421.544 144.906C421.34 147.355 421.152 149.762 421.041 152.211C421.015 152.783 420.554 153.227 419.991 153.227ZM65.5888 148.191C65.2473 148.191 64.9144 148.029 64.7095 147.722C64.3851 147.235 64.5131 146.587 64.9997 146.262C67.0315 144.906 69.1231 143.549 71.2061 142.234C71.7012 141.927 72.35 142.072 72.6573 142.567C72.9647 143.062 72.8195 143.711 72.3244 144.018C70.2499 145.324 68.184 146.664 66.1693 148.012C65.99 148.14 65.7851 148.191 65.5888 148.191ZM78.0612 140.34C77.7027 140.34 77.3526 140.152 77.1563 139.819C76.8575 139.315 77.0282 138.675 77.5234 138.377C79.632 137.131 81.7919 135.893 83.9432 134.698C84.4554 134.417 85.0956 134.596 85.3774 135.108C85.6591 135.62 85.4798 136.26 84.9676 136.542C82.8334 137.728 80.6906 138.957 78.599 140.195C78.4283 140.297 78.2405 140.34 78.0612 140.34ZM421.066 138.53C421.049 138.53 421.024 138.53 421.007 138.53C420.426 138.496 419.982 138.001 420.016 137.421C420.136 135.338 420.204 133.469 420.204 131.72L420.025 130.26C419.948 129.68 420.358 129.16 420.938 129.083C421.519 129.006 422.048 129.416 422.116 129.996L422.304 131.524C422.313 131.566 422.313 131.609 422.313 131.652C422.313 133.461 422.253 135.39 422.125 137.54C422.082 138.095 421.621 138.53 421.066 138.53ZM90.9434 133.179C90.5593 133.179 90.2007 132.974 90.0129 132.616C89.7397 132.104 89.9446 131.464 90.4568 131.199C92.6081 130.073 94.8277 128.946 97.0559 127.862C97.5766 127.606 98.2084 127.82 98.4645 128.34C98.7206 128.861 98.5072 129.492 97.9864 129.748C95.7753 130.832 93.5728 131.95 91.43 133.068C91.2764 133.145 91.1056 133.179 90.9434 133.179ZM104.176 126.685C103.774 126.685 103.399 126.454 103.22 126.07C102.972 125.541 103.202 124.918 103.732 124.67C105.448 123.877 107.181 123.1 108.922 122.332L109.844 121.41C110.254 121.001 110.92 121.001 111.33 121.41C111.739 121.82 111.739 122.486 111.33 122.895L110.271 123.954C110.177 124.047 110.066 124.124 109.947 124.175C108.162 124.961 106.378 125.763 104.611 126.582C104.474 126.659 104.321 126.685 104.176 126.685ZM419.914 123.894C419.427 123.894 418.983 123.552 418.881 123.049C418.352 120.454 417.694 118.21 416.875 116.162C416.661 115.624 416.917 115.01 417.464 114.796C418.002 114.583 418.616 114.839 418.83 115.385C419.692 117.544 420.383 119.917 420.938 122.631C421.058 123.203 420.691 123.757 420.119 123.877C420.059 123.885 419.982 123.894 419.914 123.894ZM116.503 118.918C116.144 118.918 115.794 118.731 115.598 118.398C115.299 117.894 115.47 117.254 115.974 116.955C118.449 115.496 120.396 114.25 122.112 113.038C122.59 112.705 123.247 112.816 123.58 113.294C123.913 113.772 123.802 114.429 123.324 114.762C121.565 116.008 119.568 117.28 117.041 118.773C116.87 118.867 116.682 118.918 116.503 118.918ZM414.322 110.384C413.998 110.384 413.673 110.23 413.469 109.949C413.016 109.326 412.529 108.711 412.026 108.114C410.959 106.893 409.84 105.69 408.705 104.546C408.295 104.128 408.304 103.462 408.713 103.061C409.132 102.652 409.798 102.66 410.199 103.07C411.36 104.248 412.504 105.477 413.605 106.74C414.16 107.388 414.681 108.045 415.167 108.72C415.509 109.189 415.398 109.846 414.928 110.188C414.758 110.316 414.536 110.384 414.322 110.384ZM128.403 110.29C128.13 110.29 127.857 110.179 127.644 109.974C127.242 109.556 127.251 108.89 127.669 108.489C129.249 106.962 130.615 105.383 131.835 103.676C131.869 103.625 131.904 103.582 131.946 103.539C132.151 103.334 132.356 103.138 132.561 102.95C132.988 102.558 133.654 102.583 134.046 103.019C134.439 103.445 134.413 104.111 133.978 104.504C133.816 104.649 133.654 104.802 133.491 104.965C132.211 106.748 130.785 108.395 129.129 110C128.933 110.188 128.668 110.29 128.403 110.29ZM138.972 100.1C138.699 100.1 138.434 99.9975 138.229 99.7927C137.82 99.383 137.82 98.7174 138.229 98.3077L138.272 98.265C139.63 96.6179 141.123 94.7659 142.788 92.6665C143.147 92.2141 143.813 92.1373 144.265 92.4958C144.718 92.8542 144.794 93.5199 144.436 93.9722C142.763 96.0802 141.26 97.9407 139.826 99.6732C139.809 99.6988 139.741 99.7671 139.715 99.7927C139.51 99.9975 139.237 100.1 138.972 100.1ZM404.052 99.861C403.813 99.861 403.574 99.7756 403.378 99.6135C401.551 98.0773 399.605 96.5838 397.607 95.1926C397.129 94.8598 397.009 94.2027 397.342 93.7247C397.675 93.2468 398.333 93.1273 398.811 93.4602C400.868 94.8939 402.857 96.4131 404.735 98.0005C405.179 98.376 405.239 99.0417 404.863 99.4855C404.65 99.7329 404.351 99.861 404.052 99.861ZM391.981 91.429C391.802 91.429 391.623 91.3863 391.452 91.2839C389.727 90.2854 387.9 89.3039 386.022 88.3651C385.724 88.2371 385.382 88.092 385.032 87.9469C384.494 87.7165 384.247 87.102 384.469 86.5644C384.691 86.0267 385.314 85.7792 385.852 86.0011C386.21 86.1547 386.56 86.2998 386.91 86.4534C388.874 87.4349 390.735 88.4334 392.502 89.4575C393.006 89.7477 393.176 90.3963 392.886 90.8998C392.698 91.2412 392.34 91.429 391.981 91.429ZM148.149 88.57C147.927 88.57 147.697 88.5017 147.501 88.3481C147.04 87.9896 146.954 87.3325 147.313 86.8716L148.935 84.7892C149.908 83.5432 150.873 82.2886 151.837 81.0512C152.196 80.5903 152.862 80.5135 153.314 80.8634C153.775 81.2218 153.852 81.879 153.502 82.3399C152.537 83.5773 151.573 84.8234 150.599 86.0779L148.977 88.1688C148.773 88.4249 148.465 88.57 148.149 88.57ZM378.57 85.3781C378.459 85.3781 378.339 85.361 378.22 85.3184C375.991 84.5332 373.644 83.7822 371.253 83.0909C370.699 82.9287 370.374 82.3398 370.536 81.7851C370.699 81.2304 371.279 80.9061 371.842 81.0682C374.267 81.7766 376.649 82.5361 378.911 83.3298C379.457 83.5261 379.748 84.1235 379.56 84.6697C379.415 85.105 379.005 85.3781 378.57 85.3781ZM364.441 81.2304C364.356 81.2304 364.27 81.2218 364.193 81.1962C361.931 80.6415 359.592 80.1124 357.039 79.5747C356.467 79.4552 356.109 78.9005 356.228 78.3287C356.348 77.7569 356.911 77.3984 357.475 77.5179C360.044 78.0556 362.409 78.5932 364.697 79.1565C365.261 79.2931 365.611 79.8649 365.465 80.4281C365.346 80.9061 364.91 81.2304 364.441 81.2304ZM350.014 78.1665C349.954 78.1665 349.885 78.158 349.817 78.1495C347.41 77.7057 344.994 77.2704 342.569 76.8522C341.997 76.7498 341.613 76.2122 341.716 75.6318C341.818 75.06 342.364 74.676 342.936 74.7784C345.369 75.1966 347.794 75.6318 350.21 76.0756C350.782 76.178 351.158 76.7327 351.055 77.3046C350.953 77.8166 350.517 78.1665 350.014 78.1665ZM157.241 76.9546C157.011 76.9546 156.78 76.8778 156.584 76.7242C156.131 76.3572 156.055 75.7001 156.422 75.2478C158.112 73.1398 159.649 71.2707 161.117 69.5212C161.493 69.0774 162.158 69.0177 162.602 69.3932C163.046 69.7687 163.106 70.4344 162.73 70.8782C161.271 72.6106 159.743 74.4626 158.069 76.5621C157.856 76.8181 157.549 76.9546 157.241 76.9546ZM335.492 75.6233C335.432 75.6233 335.373 75.6147 335.313 75.6062C332.897 75.1966 330.473 74.7784 328.04 74.3431C327.468 74.2407 327.083 73.6945 327.186 73.1227C327.288 72.5509 327.826 72.1668 328.407 72.2693C330.831 72.696 333.247 73.1142 335.663 73.5238C336.235 73.6177 336.619 74.1639 336.525 74.7357C336.44 75.2648 335.996 75.6233 335.492 75.6233ZM320.971 73.0288C320.903 73.0288 320.834 73.0203 320.766 73.0118C318.171 72.5082 315.806 72.0218 313.518 71.5182C312.955 71.3902 312.588 70.827 312.716 70.2637C312.844 69.7004 313.399 69.3334 313.971 69.4614C316.233 69.965 318.589 70.4514 321.167 70.9464C321.739 71.0574 322.115 71.6121 322.004 72.1839C321.91 72.6789 321.466 73.0288 320.971 73.0288ZM306.526 70.0759C306.467 70.0759 306.398 70.0674 306.339 70.0588C303.923 69.6151 301.473 69.0603 299.065 68.3946C298.502 68.241 298.177 67.6607 298.331 67.0974C298.485 66.5341 299.074 66.2098 299.629 66.3635C301.985 67.0121 304.367 67.5583 306.723 67.985C307.295 68.0874 307.67 68.6421 307.568 69.2139C307.474 69.726 307.03 70.0759 306.526 70.0759ZM292.33 66.1842C292.21 66.1842 292.091 66.1672 291.971 66.116C290.349 65.5186 288.71 64.8699 287.096 64.1786C286.413 63.8799 285.748 63.5812 285.082 63.274C284.552 63.035 284.322 62.4035 284.561 61.8744C284.8 61.3452 285.423 61.1148 285.961 61.3538C286.618 61.6525 287.276 61.9512 287.933 62.2413C289.504 62.9156 291.109 63.5556 292.697 64.136C293.243 64.3323 293.525 64.9382 293.32 65.4844C293.158 65.9197 292.756 66.1842 292.33 66.1842ZM166.785 65.6978C166.529 65.6978 166.273 65.6039 166.077 65.4247C165.65 65.0321 165.616 64.3664 166.009 63.9397C167.776 62.0024 169.466 60.2528 171.165 58.5886C171.575 58.179 172.249 58.1875 172.65 58.6057C173.06 59.0239 173.052 59.6896 172.633 60.0907C170.96 61.7293 169.304 63.4532 167.562 65.3649C167.349 65.5868 167.067 65.6978 166.785 65.6978ZM278.867 60.1675C278.705 60.1675 278.542 60.1334 278.397 60.0565C276.203 58.9556 274.018 57.812 271.824 56.6598C271.312 56.3867 271.115 55.7552 271.38 55.2346C271.653 54.7225 272.285 54.5262 272.806 54.7908C274.983 55.943 277.159 57.078 279.336 58.1704C279.857 58.435 280.062 59.0665 279.806 59.5871C279.627 59.9541 279.251 60.1675 278.867 60.1675ZM177.32 55.3968C177.021 55.3968 176.731 55.2687 176.518 55.0298C176.142 54.586 176.193 53.9203 176.629 53.5448C178.566 51.8891 180.53 50.3359 182.485 48.9362C182.954 48.5948 183.612 48.7058 183.953 49.1752C184.295 49.6446 184.184 50.3017 183.714 50.6431C181.811 52.0171 179.89 53.5277 177.994 55.1407C177.807 55.32 177.568 55.3968 177.32 55.3968ZM265.797 53.3229C265.635 53.3229 265.464 53.2802 265.31 53.2034C263.142 52.0598 260.965 50.9247 258.779 49.8153C258.259 49.5507 258.054 48.9192 258.318 48.3986C258.583 47.878 259.215 47.6731 259.736 47.9377C261.93 49.0472 264.115 50.1908 266.292 51.3429C266.804 51.616 267 52.2476 266.736 52.7682C266.54 53.1181 266.181 53.3229 265.797 53.3229ZM189.28 46.8282C188.913 46.8282 188.563 46.6405 188.367 46.3076C188.077 45.8041 188.247 45.164 188.751 44.8653C190.919 43.6022 193.156 42.4586 195.401 41.4516C195.931 41.2126 196.554 41.4516 196.793 41.9807C197.032 42.5098 196.793 43.1328 196.264 43.3718C194.087 44.3447 191.918 45.4627 189.81 46.6831C189.647 46.7856 189.46 46.8282 189.28 46.8282ZM252.624 46.7002C252.479 46.7002 252.326 46.6661 252.18 46.6063C249.807 45.5054 247.613 44.5581 245.47 43.7046C244.933 43.4913 244.668 42.8768 244.881 42.3391C245.095 41.8015 245.709 41.5369 246.247 41.7503C248.424 42.6208 250.652 43.5852 253.06 44.7032C253.589 44.9507 253.819 45.5737 253.572 46.1028C253.41 46.4783 253.026 46.7002 252.624 46.7002ZM238.931 41.2979C238.829 41.2979 238.718 41.2809 238.615 41.2467C236.225 40.4957 233.869 39.8727 231.589 39.4033C231.017 39.2838 230.659 38.7291 230.778 38.1573C230.898 37.5855 231.453 37.2185 232.025 37.3465C234.364 37.833 236.788 38.4731 239.247 39.2411C239.802 39.4118 240.109 40.0092 239.938 40.564C239.793 41.0078 239.384 41.2979 238.931 41.2979ZM202.709 40.8371C202.265 40.8371 201.847 40.5554 201.71 40.1031C201.531 39.5484 201.838 38.9595 202.393 38.7803C203.272 38.4987 204.169 38.2256 205.082 37.9781C206.602 37.5599 208.138 37.2014 209.658 36.9198C210.23 36.8088 210.776 37.1929 210.887 37.7647C210.998 38.3365 210.614 38.8827 210.042 38.9936C208.582 39.2667 207.105 39.6081 205.637 40.0092C204.758 40.2567 203.887 40.5128 203.033 40.7859C202.922 40.82 202.82 40.8371 202.709 40.8371ZM224.529 38.328C224.495 38.328 224.469 38.328 224.435 38.328C222.011 38.1146 219.621 38.0549 217.213 38.1658C216.607 38.1743 216.137 37.7391 216.112 37.1588C216.086 36.5784 216.539 36.0834 217.119 36.0578C219.621 35.9469 222.105 35.9981 224.623 36.22C225.204 36.2712 225.631 36.7832 225.579 37.3636C225.528 37.9183 225.067 38.328 224.529 38.328Z" fill="#F20732"/>
<path d="M9.47599 171.123C9.47599 173.743 7.35029 175.86 4.73799 175.86C2.11716 175.86 0 173.735 0 171.123C0 168.503 2.12569 166.386 4.73799 166.386C7.35883 166.386 9.47599 168.512 9.47599 171.123Z" fill="#F20732"/>
<path d="M453.876 126.408C457.663 120.895 456.263 113.356 450.748 109.57C445.233 105.784 437.692 107.184 433.905 112.697C430.117 118.21 431.518 125.749 437.032 129.535C442.547 133.321 450.088 131.921 453.876 126.408Z" fill="#F20732"/>
<path d="M440.736 114.796C448.006 114.796 453.9 108.904 453.9 101.636C453.9 94.368 448.006 88.4761 440.736 88.4761C433.466 88.4761 427.572 94.368 427.572 101.636C427.572 108.904 433.466 114.796 440.736 114.796Z" stroke="#F20732" stroke-width="1.2336" stroke-miterlimit="10"/>
<path d="M139.016 37.9438C143.669 37.9438 147.442 34.1725 147.442 29.5204C147.442 24.8682 143.669 21.0969 139.016 21.0969C134.362 21.0969 130.59 24.8682 130.59 29.5204C130.59 34.1725 134.362 37.9438 139.016 37.9438Z" fill="#F20732"/>
<path d="M151.121 41.11C156.067 41.11 160.076 37.1018 160.076 32.1574C160.076 27.213 156.067 23.2048 151.121 23.2048C146.175 23.2048 142.166 27.213 142.166 32.1574C142.166 37.1018 146.175 41.11 151.121 41.11Z" stroke="#F20732" stroke-width="1.2336" stroke-miterlimit="10"/>
<path d="M23.1696 150.598C26.0787 150.598 28.4369 148.24 28.4369 145.332C28.4369 142.424 26.0787 140.066 23.1696 140.066C20.2606 140.066 17.9023 142.424 17.9023 145.332C17.9023 148.24 20.2606 150.598 23.1696 150.598Z" stroke="#8EE4FD" stroke-width="1.2336" stroke-miterlimit="10"/>
<path d="M441.786 184.283C444.983 184.283 447.574 181.692 447.574 178.497C447.574 175.301 444.983 172.71 441.786 172.71C438.589 172.71 435.998 175.301 435.998 178.497C435.998 181.692 438.589 184.283 441.786 184.283Z" stroke="#F20732" stroke-width="1.2336" stroke-miterlimit="10"/>
<path d="M335.425 115.325C335.425 115.325 332.796 53.7326 313.835 38.4731C294.875 23.2051 312.256 103.744 335.425 115.325Z" fill="#64E4E6"/>
<path d="M329.986 107.243C324.207 99.2038 322.124 88.6126 324.429 78.9858C324.941 76.8607 325.718 74.6674 327.391 73.2592C329.227 71.706 331.847 71.3646 334.212 71.7998C336.577 72.2351 338.754 73.3531 340.888 74.454C340.094 69.6236 340.239 64.4091 340.256 59.5189C340.273 55.4309 340.623 51.1893 342.587 47.6048C344.55 44.0119 348.503 41.2382 352.558 41.7929C357.211 42.433 360.224 46.8794 362.632 50.9162C363.972 44.4813 367.327 38.0634 371.664 33.1134C375.719 28.4793 381.865 24.6644 387.781 26.3542C392.758 27.7794 396.037 32.8659 396.677 37.9951C397.317 43.1328 395.789 48.2876 393.834 53.0754C391.708 58.2984 389.053 63.3081 385.929 68.002C389.566 67.6095 394.671 68.0191 396.89 70.9293C398.495 73.0288 398.666 75.9305 398.026 78.4908C397.027 82.4764 394.261 85.8389 390.983 88.331C387.713 90.823 383.931 92.5384 380.183 94.2282C385.63 96.4472 388.755 103.471 386.433 108.873C385.067 112.048 382.292 114.412 379.364 116.247C371.459 121.188 361.675 123.04 352.515 121.325C343.355 119.618 335.433 114.805 329.986 107.243Z" fill="#2CD0D1"/>
<path d="M387.37 28.6414L346.828 110.939" stroke="#0B334C" stroke-width="0.9252" stroke-miterlimit="10" stroke-linecap="round" stroke-linejoin="round"/>
<path d="M350.338 43.3804L366.14 71.4585" stroke="#0B334C" stroke-width="0.9252" stroke-miterlimit="10" stroke-linecap="round" stroke-linejoin="round"/>
<path d="M345.07 46.7173L363.502 77.0741" stroke="#0B334C" stroke-width="0.9252" stroke-miterlimit="10" stroke-linecap="round" stroke-linejoin="round"/>
<path d="M382.632 89.0051L357.713 89.355" stroke="#0B334C" stroke-width="0.9252" stroke-miterlimit="10" stroke-linecap="round" stroke-linejoin="round"/>
<path d="M340.052 111.391C340.052 111.391 311.555 64.3408 290.17 60.5259C268.785 56.7196 316.951 112.27 340.052 111.391Z" fill="#2CD0D1"/>
<path d="M289.436 64.2639L322.081 96.0289" stroke="#0B334C" stroke-width="0.9252" stroke-miterlimit="10" stroke-linecap="round" stroke-linejoin="round"/>
<path d="M73.017 325.886C73.017 325.886 39.6718 255.349 68.0997 238.852C96.5362 222.355 77.9257 326.236 77.9257 326.236L73.017 325.886Z" fill="#64E4E6"/>
<path d="M71.9661 318.521C71.9661 318.521 53.7141 264.831 38.6208 264.831C23.5276 264.831 34.7622 293.259 67.7574 319.929L71.9661 318.521Z" fill="#2CD0D1"/>
<path d="M35.5391 268.509L60.0315 306.41" stroke="#0B334C" stroke-width="0.9252" stroke-miterlimit="10" stroke-linecap="round" stroke-linejoin="round"/>
<path d="M36.6832 342.733C36.6832 342.733 25.2779 331.851 30.3659 321.849C35.4539 311.847 50.1971 315.005 50.1971 315.005C50.1971 315.005 43.7006 301.315 55.2852 295.179C66.8698 289.034 76.3458 304.482 76.3458 304.482C76.3458 304.482 82.6631 286.756 108.112 287.285C133.56 287.814 131.981 315.013 131.981 315.013C131.981 315.013 138.298 309.227 146.374 314.484C154.45 319.75 146.374 329.752 146.374 329.752C146.374 329.752 154.271 332.031 153.75 342.562L36.6832 342.733Z" fill="#2CD0D1"/>
<path d="M358.354 265.531H72.3672V90.2086C72.3672 86.445 75.4234 83.3982 79.1797 83.3982H351.533C355.298 83.3982 358.346 86.445 358.346 90.2086V265.531H358.354Z" fill="white" stroke="#1F5B99" stroke-width="1.1536" stroke-miterlimit="10"/>
<path d="M358.354 97.0788H72.3672V90.2086C72.3672 86.445 75.4234 83.3982 79.1797 83.3982H351.533C355.298 83.3982 358.346 86.445 358.346 90.2086V97.0788H358.354Z" fill="url(#paint0_linear_126_12341)"/>
<path d="M289.428 184.601C290.294 180.921 288.012 177.237 284.332 176.371C280.651 175.505 276.965 177.787 276.099 181.466C275.233 185.146 277.515 188.83 281.196 189.696C284.876 190.562 288.562 188.281 289.428 184.601Z" fill="#00A2DD"/>
<path d="M310.065 187.854C312.739 185.181 312.739 180.848 310.065 178.175C307.391 175.502 303.056 175.502 300.382 178.175C297.709 180.848 297.709 185.181 300.382 187.854C303.056 190.527 307.391 190.527 310.065 187.854Z" fill="#FCB13A"/>
<path d="M330.081 189.432C333.631 188.129 335.451 184.195 334.147 180.647C332.843 177.098 328.908 175.279 325.359 176.582C321.809 177.886 319.989 181.82 321.293 185.368C322.597 188.917 326.532 190.736 330.081 189.432Z" fill="#F20732"/>
<path d="M264.738 113.567H161.186V246.943H264.738V113.567Z" stroke="#0B334C" stroke-width="1.1536" stroke-miterlimit="10"/>
<path d="M268.547 176.397H260.838V184.104H268.547V176.397Z" fill="white" stroke="#1F5B99" stroke-width="1.1536" stroke-miterlimit="10"/>
<path d="M268.547 243.085H260.838V250.792H268.547V243.085Z" fill="white" stroke="#1F5B99" stroke-width="1.1536" stroke-miterlimit="10"/>
<path d="M268.547 109.957H260.838V117.664H268.547V109.957Z" fill="white" stroke="#1F5B99" stroke-width="1.1536" stroke-miterlimit="10"/>
<path d="M165.002 109.957H157.293V117.664H165.002V109.957Z" fill="white" stroke="#1F5B99" stroke-width="1.1536" stroke-miterlimit="10"/>
<path d="M164.635 176.397H156.926V184.104H164.635V176.397Z" fill="white" stroke="#1F5B99" stroke-width="1.1536" stroke-miterlimit="10"/>
<path d="M164.635 242.607H156.926V250.314H164.635V242.607Z" fill="white" stroke="#1F5B99" stroke-width="1.1536" stroke-miterlimit="10"/>
<path d="M209.107 110.194V117.9H216.816V110.194H209.107Z" fill="white" stroke="#1F5B99" stroke-width="1.1536" stroke-miterlimit="10"/>
<path d="M209.107 241.64V249.347H216.816V241.64H209.107Z" fill="white" stroke="#1F5B99" stroke-width="1.1536" stroke-miterlimit="10"/>
<path d="M247.784 160.754C247.784 141.782 232.699 126.335 213.867 125.737C194.403 125.123 177.798 141.091 177.696 160.566C177.645 170.065 181.384 178.693 187.479 185.026C193.156 190.932 196.511 198.681 196.511 206.874V208.248H228.969V206.882C228.969 198.826 232.076 191.051 237.727 185.299C243.942 178.983 247.784 170.313 247.784 160.754Z" fill="#FCB13A"/>
<path d="M220.662 235.029H204.809C200.267 235.029 196.588 231.351 196.588 226.81V207.83H228.883V226.81C228.883 231.342 225.204 235.029 220.662 235.029Z" fill="#0B334C"/>
<path d="M227.517 224.736L196.895 218.532C195.648 218.276 194.752 217.183 194.752 215.912C194.752 214.222 196.306 212.95 197.962 213.292L228.584 219.488C229.83 219.744 230.727 220.836 230.727 222.108C230.727 223.806 229.173 225.078 227.517 224.736Z" fill="#F20732"/>
<path d="M227.517 219.274L196.895 213.078C195.648 212.822 194.752 211.73 194.752 210.458C194.752 208.768 196.306 207.497 197.962 207.838L228.584 214.034C229.83 214.29 230.727 215.383 230.727 216.654C230.727 218.344 229.173 219.607 227.517 219.274Z" fill="#0B334C"/>
<path d="M227.517 230.198L196.895 224.002C195.648 223.746 194.752 222.654 194.752 221.382C194.752 219.692 196.306 218.421 197.962 218.762L228.584 224.967C229.83 225.223 230.727 226.315 230.727 227.587C230.727 229.268 229.173 230.54 227.517 230.198Z" fill="#0B334C"/>
<path d="M216.36 210.945L214.551 210.714C216.096 198.698 217.957 186.605 220.091 174.614C218 175.851 215.515 176.696 212.741 177.072C210.786 177.336 208.25 177.422 205.706 176.773C209.095 187.108 211.443 197.793 212.698 208.598L210.888 208.811C209.599 197.665 207.132 186.656 203.538 176.031C202.932 175.758 202.326 175.433 201.745 175.049C199.807 173.76 198.279 171.772 197.562 169.596C197.169 168.384 197.699 167.163 198.851 166.617C200.012 166.071 201.301 166.446 201.976 167.522C202.915 169.007 203.572 170.68 204.144 172.267C204.426 173.061 204.708 173.846 204.981 174.64C207.141 175.425 209.719 175.647 212.485 175.271C214.636 174.981 217.829 174.204 220.526 172.165C221.056 169.271 221.594 166.395 222.157 163.519C222.285 162.854 222.464 161.94 223.088 161.249C223.514 160.771 224.146 160.481 224.778 160.455C225.299 160.43 225.811 160.626 226.178 160.976C226.673 161.462 226.793 162.102 226.844 162.606C227.023 164.39 226.835 166.02 226.28 167.445C225.418 169.673 224.027 171.584 222.2 173.12C219.946 185.666 217.982 198.357 216.36 210.945ZM199.944 168.188C199.807 168.188 199.688 168.23 199.637 168.256C199.483 168.324 199.15 168.546 199.304 169.015C199.876 170.773 201.096 172.378 202.65 173.445C202.582 173.257 202.514 173.069 202.445 172.881C201.907 171.388 201.293 169.826 200.448 168.486C200.294 168.256 200.106 168.188 199.944 168.188ZM224.872 162.265C224.778 162.265 224.581 162.324 224.462 162.452C224.189 162.751 224.078 163.246 223.958 163.861C223.566 165.883 223.181 167.923 222.797 169.954C223.506 169.049 224.12 168 224.599 166.779C225.051 165.619 225.196 164.279 225.051 162.777C225.008 162.376 224.94 162.282 224.923 162.265C224.906 162.273 224.889 162.265 224.872 162.265Z" fill="#0B334C"/>
<path d="M198.518 207.753L228.883 214.162" stroke="white" stroke-width="0.3084" stroke-miterlimit="10" stroke-linecap="round" stroke-linejoin="round"/>
<path d="M196.674 223.815L227.74 230.395" stroke="white" stroke-width="0.3084" stroke-miterlimit="10" stroke-linecap="round" stroke-linejoin="round"/>
<path d="M156.362 276.497H144.061C142.925 276.497 142.012 275.575 142.012 274.449V259.352C142.012 258.259 142.9 257.372 143.992 257.372H156.431C157.523 257.372 158.411 258.259 158.411 259.352V274.449C158.411 275.575 157.498 276.497 156.362 276.497Z" fill="#0B334C"/>
<path d="M151.582 262.97H142.012V271.846H151.582V262.97Z" fill="#FCB13A"/>
<path d="M141.789 258.089V258.524C141.789 258.951 142.122 259.309 142.549 259.318C143.018 259.335 143.488 259.386 143.872 259.599C144.726 260.069 145.306 260.982 146.237 261.289C147.167 261.596 148.192 261.195 149.011 260.649C150.027 259.975 150.907 259.062 152.161 258.814C152.716 258.703 153.314 258.771 153.783 259.096C154.765 259.761 154.612 260.939 154.646 261.972C154.671 262.62 154.782 263.269 154.987 263.883C155.158 264.404 155.405 264.925 155.858 265.232C156.302 265.539 156.993 265.565 157.352 265.155C157.565 264.916 157.625 264.575 157.659 264.259C157.753 263.448 157.762 262.637 157.676 261.827C157.634 261.383 157.557 260.931 157.651 260.495C157.719 260.188 157.89 259.889 158.146 259.719C158.368 259.565 158.504 259.326 158.504 259.053V258.089C158.504 257.525 158.043 257.064 157.48 257.064H142.822C142.25 257.064 141.789 257.525 141.789 258.089Z" fill="#FCB13A"/>
<path d="M66.4423 276.395H60.125V342.63H66.4423V276.395Z" fill="#184778"/>
<path d="M42.9228 276.395H36.6055V342.63H42.9228V276.395Z" fill="#1F5B99"/>
<path d="M140.056 276.395H133.738V342.63H140.056V276.395Z" fill="#184778"/>
<path d="M163.565 276.395H157.248V342.63H163.565V276.395Z" fill="#1F5B99"/>
<path d="M163.558 276.404H36.7676V282.719H163.558V276.404Z" fill="#1F5B99"/>
<path d="M136.984 225.718C135.123 224.77 134.312 225.231 130.701 224.446C130.163 224.327 129.48 224.207 128.712 224.088C127.662 228.295 126.475 232.468 125.715 236.753C125.647 237.145 125.587 237.538 125.527 237.93C127.491 237.802 129.463 237.683 131.435 237.615C129.762 248.667 127.568 261.98 125.98 273.058C127.175 273.254 127.969 274.091 129.335 273.587C133.415 266.393 139.972 245.91 141.193 240.312C142.413 234.721 142.371 236.027 142.396 234.295C142.49 228.235 141.765 228.15 136.984 225.718Z" fill="#FA9778"/>
<path d="M131.708 236.667L131.443 237.717" stroke="#0B334C" stroke-width="0.3084" stroke-miterlimit="10" stroke-linecap="round" stroke-linejoin="round"/>
<path d="M129.701 272.759C129.701 272.759 127.55 274.176 125.937 272.759L125.595 273.698C125.296 274.517 125.143 275.388 125.143 276.258V276.523L136.411 276.531C136.411 275.721 135.899 274.995 135.139 274.714L129.701 272.759Z" fill="#1F5B99"/>
<path d="M94.6048 262.8C92.7181 262.552 90.8485 262.296 89.0131 261.963C89.0899 262.988 89.1668 264.012 89.2521 265.002C76.3016 264.088 56.5215 267.075 52.4665 267.733C51.9799 267.809 51.7153 267.852 51.7153 267.852L51.3652 271.351L52.4153 271.488L90.4558 276.344L94.0072 276.796C99.0952 277.445 103.714 273.784 104.252 268.688L104.704 264.396L104.747 264.029C101.357 263.73 97.9939 263.244 94.6048 262.8Z" fill="#FA9778"/>
<path d="M89.3203 265.087C89.3203 265.087 92.2826 265.881 92.6753 266.205" stroke="#0B334C" stroke-width="0.3084" stroke-miterlimit="10" stroke-linecap="round" stroke-linejoin="round"/>
<path d="M52.4587 271.403C52.4587 271.403 51.0843 269.226 52.5441 267.639L51.6136 267.28C50.8026 266.965 49.9318 266.794 49.061 266.777L48.7964 266.768L48.5488 278.034C49.3598 278.051 50.094 277.556 50.3928 276.796L52.4587 271.403Z" fill="#1F5B99"/>
<path d="M92.4969 222.364C92.4969 222.364 88.459 233.066 88.459 236.753C88.459 240.44 88.459 263.252 88.459 263.252L104.611 265.01L109.699 240.09L129.709 238.861L132.518 223.072L116.767 220.495L92.4969 222.364Z" fill="url(#paint1_linear_126_12341)"/>
<path d="M110.801 231.666L109.742 239.91" stroke="#0B334C" stroke-width="0.3084" stroke-miterlimit="10" stroke-linecap="round" stroke-linejoin="round"/>
<path d="M130.717 222.978L127.951 238.306" stroke="#0B334C" stroke-width="0.3084" stroke-miterlimit="10" stroke-linecap="round" stroke-linejoin="round"/>
<path d="M88.9199 261.34L104.389 263.115" stroke="#0B334C" stroke-width="0.3084" stroke-miterlimit="10" stroke-linecap="round" stroke-linejoin="round"/>
<path d="M110.049 238.041L128.019 237.256" stroke="#0B334C" stroke-width="0.3084" stroke-miterlimit="10" stroke-linecap="round" stroke-linejoin="round"/>
<path d="M93.4027 224.489C93.4027 224.489 90.1757 233.108 90.1757 237.119C90.1757 241.131 90.1074 261.468 90.1074 261.468" stroke="#0B334C" stroke-width="0.3084" stroke-miterlimit="10" stroke-linecap="round" stroke-linejoin="round"/>
<path d="M97.414 224.42L91.3613 231.069" stroke="#0B334C" stroke-width="0.3084" stroke-miterlimit="10" stroke-linecap="round" stroke-linejoin="round"/>
<path d="M143.069 198.51C142.429 197.614 141.191 197.384 140.286 197.981C140.269 197.99 140.244 198.015 140.226 198.024L140.175 198.066C138.203 199.466 136.163 200.891 134.123 202.223C132.065 203.571 130.008 204.885 127.908 206.148C124.706 208.077 121.454 209.904 118.159 211.5C117.851 210.646 117.569 209.784 117.296 208.922C116.665 206.925 116.084 204.911 115.538 202.888C115.017 203.178 114.513 203.46 114.044 203.665C111.824 204.672 109.613 205.628 107.291 206.251C107.872 208.103 108.486 209.938 109.186 211.756C109.562 212.737 109.963 213.71 110.373 214.691C110.962 216.117 111.594 217.525 112.26 218.924L112.277 218.95C113.105 220.606 115.128 221.306 116.776 220.478C117.322 220.205 117.868 219.923 118.406 219.624C119.209 219.189 120.011 218.754 120.788 218.284C122.265 217.439 123.708 216.543 125.099 215.613C126.183 214.905 127.225 214.162 128.266 213.437C129.299 212.677 130.332 211.918 131.34 211.141C135.343 208.06 139.1 204.8 142.711 201.258C142.753 201.216 142.796 201.173 142.839 201.13C143.53 200.447 143.658 199.329 143.069 198.51Z" fill="#FA9778"/>
<path d="M140.09 198.476C140.09 198.476 141.43 194.832 142.011 194.866C142.591 194.9 142.591 196.812 142.591 196.812C142.591 196.812 145.929 194.149 146.356 194.439C146.791 194.729 144.239 197.068 144.239 197.068C144.239 197.068 146.697 195.591 147.167 195.941C147.636 196.291 144.546 198.262 144.546 198.262C144.546 198.262 147.329 197.366 147.56 197.955C147.79 198.544 144.384 199.44 144.384 199.44C144.384 199.44 146.458 199.252 146.544 199.696C146.629 200.14 142.079 201.454 142.079 201.454L140.09 198.476Z" fill="#FA9778"/>
<path d="M107.948 209.093C107.948 209.093 102.16 195.207 106.437 192.382C110.714 189.549 113.676 194.226 113.94 195.472C114.205 196.718 116.775 206.72 116.775 206.72L107.948 209.093Z" fill="#1F5B99"/>
<path d="M107.342 188.696V180.562H100.948V188.696C100.948 189.677 100.154 190.471 99.1719 190.471C106.428 201.019 109.177 190.471 109.177 190.471H109.117C108.136 190.471 107.342 189.677 107.342 188.696Z" fill="#FA9778"/>
<path d="M107.342 185.691V187.04C107.026 187.065 106.719 187.048 106.403 186.989C105.02 186.724 103.057 186.092 101.836 184.582C101.537 184.223 101.238 183.703 100.939 183.08V182.875C101.042 183.046 101.153 183.199 101.264 183.327C102.485 184.838 104.448 185.469 105.831 185.734C106.343 185.836 106.856 185.811 107.342 185.691Z" fill="#0B334C"/>
<path d="M113.822 193.5C113.13 192.562 111.704 191.555 110.373 190.735L110.842 190.334L107.419 189.105L105.66 194.721L100.948 188.696L97.4989 189.72L98.0282 190.044C96.3379 190.368 92.3768 191.759 92.0524 196.598C91.728 201.344 91.2243 221.399 91.1389 224.719C91.1304 224.967 91.3438 225.163 91.5914 225.137L108.827 223.234L110.227 221.476L112.157 223.405L120.011 220.981C120.011 220.998 115.315 195.515 113.822 193.5Z" fill="#1F5B99"/>
<path d="M105.678 196.692V194.712L97.9434 190.01" stroke="#0B334C" stroke-width="0.3084" stroke-miterlimit="10" stroke-linecap="round" stroke-linejoin="round"/>
<path d="M110.313 190.829L105.678 194.712" stroke="#0B334C" stroke-width="0.3084" stroke-miterlimit="10" stroke-linecap="round" stroke-linejoin="round"/>
<path d="M114.334 199.457H109.758V200.345H114.334V199.457Z" stroke="#0B334C" stroke-width="0.3084" stroke-miterlimit="10" stroke-linecap="round" stroke-linejoin="round"/>
<path d="M110.312 221.399V214.375" stroke="#0B334C" stroke-width="0.3084" stroke-miterlimit="10" stroke-linecap="round" stroke-linejoin="round"/>
<path d="M144.93 200.038L146.944 199.21C147.013 199.184 147.047 199.099 147.021 199.031L144.102 191.956C144.076 191.887 143.991 191.853 143.922 191.879L141.908 192.707C141.839 192.732 141.805 192.818 141.831 192.886L144.75 199.961C144.776 200.029 144.861 200.063 144.93 200.038Z" fill="#1F5B99"/>
<path d="M143.546 194.84L141.378 189.583L135.863 191.862C135.077 192.186 134.172 191.811 133.848 191.025L132.371 187.458C132.217 187.074 132.217 186.656 132.371 186.272C132.533 185.888 132.824 185.597 133.208 185.435L138.919 183.08L139.243 183.856L133.532 186.212C133.361 186.28 133.225 186.417 133.148 186.587C133.08 186.758 133.08 186.954 133.148 187.125L134.625 190.693C134.77 191.051 135.188 191.222 135.538 191.077L141.83 188.482L144.323 194.516L143.546 194.84Z" fill="#1F5B99"/>
<path d="M136.459 186.98L150.409 181.219C150.853 181.032 151.066 180.52 150.887 180.076L149.897 177.678C149.709 177.234 149.197 177.02 148.753 177.2L134.803 182.96C134.359 183.148 134.146 183.66 134.325 184.104L135.315 186.502C135.503 186.946 136.015 187.159 136.459 186.98Z" fill="#FCB13A"/>
<path d="M146.731 197.392C146.748 197.102 146.355 196.317 146.355 196.317C146.364 195.771 145.613 195.156 145.613 195.156C145.613 195.156 145.937 194.337 145.391 194.038C145.041 193.85 144.46 194.286 144.076 194.627C143.478 194.994 143.017 195.301 143.017 195.301C143.017 195.301 143.188 193.407 142.616 193.313C142.172 193.244 141.079 195.318 140.61 196.274C140.593 196.283 140.567 196.291 140.55 196.3L140.499 196.334C138.416 197.554 136.256 198.783 134.096 199.935C131.928 201.105 129.759 202.231 127.557 203.306C123.801 205.141 119.976 206.848 116.134 208.222C114.521 206.814 112.942 205.338 111.405 203.81C110.705 203.127 110.022 202.427 109.339 201.719C108.195 202.641 107.06 203.571 105.95 204.535C105.404 205.141 104.857 205.747 104.328 206.362C103.901 206.84 103.483 207.335 103.064 207.821C103.875 208.589 104.704 209.357 105.54 210.1C105.847 210.373 106.163 210.638 106.479 210.911C108.135 212.336 109.826 213.718 111.601 215.024C111.755 215.135 111.9 215.246 112.054 215.357C113.454 216.364 115.289 216.586 116.877 215.912C116.886 215.912 116.894 215.903 116.903 215.903C118.824 215.075 120.693 214.196 122.52 213.249C122.99 212.993 123.459 212.754 123.92 212.489C125.064 211.892 126.165 211.235 127.284 210.603C128.376 209.938 129.478 209.281 130.545 208.589C134.796 205.875 138.826 202.965 142.744 199.756C142.744 199.756 142.744 199.756 142.753 199.748C143.623 199.568 145.177 199.218 146.056 198.911C146.509 198.834 146.961 198.732 147.124 198.595C147.474 198.271 146.731 197.392 146.731 197.392ZM144.571 198.075C144.571 198.075 144.605 198.066 144.631 198.066V198.075C144.605 198.075 144.571 198.075 144.571 198.075Z" fill="#FA9778"/>
<path d="M110.449 202.863L104.609 209.272L106.385 210.851L110.449 202.863Z" fill="#0B334C"/>
<path d="M113.164 210.125C113.164 210.125 115.486 208.504 116.195 208.239" stroke="#0B334C" stroke-width="0.3084" stroke-miterlimit="10" stroke-linecap="round" stroke-linejoin="round"/>
<path d="M117.33 215.647C117.33 215.647 135.275 206.345 142.873 199.679L144.674 199.244" stroke="#0B334C" stroke-width="0.3084" stroke-miterlimit="10" stroke-linecap="round" stroke-linejoin="round"/>
<path d="M104.26 209.75L94.0581 198.758C94.0581 198.758 92.1031 194.243 95.2447 192.109C98.3863 189.984 101.494 192.306 102.68 193.688C103.867 195.071 110.645 202.7 110.645 202.7L104.26 209.75Z" fill="#1F5B99"/>
<path d="M95.5 200.473L104.191 209.886L104.652 209.357" stroke="#0B334C" stroke-width="0.3084" stroke-miterlimit="10" stroke-linecap="round" stroke-linejoin="round"/>
<path d="M102.791 208.35L109.655 201.83" stroke="#0B334C" stroke-width="0.3084" stroke-miterlimit="10" stroke-linecap="round" stroke-linejoin="round"/>
<path d="M110.749 173.922C109.981 170.449 106.472 168.315 103.032 169.229C99.8561 170.073 97.9011 173.197 98.456 176.346C98.4134 176.363 98.3707 176.363 98.328 176.389C97.4316 176.756 97.0048 177.78 97.3719 178.676C97.6963 179.478 98.8573 180.391 99.7451 180.323C100.24 181.603 100.77 182.704 101.282 183.327C102.503 184.838 104.466 185.469 105.849 185.734C106.882 185.939 107.958 185.657 108.76 184.966C109.503 184.334 110.391 183.421 110.98 182.278C111.244 181.774 111.441 181.219 111.543 180.622C111.594 180.306 111.611 179.939 111.603 179.521C111.56 178.027 111.193 175.937 110.749 173.922Z" fill="#FA9778"/>
<path d="M106.951 177.43C107.13 177.993 107.327 178.446 107.463 179.017C107.506 179.29 107.591 179.589 107.463 179.948C107.327 180.315 106.994 180.443 106.721 180.502C106.9 180.263 107.054 180.033 107.054 179.837C107.062 179.649 106.985 179.393 106.934 179.12C106.823 178.608 106.695 177.985 106.951 177.43Z" fill="#0B334C"/>
<path d="M105.371 176.073C105.056 176.056 104.731 176.03 104.441 176.073C104.142 176.124 103.878 176.269 103.638 176.517L103.63 176.525C103.587 176.568 103.51 176.577 103.468 176.525C103.434 176.491 103.425 176.44 103.442 176.397C103.519 176.218 103.613 176.03 103.775 175.894C103.929 175.749 104.117 175.646 104.313 175.587C104.714 175.459 105.132 175.484 105.508 175.663C105.611 175.715 105.653 175.843 105.602 175.945C105.559 176.022 105.482 176.065 105.397 176.065L105.371 176.073Z" fill="#0B334C"/>
<path d="M108.487 175.672C108.862 175.493 109.281 175.467 109.682 175.595C109.878 175.655 110.075 175.757 110.22 175.902C110.382 176.039 110.476 176.227 110.553 176.406C110.578 176.466 110.553 176.534 110.493 176.56C110.45 176.577 110.399 176.568 110.365 176.534L110.356 176.525C110.117 176.278 109.853 176.133 109.554 176.082C109.255 176.039 108.931 176.065 108.623 176.082H108.589C108.47 176.09 108.376 175.996 108.367 175.885C108.367 175.783 108.418 175.706 108.487 175.672Z" fill="#0B334C"/>
<path d="M109.818 178.241C109.818 178.736 109.571 179.145 109.255 179.145C108.948 179.145 108.691 178.744 108.691 178.241C108.691 177.746 108.939 177.336 109.255 177.336C109.562 177.336 109.818 177.746 109.818 178.241Z" fill="#0B334C"/>
<path d="M105.303 178.241C105.303 178.736 105.055 179.145 104.739 179.145C104.432 179.145 104.176 178.744 104.176 178.241C104.176 177.746 104.423 177.336 104.739 177.336C105.047 177.336 105.303 177.746 105.303 178.241Z" fill="#0B334C"/>
<path d="M106.848 182.713C106.711 182.798 106.549 182.798 106.395 182.824C106.241 182.798 106.071 182.798 105.951 182.687C106.105 182.687 106.241 182.713 106.395 182.696C106.549 182.713 106.694 182.687 106.848 182.713Z" fill="#0B334C"/>
<path d="M107.899 181.74C107.608 182.141 107.139 182.414 106.609 182.448C106.345 182.448 106.08 182.38 105.867 182.226C105.645 182.081 105.5 181.876 105.389 181.663C105.764 181.97 106.157 182.226 106.601 182.184C107.045 182.184 107.472 181.97 107.899 181.74Z" fill="#0B334C"/>
<path d="M104.731 181.415C104.731 181.415 104.679 180.434 106.788 180.477C106.788 180.477 108.197 180.519 108.444 181.458C108.453 181.45 107.42 182.312 104.731 181.415Z" fill="#0B334C"/>
<path d="M99.3348 172.95C99.3178 172.95 99.3007 172.941 99.2836 172.941C97.9177 172.608 96.4664 173.342 96.0054 174.682C95.9627 174.802 95.9286 174.913 95.903 175.032C95.3993 176.961 95.8518 179.086 97.0128 180.716C97.9689 182.064 99.3861 183.063 100.948 183.601V182.884C100.539 182.244 100.129 181.347 99.7275 180.323C98.8397 180.4 97.6872 179.478 97.3713 178.685C97.1408 178.13 97.2262 177.524 97.5335 177.055C97.9092 176.483 98.7287 176.389 99.3007 176.764C99.6763 177.003 99.9922 177.345 100.137 177.806C100.137 177.806 100.88 177.934 101.145 177.626C101.281 177.464 101.128 176.346 101.111 175.254C101.085 174.17 100.376 173.206 99.3348 172.95Z" fill="#0B334C"/>
<path d="M112.508 175.424C112.508 175.279 112.508 175.143 112.499 175.006C112.491 174.912 112.491 174.819 112.482 174.716C112.482 174.691 112.474 174.673 112.474 174.648C112.474 174.622 112.465 174.597 112.465 174.571C112.192 172.147 110.365 172.796 110.365 172.796C110.51 173.078 110.681 173.658 110.681 173.658C110.681 173.658 111.552 178.019 111.586 179.521C111.595 179.76 111.586 179.999 111.569 180.204C111.851 179.512 112.064 178.778 112.184 178.045C112.278 177.422 112.414 176.722 112.482 176.039C112.499 175.851 112.508 175.646 112.508 175.424Z" fill="#0B334C"/>
<path d="M280.029 320.048L275.479 326.142H280.208L280.029 320.048Z" fill="#FCB13A"/>
<path d="M317.3 320.048L321.851 326.142H317.121L317.3 320.048Z" fill="#FCB13A"/>
<path d="M317.327 320.048H280.029V339.968H317.327V320.048Z" fill="#FCB13A"/>
<path d="M319.871 328.233H277.477L280.029 320.048H317.327L319.871 328.233Z" fill="#FCB13A"/>
<path d="M317.291 320.108L319.263 326.099H320.911L317.291 320.108Z" fill="#0B334C"/>
<path d="M317.292 328.207H280.02V331.168L317.292 328.207Z" fill="#0B334C"/>
<path d="M234.56 318.93L236.677 324.008H231.171H227.517H219.083C219.083 324.008 217.145 326.936 215.233 330.546C212.296 336.076 214.78 342.929 220.585 345.285C227.705 348.161 235.747 347.384 242.15 343.262C253.828 340.198 268.64 335.334 273.028 329.564C278.671 322.131 234.56 318.93 234.56 318.93Z" fill="#0B334C"/>
<path d="M236.438 324.29C236.438 324.29 234.09 333.695 239.067 334.821C244.044 335.948 262.39 330.213 261.733 324.759" stroke="white" stroke-width="0.3305" stroke-miterlimit="10" stroke-linecap="round" stroke-linejoin="round"/>
<path d="M238.41 323.915L251.301 322.131" stroke="white" stroke-width="0.3305" stroke-miterlimit="10" stroke-linecap="round" stroke-linejoin="round"/>
<path d="M221.764 331.911L229.754 332.193C229.754 332.193 230.036 341.973 226.365 342.255C222.703 342.537 219.792 339.242 221.764 331.911Z" stroke="white" stroke-width="0.3305" stroke-miterlimit="10" stroke-linecap="round" stroke-linejoin="round"/>
<path d="M218.852 325.801C218.852 325.801 227.79 327.021 235.968 326.364" stroke="white" stroke-width="0.3305" stroke-miterlimit="10" stroke-linecap="round" stroke-linejoin="round"/>
<path d="M250.72 344.568C248.133 344.388 247.51 340.855 249.875 339.788C254.818 337.552 261.391 334.958 263.526 335.854C266.445 337.092 260.188 345.233 250.72 344.568Z" fill="#1AA2DA"/>
<path d="M259.384 296.767C258.983 295.094 258.556 293.387 258.377 292.738C258.343 292.644 258.317 292.551 258.3 292.457C257.916 291.151 257.532 289.837 257.114 288.539C255.492 283.41 253.588 278.477 251.334 273.562C251.411 272.196 251.53 269.166 251.155 269.107C250.677 269.03 250.113 271.18 250.113 271.18C250.113 271.18 250.446 267.434 249.78 267.451C249.106 267.468 248.995 270.583 248.995 270.583C248.995 270.583 248.141 266.76 247.621 267.11C247.1 267.451 247.689 270.455 247.689 270.455C247.689 270.455 246.272 267.05 245.819 267.374C245.367 267.698 246.827 272.017 246.827 272.017C246.827 272.017 244.914 271.326 244.667 271.889C244.47 272.333 246.331 274.031 247.177 274.773C247.177 274.773 247.177 274.773 247.177 274.782C247.177 274.808 247.185 274.816 247.185 274.842L247.194 274.91C247.885 277.393 248.568 279.954 249.166 282.506C249.772 285.057 250.344 287.609 250.848 290.169C251.121 291.535 251.368 292.909 251.607 294.275C248.133 294.898 244.573 295.282 240.996 295.538C240.142 295.597 239.289 295.64 238.443 295.683C238.631 297.876 238.751 300.069 238.802 302.288C238.819 303.193 238.887 304.089 238.956 304.985C239.937 304.891 240.919 304.797 241.909 304.669C244.65 304.311 247.399 303.867 250.13 303.278C251.01 303.091 251.88 302.886 252.76 302.655C253.639 302.442 255.218 301.964 256.712 301.503C258.71 300.88 259.88 298.806 259.384 296.767Z" fill="#FFCBA1"/>
<path d="M251.557 294.181C251.557 294.181 251.983 297.21 252.547 298.269" stroke="#0B334C" stroke-width="0.3305" stroke-miterlimit="10" stroke-linecap="round" stroke-linejoin="round"/>
<path d="M240.391 305.113C240.391 305.113 224.401 308.032 221.106 303.611C217.81 299.19 223.078 295.717 224.119 295.623C225.152 295.529 239.452 295.435 239.452 295.435L240.391 305.113Z" fill="#F20732"/>
<path d="M230.274 294.565V285.877H223.445V294.565C223.445 295.606 222.728 296.545 221.678 296.545L221.148 296.647C230.974 304.755 232.229 296.451 232.229 296.451H232.161C231.128 296.451 230.274 295.606 230.274 294.565Z" fill="#FFCBA1"/>
<path d="M230.283 291.202V293.199C229.489 292.841 228.729 292.329 228.106 291.629C227.833 291.322 227.568 290.921 227.295 290.426C228.217 290.835 229.156 291.057 229.933 291.168C230.044 291.185 230.155 291.202 230.283 291.202Z" fill="#0B334C"/>
<path d="M222.959 295.913C222.959 295.913 231.265 295.99 232.298 296.459C233.331 296.929 238.129 301.537 238.786 304.354C239.444 307.17 235.397 315.542 235.867 317.138C236.336 318.734 238.163 324 238.163 324H218.374C218.374 324 220.91 314.219 218.562 308.39C216.215 302.57 216.821 296.118 222.959 295.913Z" fill="#F20732"/>
<path d="M293.491 326.415C293.414 325.86 288.923 325.109 288.923 325.109C288.923 325.109 290.443 323.752 290.059 323.266C289.76 322.89 287.387 323.718 286.328 324.111C286.311 324.102 286.285 324.094 286.268 324.094L286.2 324.077C283.69 323.513 281.095 322.899 278.577 322.225C276.041 321.559 273.514 320.859 271.03 320.091C266.053 318.563 261.153 316.848 256.577 314.74C252.044 312.632 247.707 309.978 243.498 307.085C242.09 306.12 240.707 305.122 239.341 304.098C239.051 304.635 238.76 305.173 238.487 305.702C237.36 307.878 236.251 310.259 234.979 312.521C236.14 313.298 237.318 314.049 238.513 314.783C240.878 316.217 243.302 317.573 245.795 318.82C248.305 320.04 250.874 321.192 253.538 322.148C256.184 323.087 258.831 323.932 261.494 324.597C262.826 324.956 264.158 325.254 265.489 325.562C266.83 325.843 268.162 326.125 269.502 326.364C274.795 327.345 280.062 328.011 285.457 328.352C286.635 329.069 289.222 330.588 289.453 330.29C289.743 329.906 288.121 328.395 288.121 328.395C288.121 328.395 291.271 330.46 291.57 329.863C291.869 329.257 289.179 327.687 289.179 327.687C289.179 327.687 292.953 328.736 292.893 328.113C292.833 327.49 289.905 326.594 289.905 326.594C289.905 326.594 293.559 326.961 293.491 326.415Z" fill="#FFCBA1"/>
<path d="M237.847 314.987C237.847 314.987 221.482 307.656 222.984 300.598C224.487 293.549 230.881 296.741 233.237 299.284C235.585 301.819 243.473 307.085 243.473 307.085L237.847 314.987Z" fill="#F20732"/>
<path d="M236.464 314.424C236.464 314.424 226.374 308.501 223.557 304.9" stroke="#0B334C" stroke-width="0.3305" stroke-miterlimit="10" stroke-linecap="round" stroke-linejoin="round"/>
<path d="M240.058 304.618L232.443 298.55" stroke="#0B334C" stroke-width="0.3305" stroke-miterlimit="10" stroke-linecap="round" stroke-linejoin="round"/>
<path d="M236.839 284.622C236.728 284.468 236.575 284.366 236.438 284.247C236.114 283.965 235.875 283.615 235.696 283.222C235.508 281.78 235.132 280.056 234.688 278.375C233.732 274.697 229.899 272.572 226.262 273.681C222.634 274.79 220.636 278.699 221.891 282.275C222.822 284.938 223.94 287.643 224.956 288.795C226.322 290.357 228.448 290.955 229.925 291.177C231.034 291.347 232.17 291.006 232.998 290.238C233.766 289.538 234.68 288.522 235.252 287.285C235.414 286.943 235.533 286.576 235.636 286.192C235.986 285.919 236.336 285.646 236.694 285.373C236.78 285.305 236.865 285.237 236.916 285.143C237.002 284.972 236.942 284.767 236.839 284.622Z" fill="#FFCBA1"/>
<path d="M232.613 285.774C232.613 286.653 231.905 287.362 231.025 287.362C230.146 287.362 229.438 286.653 229.438 285.774C229.438 284.895 230.146 284.187 231.025 284.187C231.905 284.187 232.613 284.895 232.613 285.774Z" fill="#FFB285"/>
<path d="M233.79 280.722C233.457 280.705 233.107 280.679 232.792 280.722C232.476 280.782 232.185 280.935 231.938 281.2L231.929 281.208C231.878 281.26 231.801 281.26 231.759 281.208C231.724 281.174 231.707 281.115 231.733 281.072C231.818 280.884 231.921 280.679 232.092 280.534C232.254 280.381 232.459 280.27 232.672 280.201C233.099 280.065 233.543 280.09 233.944 280.287C234.055 280.338 234.106 280.474 234.047 280.585C234.004 280.671 233.918 280.713 233.833 280.713L233.79 280.722Z" fill="#0B334C"/>
<path d="M233.296 287.652C233.125 287.677 232.971 287.609 232.809 287.575C232.673 287.49 232.502 287.421 232.434 287.259C232.587 287.328 232.715 287.404 232.869 287.447C232.997 287.524 233.151 287.558 233.296 287.652Z" fill="#0B334C"/>
<path d="M234.731 287.123C234.278 287.396 233.706 287.473 233.168 287.293C232.912 287.191 232.673 287.003 232.528 286.773C232.374 286.542 232.306 286.278 232.289 286.013C232.537 286.474 232.818 286.884 233.271 287.029C233.715 287.199 234.218 287.165 234.731 287.123Z" fill="#0B334C"/>
<path d="M234.013 283.35C233.628 283.239 233.33 283.18 233.022 283.205C232.715 283.214 232.408 283.308 232.023 283.41C232.117 283.231 232.254 283.086 232.425 282.975C232.587 282.855 232.8 282.804 233.005 282.787C233.423 282.762 233.85 282.983 234.013 283.35Z" fill="#0B334C"/>
<path d="M235.405 276.352C235.03 274.893 234.133 273.579 232.87 272.785C232.136 272.324 231.299 272.042 230.445 271.897C228.448 271.539 226.322 271.923 224.563 272.938C223.957 273.288 223.385 273.707 222.856 274.159C222.181 274.731 221.55 275.354 221.029 276.079C220.141 277.334 219.919 278.989 219.655 280.5C219.262 282.787 218.28 284.921 217.196 286.978C216.709 287.916 216.189 288.838 215.89 289.854C215.582 290.869 215.506 291.987 215.898 292.969C216.317 294.018 217.273 294.821 218.357 295.162C219.142 295.41 221.439 295.538 222.933 295.666C224.196 295.776 225.502 295.495 226.501 294.718C230.505 291.62 225.016 285.424 225.016 285.424C221.72 283.026 224.495 281.473 224.495 281.473C225.161 281.558 225.793 281.558 226.407 281.524C226.697 281.959 227.013 282.685 226.851 283.734C226.851 283.734 228.311 282.267 228.772 281.114C231.965 280.159 233.988 277.957 234.389 277.487C234.509 277.777 234.62 278.076 234.705 278.383C234.884 279.058 235.055 279.749 235.2 280.423C235.653 279.117 235.747 277.692 235.405 276.352Z" fill="#0B334C"/>
<path d="M263.461 15.0888L273.637 20.8837L284.351 0L263.461 15.0888Z" fill="#8EE4FD"/>
<path d="M263.459 15.0889L263.109 22.8125L269.597 18.5965L263.459 15.0889Z" fill="#84D3EB"/>
<path d="M263.11 22.8124L259.422 14.0391L284.35 0L263.46 15.0888L263.11 22.8124Z" fill="#51BAD9"/>
<path d="M284.35 0L250.996 11.052L259.422 14.0391L284.35 0Z" fill="#8EE4FD"/>
<path d="M415.878 196.172H377.727V152.305H406.462L415.878 162.555V196.172Z" fill="url(#paint2_linear_126_12341)"/>
<path d="M406.461 152.305L403.832 162.674L415.878 162.555L406.461 152.305Z" fill="#E9002B"/>
<path d="M406.334 152.219L403.875 162.751L415.81 162.657" stroke="#0B334C" stroke-width="0.9252" stroke-miterlimit="10" stroke-linecap="round" stroke-linejoin="round"/>
<path d="M98.3378 69.8284C101.018 69.0176 103.776 69.3846 106.064 70.6306L98.6793 46.2308L76.3808 52.9815C76.526 51.6757 76.415 50.3187 76.0138 48.9788C74.4173 43.6961 68.8257 40.7005 63.5413 42.3049C58.2569 43.9009 55.2605 49.4909 56.8654 54.7737C57.2752 56.1136 57.9325 57.2999 58.7777 58.3069L36.4707 65.0576L43.8551 89.4575C45.0589 87.1532 47.1504 85.3183 49.8395 84.5075C55.1239 82.9116 60.707 85.8986 62.3034 91.1814C63.9084 96.4728 60.9119 102.054 55.6361 103.65C52.9555 104.461 50.1981 104.094 47.9102 102.848L55.2946 127.248L77.6016 120.497C77.4565 121.803 77.5675 123.16 77.9687 124.5C79.5651 129.783 85.1568 132.778 90.4412 131.174C95.7255 129.578 98.722 123.988 97.117 118.705C96.7073 117.365 96.0499 116.179 95.2048 115.172L117.503 108.421L110.119 84.0211C108.915 86.3254 106.824 88.1603 104.134 88.971C98.85 90.567 93.2583 87.5885 91.6619 82.2971C90.057 77.0143 93.0535 71.4328 98.3378 69.8284Z" fill="#1AA2DA"/>
<path d="M56.4727 124.013L76.2186 118.219" stroke="#0B334C" stroke-width="0.9252" stroke-miterlimit="10" stroke-linecap="round" stroke-linejoin="round"/>
<path d="M78.3281 55.32L97.8094 49.1326" stroke="#0B334C" stroke-width="0.9252" stroke-miterlimit="10" stroke-linecap="round" stroke-linejoin="round"/>
<path d="M381.754 329.658L382.403 339.823L385.928 339.643C385.928 339.643 386.885 335.504 387.926 329.65H381.754V329.658Z" fill="#CC6F49"/>
<path d="M382.317 338.841C382.317 338.841 384.477 340.267 386.108 338.841L386.449 339.789C386.748 340.616 386.901 341.487 386.901 342.366V342.631L375.564 342.639C375.564 341.82 376.077 341.094 376.845 340.813L382.317 338.841Z" fill="#0B334C"/>
<path d="M399.494 329.658L400.57 339.917L404.096 339.652C404.096 339.652 404.881 335.521 405.743 329.658H399.494Z" fill="#CC6F49"/>
<path d="M400.536 338.833C400.536 338.833 402.696 340.258 404.326 338.833L404.668 339.78C404.967 340.608 405.12 341.478 405.12 342.357V342.622H393.783C393.783 341.803 394.295 341.077 395.064 340.796L400.536 338.833Z" fill="#0B334C"/>
<path d="M378.766 228.09C378.63 228.406 378.51 228.73 378.374 229.046C376.478 233.476 374.361 237.777 371.817 241.737C369.239 245.714 366.209 249.554 363.007 253.275C361.411 255.136 359.755 256.971 358.073 258.78C356.408 260.589 354.65 262.382 352.934 264.097L352.891 264.14C352.088 264.942 352.088 266.239 352.891 267.033C353.617 267.75 354.735 267.826 355.537 267.246C359.72 264.225 363.63 261.008 367.395 257.508C368.343 256.638 369.256 255.742 370.178 254.846C371.083 253.924 371.997 253.019 372.876 252.063C374.669 250.194 376.35 248.189 377.981 246.106C379.62 244.007 381.08 241.788 382.463 239.552C383.82 237.299 385.058 234.995 386.228 232.665C386.544 232.025 386.834 231.376 387.133 230.727C384.298 229.993 381.498 229.157 378.766 228.09Z" fill="#CC6F49"/>
<path d="M353.351 264.08C353.351 264.08 349.51 264.805 349.45 265.386C349.39 265.966 351.285 266.282 351.285 266.282C351.285 266.282 348.084 269.141 348.306 269.627C348.528 270.105 351.268 267.963 351.268 267.963C351.268 267.963 349.39 270.156 349.663 270.677C349.928 271.198 352.404 268.467 352.404 268.467C352.404 268.467 351.055 271.078 351.601 271.402C352.148 271.727 353.607 268.501 353.607 268.501C353.607 268.501 353.078 270.523 353.505 270.685C353.932 270.848 355.998 266.546 355.998 266.546L353.351 264.08Z" fill="#CC6F49"/>
<path d="M391.357 221.374C391.28 221.596 391.204 221.818 391.127 222.039C389.402 226.802 386.713 232.562 386.713 232.562L386.346 232.426L383.794 231.453L382.393 230.915H382.385L382.325 230.89L378.253 229.336L377.895 229.2C377.895 229.2 378.458 227.86 379.201 226.008C379.209 225.999 379.209 225.999 379.209 225.999C379.721 224.728 380.319 223.226 380.891 221.749C380.942 221.604 381.002 221.451 381.062 221.305C381.25 220.81 381.429 220.324 381.6 219.855C381.608 219.846 381.617 219.829 381.617 219.82C381.881 219.104 382.129 218.421 382.325 217.823C382.513 217.294 382.658 216.825 382.769 216.441C383.102 215.238 383.819 214.358 384.639 213.701C385.766 212.797 387.097 212.327 387.934 212.071C387.951 212.063 387.968 212.063 387.985 212.054C387.994 212.054 388.002 212.054 388.002 212.046C388.199 211.986 388.369 211.943 388.497 211.901C388.506 211.901 388.514 211.892 388.523 211.892C388.54 211.884 388.566 211.884 388.591 211.875H388.617C389.624 211.738 391.408 213.539 392.262 215.681C392.271 215.698 392.271 215.707 392.271 215.715C392.33 215.852 392.382 215.989 392.424 216.125C392.433 216.142 392.433 216.159 392.441 216.176C392.698 216.97 392.177 219.001 391.357 221.374Z" fill="#FCB13A"/>
<path d="M397.292 212.395C396.6 213.42 395.926 214.196 395.277 214.768C394.935 215.075 394.594 215.314 394.27 215.51C393.962 215.698 393.655 215.835 393.365 215.937C393.04 216.04 392.733 216.099 392.426 216.125C392.34 216.133 392.246 216.133 392.161 216.133C391.743 216.133 391.35 216.065 390.983 215.929C390.411 215.741 389.89 215.434 389.429 215.058C389.403 215.05 389.386 215.033 389.369 215.015C388.866 214.606 388.447 214.145 388.106 213.718C387.935 213.496 387.781 213.283 387.662 213.095C387.483 212.839 387.363 212.634 387.295 212.515C387.252 212.438 387.227 212.395 387.227 212.395H387.286C387.355 212.395 387.423 212.395 387.483 212.387C387.892 212.336 388.251 212.156 388.524 211.892C388.558 211.866 388.584 211.841 388.61 211.807L388.618 211.798C388.9 211.482 389.071 211.064 389.071 210.612V202.427H395.507V204.74C395.507 204.749 395.507 204.749 395.507 204.749V210.612C395.507 210.945 395.601 211.26 395.764 211.533C395.883 211.738 396.054 211.917 396.25 212.054C396.378 212.156 396.532 212.233 396.686 212.284C396.873 212.361 397.078 212.395 397.292 212.395Z" fill="#CC6F49"/>
<path d="M395.507 204.749V204.953C395.208 205.585 394.901 206.105 394.602 206.464C393.381 207.983 391.401 208.615 390.009 208.888C389.694 208.947 389.386 208.965 389.07 208.939V207.582C389.557 207.701 390.078 207.727 390.581 207.625C391.973 207.36 393.953 206.72 395.183 205.201C395.285 205.073 395.396 204.919 395.507 204.749Z" fill="#0B334C"/>
<path d="M399.434 230.284C398.948 232.229 398.709 233.8 399.067 234.551C400.126 236.744 401.005 238.724 401.005 238.724H380.508C380.508 238.724 381.626 237.41 382.557 235.6C382.992 234.747 383.393 233.791 383.615 232.81V232.801C383.718 232.357 383.786 231.905 383.795 231.453C383.82 230.864 383.76 230.292 383.581 229.737C383.573 229.712 383.564 229.686 383.556 229.661C382.54 226.656 381.14 224.122 380.909 221.988C380.901 221.903 380.892 221.826 380.892 221.749C380.849 221.203 380.9 220.682 381.054 220.187C381.259 219.539 381.72 218.711 382.326 217.823C383.18 216.586 384.324 215.237 385.459 214.111C385.63 213.94 385.801 213.778 385.963 213.633C386.424 213.206 386.868 212.831 387.295 212.515C387.354 212.472 387.423 212.43 387.482 212.387C387.653 212.259 387.824 212.157 387.986 212.054C387.995 212.054 388.003 212.054 388.003 212.046C388.054 212.02 388.097 211.994 388.14 211.977L388.165 211.96L388.626 211.747L388.618 211.798V211.875C388.584 212.336 388.558 213.957 389.395 215.016C389.403 215.033 389.412 215.041 389.429 215.058C389.753 215.468 390.214 215.784 390.863 215.912C390.906 215.92 390.948 215.929 390.983 215.929C391.435 215.997 391.862 215.903 392.272 215.715C392.289 215.707 392.306 215.698 392.314 215.69C394.141 214.811 395.541 211.943 395.721 211.568L395.712 211.61C395.686 211.747 395.721 211.994 396.207 212.165C396.327 212.216 396.489 212.25 396.685 212.285C396.89 212.31 397.129 212.336 397.428 212.336C397.496 212.344 397.565 212.344 397.641 212.344C398.384 212.344 399.118 212.498 399.767 212.856C401.039 213.565 402.806 215.092 402.601 218.062C402.601 218.131 402.593 218.199 402.584 218.276C402.294 221.101 400.757 225.487 399.759 229.072C399.716 229.251 399.665 229.422 399.622 229.601C399.554 229.831 399.494 230.062 399.434 230.284Z" fill="#FCB13A"/>
<path d="M406.485 301.981C408.44 311.761 407.876 323.129 406.912 331.638H397.649L391.588 271.718L391.562 271.445L391.545 271.744L389.547 302.066C391.033 310.225 389.949 322.489 388.719 331.638H380.379C379.406 315.653 377.698 287.78 376.605 271.061C376.605 271.027 376.597 271.001 376.597 270.967C376.409 268.048 376.23 265.471 376.085 263.363C375.914 260.854 375.777 259.01 375.684 258.02C375.436 255.306 375.905 252.089 376.691 248.863C376.827 248.3 376.973 247.736 377.126 247.182C377.749 244.894 378.501 242.658 379.235 240.636C379.423 240.124 379.602 239.637 379.79 239.159C380.319 237.743 380.831 236.471 381.25 235.43C381.753 234.158 382.129 233.228 382.265 232.758C382.394 232.315 382.402 231.666 382.325 230.889C382.325 230.864 382.317 230.83 382.317 230.804V230.796C382.265 230.326 382.189 229.806 382.086 229.268C381.83 227.928 381.454 226.443 381.087 225.163C380.797 224.113 380.737 223.029 380.908 221.988C380.951 221.758 380.993 221.527 381.062 221.305C381.19 220.802 381.369 220.315 381.6 219.854C381.608 219.846 381.617 219.829 381.617 219.82C381.787 219.487 381.984 219.163 382.206 218.856L385.595 214.145L385.962 213.633L386.653 212.669L387.225 212.395H387.234L387.934 212.071L388.139 211.977L388.165 211.96L388.626 211.747L388.617 211.798L388.608 211.807L388.591 211.875L388.105 213.718L387.857 214.666L386.21 220.913L391.357 221.374L392.092 221.442L394.055 216.091L394.268 215.51L395.711 211.61L395.72 211.568L395.737 211.525L395.762 211.533L397.444 212.225L397.427 212.336L397.239 213.343L396.642 216.688L395.6 222.492L398.81 229.012L399.092 229.575L399.433 230.283L401.627 234.738C401.627 234.738 401.883 235.507 402.379 236.949C403.497 240.183 405.785 246.789 408.943 255.656C413.502 268.466 406.485 301.981 406.485 301.981Z" fill="#0B334C"/>
<path d="M387.832 212.489L385.135 221.57L392.639 222.159L396.327 211.823" stroke="white" stroke-width="0.3084" stroke-miterlimit="10" stroke-linecap="round" stroke-linejoin="round"/>
<path d="M388.686 273.416L394.747 269.866" stroke="white" stroke-width="0.3084" stroke-miterlimit="10" stroke-linecap="round" stroke-linejoin="round"/>
<path d="M390.205 248.479H405.606" stroke="white" stroke-width="0.3084" stroke-miterlimit="10" stroke-linecap="round" stroke-linejoin="round"/>
<path d="M400.672 248.547C400.672 248.547 401.201 260.256 407.322 260.854" stroke="white" stroke-width="0.3084" stroke-miterlimit="10" stroke-linecap="round" stroke-linejoin="round"/>
<path d="M403.43 248.547C403.43 248.547 407.707 257.756 407.442 262.893C407.177 268.023 404.147 302.706 404.147 302.706V330.008" stroke="white" stroke-width="0.3084" stroke-miterlimit="10" stroke-linecap="round" stroke-linejoin="round"/>
<path d="M389.745 272.631L388.234 302.041C388.234 302.041 387.85 316.199 386.928 330.418" stroke="white" stroke-width="0.3084" stroke-miterlimit="10" stroke-linecap="round" stroke-linejoin="round"/>
<path d="M361.498 198.752L303.775 236.186L341.221 293.891L398.943 256.457L361.498 198.752Z" fill="white"/>
<path d="M359.527 207.974L312.998 238.149L343.182 284.664L389.711 254.489L359.527 207.974Z" fill="#8EE4FD"/>
<path d="M384.263 246.064L389.736 254.496L343.201 284.673L334.988 272.017C336.602 267.152 339.598 262.689 343.961 260.06C347.649 257.833 352.002 257.056 356.245 256.314C363.596 255.033 375.573 248.786 384.263 246.064Z" fill="#2CD0D1"/>
<path d="M355.972 229.541C357.764 232.306 356.979 236.002 354.213 237.794C351.447 239.586 347.751 238.801 345.958 236.036C344.165 233.271 344.95 229.575 347.716 227.783C350.482 225.991 354.179 226.785 355.972 229.541Z" fill="#FCB13A"/>
<path d="M361.547 198.74L303.846 236.189L341.092 293.967L399.015 256.587L361.547 198.74Z" stroke="#0B334C" stroke-width="0.3084" stroke-miterlimit="10" stroke-linecap="round" stroke-linejoin="round"/>
<path d="M394.286 228.406C394.286 229.499 394.278 230.583 394.252 231.666C394.209 233.339 394.132 235.003 394.021 236.659C391.272 236.531 388.489 236.292 385.715 235.985C383.273 235.712 380.832 235.387 378.382 235.012C375.94 234.653 373.473 234.21 371.091 233.766L371.031 233.757C371.014 233.757 370.997 233.749 370.98 233.757C370.22 233.023 368.462 231.402 368.061 231.624C367.548 231.905 368.351 233.646 368.351 233.646C368.351 233.646 364.185 232.622 363.912 233.066C363.638 233.518 366.951 234.568 366.951 234.568C366.951 234.568 364.082 234.252 363.801 234.773C363.519 235.294 367.173 235.789 367.173 235.789C367.173 235.789 364.253 236.147 364.296 236.778C364.33 237.41 367.83 236.796 367.83 236.796C367.83 236.796 365.858 237.495 365.969 237.939C366.054 238.281 368.863 237.931 370.152 237.751C374.933 239.467 379.739 240.858 384.691 241.984C385.945 242.283 387.209 242.531 388.472 242.787C389.736 243.017 390.999 243.265 392.288 243.435C392.621 243.487 392.954 243.538 393.287 243.58C394.115 243.708 395.353 243.836 396.6 243.964C399.161 244.212 401.508 242.471 401.961 239.945C401.961 239.928 401.969 239.919 401.969 239.902C402.149 238.818 402.302 237.726 402.43 236.642C402.627 235.123 402.78 233.621 402.9 232.119C402.985 231.12 403.028 230.113 403.079 229.115C400.117 229.2 397.095 228.944 394.286 228.406Z" fill="#CC6F49"/>
<path d="M403.591 217.422C403.591 217.815 403.566 218.122 403.566 218.276C403.566 219.198 403.241 229.729 403.241 229.729L403.036 229.72L399.622 229.601L399.092 229.575L394.286 229.405L394.021 229.396C394.021 229.396 395.02 221.988 396.318 216.612C396.608 215.374 396.924 214.248 397.24 213.343C397.377 212.967 397.505 212.635 397.641 212.344C403.045 212.251 403.574 215.698 403.591 217.422Z" fill="#FCB13A"/>
<path d="M399.109 200.524C398.776 201.326 397.606 202.248 396.718 202.18C396.326 203.195 395.916 204.1 395.506 204.74C395.506 204.749 395.506 204.749 395.506 204.749C395.395 204.919 395.284 205.073 395.182 205.201C393.953 206.72 391.972 207.36 390.58 207.625C390.068 207.727 389.556 207.71 389.069 207.591C388.557 207.463 388.071 207.215 387.661 206.857C386.91 206.217 386.013 205.303 385.433 204.151C385.159 203.639 384.963 203.085 384.861 202.479C384.809 202.171 384.792 201.796 384.801 201.378C384.827 199.867 385.194 197.768 385.646 195.745C386.414 192.246 389.949 190.104 393.406 191.025C396.607 191.87 398.571 195.02 398.008 198.186C398.05 198.203 398.101 198.211 398.144 198.228C399.041 198.595 399.476 199.62 399.109 200.524Z" fill="#CC6F49"/>
<path d="M391.408 202.658C391.408 203.486 392.074 204.151 392.902 204.151C393.73 204.151 394.396 203.486 394.396 202.658C394.396 201.83 393.73 201.164 392.902 201.164C392.074 201.164 391.408 201.83 391.408 202.658Z" fill="#C4533A"/>
<path d="M387.055 202.658C387.055 203.486 386.389 204.16 385.561 204.16C385.518 204.16 385.475 204.16 385.433 204.151C385.159 203.639 384.963 203.085 384.861 202.479C384.809 202.171 384.792 201.796 384.801 201.378C385.023 201.241 385.279 201.164 385.561 201.164C386.389 201.164 387.055 201.83 387.055 202.658Z" fill="#C4533A"/>
<path d="M389.461 199.261C389.718 199.824 389.589 200.456 389.487 200.968C389.427 201.232 389.359 201.497 389.359 201.685C389.359 201.873 389.521 202.111 389.692 202.35C389.419 202.291 389.086 202.163 388.941 201.796C388.813 201.437 388.898 201.13 388.941 200.857C389.077 200.294 389.282 199.824 389.461 199.261Z" fill="#0B334C"/>
<path d="M390.915 197.494C391.291 197.307 391.709 197.29 392.11 197.418C392.315 197.477 392.503 197.588 392.657 197.733C392.819 197.87 392.913 198.058 392.99 198.237C393.015 198.297 392.99 198.365 392.93 198.391C392.887 198.408 392.836 198.399 392.802 198.365L392.793 198.356C392.554 198.109 392.29 197.964 391.982 197.913C391.683 197.87 391.359 197.896 391.043 197.913H391.009C390.89 197.921 390.787 197.827 390.787 197.716C390.796 197.614 390.847 197.537 390.915 197.494Z" fill="#0B334C"/>
<path d="M387.781 197.896C387.465 197.878 387.141 197.853 386.842 197.896C386.543 197.947 386.279 198.092 386.031 198.339L386.023 198.348C385.98 198.391 385.903 198.399 385.86 198.348C385.826 198.314 385.818 198.263 385.835 198.22C385.912 198.041 386.005 197.853 386.168 197.716C386.321 197.571 386.509 197.46 386.714 197.401C387.115 197.273 387.534 197.298 387.909 197.477C388.012 197.529 388.063 197.657 388.003 197.759C387.96 197.836 387.884 197.878 387.798 197.878L387.781 197.896Z" fill="#0B334C"/>
<path d="M387.14 200.994C387.451 200.994 387.703 200.589 387.703 200.089C387.703 199.589 387.451 199.184 387.14 199.184C386.828 199.184 386.576 199.589 386.576 200.089C386.576 200.589 386.828 200.994 387.14 200.994Z" fill="#0B334C"/>
<path d="M391.117 200.089C391.117 200.592 391.373 200.994 391.681 200.994C391.996 200.994 392.244 200.584 392.244 200.089C392.244 199.585 391.988 199.184 391.681 199.184C391.373 199.176 391.117 199.585 391.117 200.089Z" fill="#0B334C"/>
<path d="M390.768 203.511C390.904 203.426 391.049 203.392 391.177 203.315C391.322 203.281 391.442 203.204 391.587 203.136C391.519 203.289 391.365 203.358 391.229 203.434C391.075 203.477 390.93 203.537 390.768 203.511Z" fill="#0B334C"/>
<path d="M389.41 203.016C389.897 203.068 390.375 203.093 390.785 202.922C391.211 202.786 391.476 202.393 391.707 201.967C391.689 202.214 391.63 202.462 391.476 202.683C391.339 202.905 391.118 203.076 390.87 203.178C390.375 203.341 389.837 203.272 389.41 203.016Z" fill="#0B334C"/>
<path d="M405.435 210.305C404.982 208.128 404.18 205.952 402.404 204.612C402.882 202.931 402.857 201.087 402.225 199.449C401.593 197.819 400.483 196.351 398.887 195.642C399.058 194.396 395.08 186.835 387.046 190.317C385.228 191.102 384.374 193.27 384.622 195.574C383.358 196.692 382.693 198.382 382.573 200.063C382.454 201.753 382.829 203.434 383.375 205.039C383.683 205.926 384.05 206.865 384.451 207.719C383.794 208.308 383.41 209.178 383.341 210.057C383.273 210.936 383.495 211.824 383.905 212.609C384.101 213.001 384.349 213.368 384.639 213.701C385.766 212.797 387.098 212.327 387.934 212.071L388.139 211.977L388.165 211.96C388.327 211.875 388.481 211.798 388.626 211.747L388.617 211.798C388.899 211.482 389.07 211.064 389.07 210.612V207.591C388.557 207.463 388.071 207.215 387.661 206.857C386.91 206.217 386.013 205.303 385.433 204.151C385.16 203.639 384.963 203.084 384.861 202.479C384.81 202.171 384.793 201.796 384.801 201.378C384.818 200.277 385.023 198.868 385.305 197.409C386.082 197.435 387.738 197.281 389.394 195.728C389.394 195.728 390.034 199.602 394.695 199.176C394.695 199.176 394.414 201.096 395.404 201.241C396.147 201.343 397.419 199.261 398.025 198.194C398.068 198.211 398.11 198.22 398.153 198.237C399.049 198.604 399.485 199.628 399.118 200.533C398.785 201.335 397.615 202.257 396.727 202.188C396.335 203.204 395.925 204.109 395.515 204.749C395.515 204.757 395.515 204.757 395.515 204.757V210.62C395.515 210.953 395.609 211.269 395.771 211.542L397.453 212.233L397.436 212.344C397.504 212.353 397.572 212.353 397.649 212.353C403.053 212.259 403.582 215.707 403.599 217.431C404.573 216.091 405.461 214.657 405.648 213.036C405.742 212.114 405.623 211.201 405.435 210.305Z" fill="#0B334C"/>
</g>
<defs>
<linearGradient id="paint0_linear_126_12341" x1="315.801" y1="84.0654" x2="314.128" y2="112.614" gradientUnits="userSpaceOnUse">
<stop stop-color="#F20732"/>
<stop offset="1" stop-color="#FF928E"/>
</linearGradient>
<linearGradient id="paint1_linear_126_12341" x1="125.962" y1="222.666" x2="80.3927" y2="259.493" gradientUnits="userSpaceOnUse">
<stop stop-color="#F20732"/>
<stop offset="1" stop-color="#FF928E"/>
</linearGradient>
<linearGradient id="paint2_linear_126_12341" x1="410.201" y1="154.444" x2="366.838" y2="185.238" gradientUnits="userSpaceOnUse">
<stop stop-color="#F20732"/>
<stop offset="1" stop-color="#FF928E"/>
</linearGradient>
<clipPath id="clip0_126_12341">
<rect width="456" height="347" fill="white"/>
</clipPath>
</defs>
</svg>
