<svg width="488" height="296" viewBox="0 0 488 296" fill="none" xmlns="http://www.w3.org/2000/svg">
<path d="M478.35 267.813C477.107 270.094 475.858 272.118 474.685 273.875C474.651 273.927 474.616 273.979 474.58 274.03C471.189 279.085 465.498 282.112 459.415 282.112C426.812 282.11 314.282 282.106 279.206 282.094C279.206 282.094 95.2008 281.572 37.6412 281.384C26.3772 281.348 16.2073 274.675 11.6452 264.369C6.46254 252.669 0.844608 235.809 0.19375 216.702C-0.84198 186.386 10.6256 150.412 56.1715 120.402C95.3096 94.6146 53.7212 77.5912 84.8455 48.8821C120.61 15.8919 159.646 52.3888 199.421 37.4283C206.447 34.7866 213.498 30.5378 220.556 24.0144C224.532 20.3464 228.887 17.1401 233.547 14.3694C234.263 13.944 234.984 13.5286 235.713 13.1232C238.506 11.5745 241.4 10.1751 244.38 8.91477C246.383 8.07186 248.42 7.28946 250.502 6.57359C253.798 5.43426 257.19 4.45222 260.648 3.62142C265.56 2.43974 270.62 1.56054 275.774 0.96567C278.025 0.703524 280.294 0.501872 282.579 0.346601C327.019 -2.64389 377.032 14.1638 402.841 38.7249C408.036 43.6734 431.664 69.265 413.041 104.441C401.279 126.649 450.545 147.863 468.051 173.224C479.005 189.092 484.609 203.692 486.828 216.702C490.62 238.922 484.532 256.498 478.35 267.813Z" fill="url(#paint0_linear_126_12694)"/>
<path d="M166.475 216.763L165.52 216.64C165.542 216.469 166.108 212.405 170.11 209.873C173.646 207.634 172.437 200.637 172.425 200.566L173.372 200.395C173.386 200.472 173.713 202.319 173.558 204.499C173.348 207.463 172.334 209.602 170.622 210.687C167.001 212.98 166.479 216.725 166.475 216.763Z" fill="#283689"/>
<path d="M172.634 216.932C172.61 216.888 170.288 212.524 174.478 209.87C177.937 207.68 174.866 200.877 174.834 200.808L175.709 200.405C175.743 200.481 176.569 202.296 176.924 204.448C177.411 207.418 176.744 209.574 174.991 210.683C171.556 212.857 173.397 216.321 173.478 216.466L172.634 216.932Z" fill="#283689"/>
<path d="M478.398 278.123C478.318 278.305 478.239 278.484 478.156 278.664C477.995 279.023 477.834 279.375 477.673 279.722C476.591 282.059 475.513 284.161 474.491 286.014C474.457 286.078 474.423 286.139 474.386 286.203C470.995 292.334 465.305 296.002 459.219 296.002C446.285 296.002 420.772 296 392.507 295.998H388.655C373.25 295.996 357.168 295.995 341.968 295.991H337.426C312.974 295.989 291.266 295.985 279.012 295.979C279.012 295.979 217.392 295.768 154.316 295.546C153.248 295.542 152.18 295.538 151.112 295.534C132.751 295.467 114.351 295.403 97.4009 295.34C95.2065 295.332 93.0383 295.324 90.8964 295.318C69.1279 295.241 50.1906 295.169 37.4475 295.118C28.5249 295.084 20.2894 290 14.9838 281.678C14.7037 281.241 14.4337 280.793 14.1718 280.337C13.1239 278.522 12.2111 276.566 11.4515 274.491C6.26878 260.303 0.650857 239.864 0 216.702H486.636C490.376 243.288 484.496 264.391 478.398 278.123Z" fill="#8FA6EF"/>
<path d="M373.019 265.385H99.3789L126.959 237.271H348.984L373.019 265.385Z" fill="#505ABA"/>
<path d="M373.017 265.385H99.3789V268.977H373.017V265.385Z" fill="#2B478B"/>
<path d="M346.631 243.166H128.535V244.123H346.631V243.166Z" fill="#2B478B"/>
<path d="M352.481 249.04H121.143V249.999H352.481V249.04Z" fill="#2B478B"/>
<path d="M358.643 255.533H114.982V256.491H358.643V255.533Z" fill="#2B478B"/>
<path d="M139.502 238.836H129.643V241.796H139.502V238.836Z" fill="#2B478B"/>
<path d="M215.033 238.836H205.172V241.796H215.033V238.836Z" fill="#2B478B"/>
<path d="M230.891 238.836H221.029V241.796H230.891V238.836Z" fill="#2B478B"/>
<path d="M273.049 238.836H263.189V241.796H273.049V238.836Z" fill="#2B478B"/>
<path d="M287.713 238.836H277.852V241.796H287.713V238.836Z" fill="#2B478B"/>
<path d="M303.571 238.836H293.711V241.796H303.571V238.836Z" fill="#2B478B"/>
<path d="M474.736 216.702H472.8C468.429 210.308 464.641 210.012 457.298 209.441C455.039 209.267 452.478 209.068 449.48 208.662C442.792 207.763 440.593 204.172 438.048 200.012C436.896 198.128 435.707 196.18 433.968 194.212C428.63 188.169 416.63 189.933 416.51 189.951L416.262 188.356C416.79 188.275 429.253 186.434 435.175 193.141C437.007 195.218 438.292 197.318 439.425 199.169C441.943 203.288 443.765 206.263 449.695 207.061C452.647 207.459 455.184 207.654 457.421 207.83C465.406 208.449 469.682 208.779 474.736 216.702Z" fill="#2B478B"/>
<path d="M410.326 227.807H374.112C370.834 227.807 368.176 225.147 368.176 221.867V185.624C368.176 182.343 370.834 179.683 374.112 179.683H410.328C413.607 179.683 416.265 182.343 416.265 185.624V221.865C416.263 225.147 413.605 227.807 410.326 227.807Z" fill="#778DE8"/>
<path d="M408.702 202.663C408.702 203.526 408.635 204.375 408.508 205.204C408.478 205.406 408.442 205.605 408.401 205.805C408.129 207.229 407.672 208.588 407.059 209.856C407.001 209.977 406.941 210.098 406.878 210.217C405.806 212.304 404.299 214.131 402.479 215.585C402.38 215.664 402.282 215.742 402.181 215.817C400.329 217.229 398.165 218.257 395.814 218.781H395.811L395.388 218.872H395.386C394.79 218.989 394.185 219.074 393.567 219.122C393.365 219.14 393.166 219.154 392.964 219.16H392.962C392.71 219.177 392.454 219.181 392.201 219.181C390.443 219.181 388.751 218.904 387.161 218.394C386.913 218.315 386.669 218.233 386.425 218.14C385.857 217.93 385.305 217.688 384.769 217.414C384.648 217.354 384.529 217.293 384.41 217.231C382.115 215.999 380.149 214.24 378.666 212.119C378.593 212.016 378.518 211.911 378.448 211.806C377.43 210.276 376.661 208.566 376.197 206.733C376.135 206.483 376.076 206.231 376.026 205.974C375.899 205.355 375.808 204.726 375.754 204.085C375.742 203.926 375.728 203.766 375.722 203.607V203.605C375.703 203.292 375.693 202.978 375.693 202.663C375.693 200.945 375.955 199.292 376.441 197.733C376.483 197.596 376.53 197.459 376.576 197.322C377.348 195.053 378.603 193.008 380.213 191.304C380.302 191.214 380.386 191.123 380.479 191.034C382.107 189.387 384.08 188.084 386.284 187.237C386.411 187.187 386.536 187.14 386.665 187.096C388.396 186.479 390.26 186.144 392.201 186.144C393.129 186.144 394.04 186.221 394.927 186.37C395.084 186.396 395.239 186.422 395.396 186.457C395.507 186.477 395.618 186.499 395.729 186.525C395.946 186.574 396.162 186.624 396.378 186.682C398.759 187.302 400.936 188.445 402.771 189.979C402.87 190.06 402.965 190.141 403.062 190.227C405.002 191.925 406.54 194.069 407.517 196.499C407.569 196.622 407.618 196.747 407.664 196.872C408.067 197.945 408.361 199.074 408.532 200.241C408.565 200.459 408.593 200.679 408.613 200.899V200.901C408.669 201.478 408.702 202.066 408.702 202.663Z" fill="#E27227"/>
<path d="M402.479 215.583C402.38 215.662 402.282 215.741 402.181 215.815L399.982 213.363L399.731 213.083L395.213 208.039L394.961 207.759L389.861 202.069L389.609 201.788L384.573 196.168L384.322 195.886L380.213 191.304C380.302 191.214 380.386 191.123 380.479 191.034L384.604 195.636L384.856 195.916L389.891 201.536L390.143 201.816L395.243 207.507L395.495 207.787L400.015 212.831L400.265 213.111L402.479 215.583Z" fill="#1C3870"/>
<path d="M407.058 209.857C407 209.978 406.939 210.099 406.877 210.218L405.366 208.53L405.114 208.249L400.596 203.208L400.344 202.928L395.244 197.237L394.992 196.957L389.955 191.335L389.705 191.055L386.283 187.237C386.41 187.187 386.535 187.141 386.664 187.096L389.985 190.805L390.237 191.085L395.272 196.705L395.524 196.985L400.624 202.676L400.876 202.956L405.394 207.999L405.646 208.28L407.058 209.857Z" fill="#1C3870"/>
<path d="M408.526 200.238C408.558 200.455 408.587 200.675 408.607 200.895L406.183 198.193L405.933 197.913L400.829 192.22L400.579 191.94L395.723 186.525C395.94 186.574 396.156 186.624 396.371 186.683L400.859 191.69L401.111 191.97L406.211 197.663L406.461 197.943L408.526 200.238Z" fill="#1C3870"/>
<path d="M395.808 218.782L395.385 218.872H395.383L394.696 218.104L394.446 217.824L389.926 212.782L389.674 212.502L384.576 206.812L384.324 206.529L379.287 200.911L379.035 200.629L376.438 197.731C376.48 197.594 376.526 197.457 376.572 197.32L379.313 200.379L379.565 200.659L384.602 206.279L384.852 206.559L389.956 212.25L390.206 212.53L394.726 217.574L394.978 217.854L395.808 218.782Z" fill="#1C3870"/>
<path d="M395.39 186.455L390.233 191.085L389.951 191.335L384.851 195.916L384.571 196.168L379.566 200.659L379.285 200.911L375.749 204.083C375.737 203.924 375.723 203.765 375.717 203.605V203.603L379.034 200.629L379.314 200.379L384.319 195.886L384.599 195.636L389.703 191.054L389.983 190.804L394.922 186.37C395.077 186.394 395.234 186.423 395.39 186.455Z" fill="#1C3870"/>
<path d="M403.055 190.224L401.111 191.966L400.828 192.218L395.521 196.983L395.241 197.235L390.137 201.815L389.857 202.067L384.851 206.557L384.573 206.809L380.247 210.689L379.967 210.941L378.659 212.115C378.587 212.012 378.512 211.907 378.441 211.802L379.717 210.661L379.997 210.409L384.321 206.527L384.601 206.277L389.605 201.786L389.885 201.534L394.989 196.955L395.269 196.703L400.579 191.938L400.859 191.686L402.765 189.976C402.864 190.056 402.96 190.137 403.055 190.224Z" fill="#1C3870"/>
<path d="M407.658 196.868L406.465 197.939L406.185 198.191L400.877 202.954L400.597 203.206L395.493 207.786L395.213 208.038L390.208 212.528L389.927 212.78L385.603 216.66L385.323 216.912L384.765 217.412C384.644 217.352 384.525 217.291 384.406 217.229L385.069 216.632L385.349 216.38L389.674 212.5L389.956 212.248L394.957 207.757L395.237 207.505L400.341 202.926L400.621 202.674L405.931 197.911L406.211 197.659L407.509 196.495C407.563 196.618 407.611 196.743 407.658 196.868Z" fill="#1C3870"/>
<path d="M408.507 205.204C408.477 205.406 408.44 205.605 408.4 205.805L405.644 208.281L405.364 208.531L400.259 213.113L399.979 213.365L394.976 217.856L394.694 218.106L393.561 219.124C393.36 219.142 393.16 219.156 392.959 219.162L394.446 217.825L394.726 217.575L399.729 213.085L400.012 212.833L405.112 208.251L405.392 208.001L408.507 205.204Z" fill="#1C3870"/>
<path d="M387.155 218.396C386.907 218.318 386.663 218.235 386.419 218.142L385.321 216.916L385.069 216.636L379.969 210.945L379.719 210.665L376.193 206.733C376.13 206.483 376.072 206.231 376.021 205.975L379.999 210.413L380.249 210.693L385.349 216.384L385.601 216.664L387.155 218.396Z" fill="#1C3870"/>
<path d="M410.326 179.838H374.112C370.834 179.838 368.176 177.179 368.176 173.898V137.655C368.176 134.374 370.834 131.714 374.112 131.714H410.328C413.607 131.714 416.265 134.374 416.265 137.655V173.898C416.263 177.179 413.605 179.838 410.326 179.838Z" fill="#8C9DF4"/>
<path d="M408.702 154.694C408.702 155.557 408.635 156.406 408.508 157.235C408.478 157.437 408.442 157.636 408.401 157.836C408.129 159.26 407.672 160.619 407.059 161.887C407.001 162.008 406.941 162.129 406.878 162.248C405.806 164.335 404.299 166.162 402.479 167.616C402.38 167.695 402.282 167.774 402.181 167.848C400.329 169.26 398.165 170.288 395.814 170.814H395.811L395.388 170.905H395.386C394.79 171.022 394.185 171.107 393.567 171.155C393.365 171.173 393.166 171.187 392.964 171.194H392.962C392.71 171.21 392.454 171.214 392.201 171.214C390.443 171.214 388.751 170.937 387.161 170.427C386.913 170.349 386.669 170.266 386.425 170.173C385.857 169.963 385.305 169.721 384.769 169.449C384.648 169.389 384.529 169.328 384.41 169.266C382.115 168.034 380.149 166.275 378.666 164.154C378.593 164.051 378.518 163.946 378.448 163.841C377.43 162.311 376.661 160.601 376.197 158.768C376.135 158.518 376.076 158.266 376.026 158.01C375.899 157.39 375.808 156.761 375.754 156.12C375.742 155.961 375.728 155.801 375.722 155.642V155.64C375.703 155.328 375.693 155.013 375.693 154.698C375.693 152.98 375.955 151.327 376.441 149.768C376.483 149.631 376.53 149.492 376.576 149.357C377.348 147.088 378.603 145.043 380.213 143.341C380.302 143.251 380.386 143.16 380.479 143.071C382.107 141.424 384.08 140.121 386.284 139.274C386.411 139.224 386.536 139.179 386.665 139.133C388.396 138.516 390.26 138.181 392.201 138.181C393.129 138.181 394.04 138.258 394.927 138.407C395.084 138.433 395.239 138.459 395.396 138.492C395.507 138.512 395.618 138.534 395.729 138.56C395.946 138.609 396.162 138.659 396.378 138.718C398.759 139.337 400.936 140.48 402.771 142.013C402.87 142.093 402.965 142.174 403.062 142.261C405.002 143.958 406.54 146.102 407.517 148.532C407.569 148.655 407.618 148.78 407.664 148.905C408.067 149.978 408.361 151.107 408.532 152.275C408.565 152.492 408.593 152.712 408.613 152.932V152.934C408.669 153.509 408.702 154.098 408.702 154.694Z" fill="#E27227"/>
<path d="M402.479 167.616C402.38 167.695 402.282 167.774 402.181 167.848L399.982 165.396L399.731 165.116L395.213 160.073L394.961 159.792L389.861 154.102L389.609 153.821L384.573 148.201L384.322 147.919L380.213 143.338C380.302 143.247 380.386 143.156 380.479 143.067L384.604 147.669L384.856 147.949L389.891 153.569L390.143 153.85L395.243 159.54L395.495 159.821L400.015 164.864L400.265 165.144L402.479 167.616Z" fill="#1C3870"/>
<path d="M407.058 161.887C407 162.008 406.939 162.129 406.877 162.248L405.366 160.56L405.114 160.28L400.596 155.239L400.344 154.959L395.244 149.268L394.992 148.988L389.955 143.366L389.705 143.085L386.283 139.268C386.41 139.218 386.535 139.173 386.664 139.127L389.985 142.835L390.237 143.116L395.272 148.736L395.524 149.016L400.624 154.707L400.876 154.987L405.394 160.03L405.646 160.31L407.058 161.887Z" fill="#1C3870"/>
<path d="M408.526 152.268C408.558 152.486 408.587 152.706 408.607 152.926L406.183 150.224L405.933 149.943L400.829 144.251L400.579 143.97L395.723 138.556C395.94 138.605 396.156 138.655 396.371 138.713L400.859 143.718L401.111 143.999L406.211 149.691L406.461 149.972L408.526 152.268Z" fill="#1C3870"/>
<path d="M395.808 170.814L395.385 170.905H395.383L394.696 170.137L394.446 169.856L389.926 164.815L389.674 164.535L384.576 158.844L384.324 158.562L379.287 152.944L379.035 152.662L376.438 149.764C376.48 149.627 376.526 149.488 376.572 149.353L379.313 152.412L379.565 152.692L384.602 158.312L384.852 158.592L389.956 164.283L390.206 164.563L394.726 169.606L394.978 169.887L395.808 170.814Z" fill="#1C3870"/>
<path d="M395.39 138.486L390.233 143.116L389.951 143.366L384.851 147.947L384.571 148.199L379.566 152.69L379.285 152.942L375.749 156.114C375.737 155.955 375.723 155.795 375.717 155.636V155.634L379.034 152.66L379.314 152.41L384.319 147.917L384.599 147.667L389.703 143.085L389.983 142.835L394.922 138.399C395.077 138.425 395.234 138.453 395.39 138.486Z" fill="#1C3870"/>
<path d="M403.055 142.255L401.111 143.997L400.828 144.249L395.521 149.016L395.241 149.268L390.137 153.848L389.857 154.1L384.851 158.591L384.573 158.843L380.247 162.722L379.967 162.974L378.659 164.15C378.587 164.047 378.512 163.942 378.441 163.838L379.717 162.696L379.997 162.444L384.321 158.562L384.601 158.312L389.605 153.821L389.885 153.569L394.989 148.99L395.269 148.738L400.579 143.973L400.859 143.721L402.765 142.011C402.864 142.087 402.96 142.17 403.055 142.255Z" fill="#1C3870"/>
<path d="M407.658 148.901L406.465 149.972L406.185 150.224L400.877 154.987L400.597 155.239L395.493 159.818L395.213 160.07L390.208 164.561L389.927 164.813L385.603 168.693L385.323 168.945L384.765 169.445C384.644 169.385 384.525 169.324 384.406 169.262L385.069 168.665L385.349 168.413L389.674 164.533L389.956 164.281L394.957 159.79L395.237 159.538L400.341 154.958L400.621 154.706L405.931 149.943L406.211 149.691L407.509 148.528C407.563 148.651 407.611 148.774 407.658 148.901Z" fill="#1C3870"/>
<path d="M408.507 157.235C408.477 157.437 408.44 157.637 408.4 157.836L405.644 160.311L405.364 160.561L400.259 165.142L399.979 165.394L394.976 169.885L394.694 170.135L393.561 171.153C393.36 171.171 393.16 171.186 392.959 171.192L394.446 169.855L394.726 169.605L399.729 165.114L400.012 164.862L405.112 160.28L405.392 160.03L408.507 157.235Z" fill="#1C3870"/>
<path d="M387.155 170.427C386.907 170.348 386.663 170.266 386.419 170.173L385.321 168.947L385.069 168.667L379.969 162.976L379.719 162.696L376.193 158.764C376.13 158.514 376.072 158.261 376.021 158.005L379.999 162.444L380.249 162.724L385.349 168.415L385.601 168.695L387.155 170.427Z" fill="#1C3870"/>
<path d="M398.695 258.504L424.203 235.536C425.243 234.601 428.08 233.957 430.543 234.099L463.269 235.994C465.729 236.137 466.882 237.01 465.842 237.948L440.334 260.916C439.294 261.852 436.457 262.495 433.996 262.354L401.27 260.458C398.808 260.315 397.655 259.442 398.695 258.504Z" fill="#1B376D"/>
<path d="M466.225 236.867V234.081L398.947 255.738L398.365 256.339L398.312 259.291L428.038 260.261L466.225 236.867Z" fill="#1B376D"/>
<path d="M430.077 231.219L462.245 233.083C464.826 233.232 466.035 234.149 464.945 235.131L440.966 256.722C439.396 258.136 435.11 259.108 431.394 258.892L402.569 257.222C399.833 257.063 398.553 256.091 399.708 255.05L424.864 232.401C425.72 231.631 428.054 231.102 430.077 231.219Z" fill="#505ABA"/>
<path d="M466.215 234.085C466.106 233.482 465.016 233.016 463.269 232.913L430.542 231.017C428.08 230.872 425.245 231.518 424.205 232.453L398.697 255.419C398.338 255.742 398.237 256.057 398.366 256.337V256.339C398.544 256.728 399.154 257.053 400.105 257.236H400.107C400.452 257.301 400.841 257.349 401.268 257.375L430.029 259.041H430.031L433.994 259.271C436.454 259.414 439.294 258.769 440.331 257.835L458.064 241.868L458.066 241.866L464.431 236.135L465.842 234.867C466.102 234.631 466.225 234.403 466.225 234.187C466.225 234.151 466.221 234.119 466.215 234.085ZM464.711 234.798L463.375 236L463.373 236.002L454.322 244.157L454.308 244.169L439.542 257.46L439.539 257.462L439.259 257.714L439.257 257.716L439.199 257.769C438.423 258.468 436.303 258.946 434.468 258.839L434.335 258.833H434.325L430.708 258.622L401.741 256.944C401.306 256.918 400.923 256.861 400.605 256.78C399.585 256.526 399.229 256.02 399.819 255.486L399.877 255.437L399.882 255.433L400.162 255.181L425.329 232.518C426.105 231.822 428.227 231.342 430.063 231.449L462.785 233.343C464.347 233.433 465.203 233.919 464.947 234.492C464.911 234.593 464.83 234.692 464.711 234.798Z" fill="#2B478B"/>
<path d="M400.761 257.117L434.07 259.047C436.308 259.176 438.888 258.591 439.835 257.741L440.107 257.497L399.598 255.151L398.944 255.74C398.21 256.4 399.024 257.017 400.761 257.117Z" fill="#2B478B"/>
<path d="M478.397 278.123C478.317 278.305 478.238 278.484 478.156 278.664C477.994 279.023 477.833 279.376 477.672 279.722C471.518 279.67 463.692 280.204 455.555 280.761C434.506 282.199 412.745 283.685 405.797 276.932C403.5 274.693 402.676 272.326 403.347 269.888C404.397 266.081 408.899 262.967 412.3 261.098C412.3 261.096 412.302 261.096 412.302 261.096C413.253 260.572 414.122 260.146 414.805 259.829H414.807C415.639 259.442 416.197 259.216 416.294 259.18L416.763 259.894L417.233 260.61C417.209 260.62 416.61 260.86 415.695 261.295C412.749 262.689 406.511 266.079 405.366 270.227C404.824 272.197 405.487 274.06 407.403 275.925C413.664 282.011 435.826 280.497 455.376 279.162C463.859 278.579 472.008 278.022 478.397 278.123Z" fill="#1B376D"/>
<path d="M356.914 59.749H115.484V201.587H356.914V59.749Z" fill="#F99746"/>
<path d="M356.914 59.749H115.484V178.927H356.914V59.749Z" fill="#283689"/>
<path d="M267.797 224.694V228.14H196.908V224.694C201.918 224.694 206.02 220.824 206.399 215.912C206.417 215.666 206.427 215.418 206.427 215.168V201.588H258.278V215.168C258.278 215.418 258.288 215.666 258.306 215.912C258.486 218.245 259.507 220.344 261.065 221.905C262.788 223.627 265.168 224.694 267.797 224.694Z" fill="#F99746"/>
<g opacity="0.7">
<path opacity="0.7" d="M258.279 201.586H206.428V204.424H258.279V201.586Z" fill="#D86713"/>
</g>
<g opacity="0.7">
<path opacity="0.7" d="M267.797 224.694H196.908C201.918 224.694 206.02 220.824 206.399 215.912H258.306C258.486 218.245 259.507 220.344 261.065 221.905C262.788 223.627 265.168 224.694 267.797 224.694Z" fill="#D86713"/>
</g>
<path d="M63.461 181.202C63.461 181.202 60.9483 158.883 70.5983 140.077C71.6219 138.083 74.1609 138.585 74.58 140.867C76.0812 149.05 77.5764 165.394 70.6608 182.759C60.8193 207.469 63.461 181.202 63.461 181.202Z" fill="#A8D29F"/>
<path d="M74.9851 185.614C74.9851 185.614 76.5609 163.21 89.4612 146.467C90.8294 144.693 93.2353 145.646 93.2333 147.967C93.2252 156.286 91.7321 172.631 81.7818 188.451C67.6242 210.965 74.9851 185.614 74.9851 185.614Z" fill="#A8D29F"/>
<path d="M68.5668 181.151C68.5668 181.151 68.6132 158.691 80.3407 141.107C81.584 139.242 84.0504 140.033 84.2055 142.348C84.7637 150.648 84.3909 167.056 75.5409 183.519C62.9509 206.947 68.5668 181.151 68.5668 181.151Z" fill="#82B378"/>
<path d="M76.1468 182.287C76.1468 182.287 80.5759 165.322 92.8797 154.33C94.1834 153.164 95.8942 154.243 95.5577 156.024C94.3567 162.406 90.8626 174.733 80.9527 185.442C66.8555 200.681 76.1468 182.287 76.1468 182.287Z" fill="#82B378"/>
<path d="M59.5917 183.817C59.5917 183.817 62.1044 161.498 52.4544 142.692C51.4308 140.698 48.8918 141.2 48.4727 143.483C46.9715 151.666 45.4763 168.01 52.392 185.374C62.2334 210.084 59.5917 183.817 59.5917 183.817Z" fill="#A8D29F"/>
<path d="M48.0685 188.229C48.0685 188.229 46.4927 165.826 33.5925 149.083C32.2243 147.308 29.8183 148.262 29.8203 150.583C29.8284 158.901 31.3215 175.247 41.2718 191.067C55.4294 213.581 48.0685 188.229 48.0685 188.229Z" fill="#A8D29F"/>
<path d="M54.4853 183.767C54.4853 183.767 54.439 161.307 42.7114 143.723C41.4682 141.857 39.0018 142.648 38.8466 144.963C38.2884 153.263 38.6632 169.671 47.5113 186.134C60.1012 209.562 54.4853 183.767 54.4853 183.767Z" fill="#82B378"/>
<path d="M67.5483 184.977C67.5483 184.977 71.7799 162.92 63.6149 143.421C62.7485 141.354 60.1773 141.658 59.5848 143.901C57.455 151.942 54.6984 168.121 60.2518 185.971C68.1508 211.369 67.5483 184.977 67.5483 184.977Z" fill="#82B378"/>
<path d="M46.905 184.902C46.905 184.902 42.4759 167.937 30.1721 156.945C28.8684 155.78 27.1576 156.859 27.4941 158.639C28.6951 165.022 32.1892 177.348 42.0991 188.058C56.1963 203.297 46.905 184.902 46.905 184.902Z" fill="#82B378"/>
<path d="M74.0253 221.869H49.8328C39.7858 221.869 31.5645 213.641 31.5645 203.587V181.508C31.5645 180.98 31.9957 180.548 32.5236 180.548H92.2957V203.585C92.2957 213.641 84.0743 221.869 74.0253 221.869Z" fill="#2B478B"/>
<path d="M353.309 62.8887H118.615V174.434H353.309V62.8887Z" fill="#505ABA"/>
<g opacity="0.1">
<path opacity="0.1" d="M174.466 68.0352H124.145V118.394H174.466V68.0352Z" fill="#DDE7FE"/>
</g>
<g opacity="0.1">
<path opacity="0.1" d="M174.466 123.939H124.145V169.819H174.466V123.939Z" fill="#DDE7FE"/>
</g>
<g opacity="0.1">
<path opacity="0.1" d="M346.286 129.712H184.215V169.817H346.286V129.712Z" fill="#DDE7FE"/>
</g>
<path d="M287.81 68.0352H184.217V124.77H287.81V68.0352Z" fill="#EBF2F9"/>
<path d="M282.885 83.5139V124.768H184.217V93.9635H187.902V95.8751H190.931V94.764H193.738V90.3599H195.136V88.3051H195.348V90.3599H198.703V86.5084H199.033V90.3599H201.252V90.3055H201.248V89.8175H201.252V89.3557H201.248V88.5854H201.252V88.0934H201.248V87.3251H201.252V86.8331H201.248V86.0648H201.252V85.5324H201.248V84.7621H201.252V84.0886H201.248V83.3183H201.252V82.8101H201.913V82.2334H202.02V82.8101H206.92V82.2334H207.025V82.8101H207.92V86.8371L208.548 86.8391V86.8371H208.544V86.0688H208.548V85.5364H208.544V84.7661H208.548V84.2378H208.544V83.4695H208.548V83.4655H214.489V83.4695H215.512C215.565 83.4897 215.617 83.5099 215.67 83.528V87.922H220.01V93.6932H223.518V83.0198H224.282V82.2737H224.419V83.0198H227.189V82.2737H227.327V83.0198H231.25V82.2737H231.387V83.0198H233.855V82.2737H233.992V83.0198H235.008V92.9814H238.885V91.3722L243.457 91.3864V88.775H244.378V88.2608H244.499V88.775H248.029V88.777H248.736V88.2608H248.857V88.777H249.708V93.9675H255.152V95.8791H258.179V94.768H260.986V90.3599H262.386V88.3051H262.596V90.3599H265.951V86.5084H266.279V90.3599H268.498V90.3055H268.494V89.8175H268.498V89.3557H268.494V88.5854H268.498V88.0934H268.494V87.3251H268.498V86.8331H268.494V86.0648H268.498V85.5324H268.494V84.7621H268.498V84.0886H268.494V83.3183H268.498V82.8101H269.161V82.2334H269.268V82.8101H274.166V82.2334H274.273V82.8101H275.166V86.8371L275.786 86.8391H275.796V86.8371H275.79V86.0688H275.796V85.5364H275.79V84.7661H275.796V84.2378H275.79V83.4695H275.796V83.4655H281.737V83.4695H282.758C282.796 83.4796 282.839 83.4978 282.885 83.5139Z" fill="#D5E5FB"/>
<path d="M235.004 83.0181H226.238V84.7059H235.004V83.0181Z" fill="#E2EEFD"/>
<path d="M272.594 82.8062H268.506V83.8305H272.594V82.8062Z" fill="#E2EEFD"/>
<path d="M272.594 84.3853H268.506V85.4117H272.594V84.3853Z" fill="#E2EEFD"/>
<path d="M272.594 85.9961H268.506V87.0225H272.594V85.9961Z" fill="#E2EEFD"/>
<path d="M272.594 87.6338H268.506V88.6582H272.594V87.6338Z" fill="#E2EEFD"/>
<path d="M272.594 89.2124H268.506V90.2388H272.594V89.2124Z" fill="#E2EEFD"/>
<path d="M272.594 90.9507H268.506V91.9771H272.594V90.9507Z" fill="#E2EEFD"/>
<path d="M272.594 92.5298H268.506V93.5542H272.594V92.5298Z" fill="#E2EEFD"/>
<path d="M272.594 94.1406H268.506V95.167H272.594V94.1406Z" fill="#E2EEFD"/>
<path d="M272.594 95.7783H268.506V96.8027H272.594V95.7783Z" fill="#E2EEFD"/>
<path d="M272.594 97.3569H268.506V98.3813H272.594V97.3569Z" fill="#E2EEFD"/>
<path d="M205.59 82.8062H201.207V83.8305H205.59V82.8062Z" fill="#E2EEFD"/>
<path d="M205.59 84.3853H201.207V85.4117H205.59V84.3853Z" fill="#E2EEFD"/>
<path d="M205.59 85.9961H201.207V87.0225H205.59V85.9961Z" fill="#E2EEFD"/>
<path d="M205.59 87.6338H201.207V88.6582H205.59V87.6338Z" fill="#E2EEFD"/>
<path d="M205.59 89.2124H201.207V90.2388H205.59V89.2124Z" fill="#E2EEFD"/>
<path d="M205.59 90.9507H201.207V91.9771H205.59V90.9507Z" fill="#E2EEFD"/>
<path d="M205.59 92.5298H201.207V93.5542H205.59V92.5298Z" fill="#E2EEFD"/>
<path d="M205.59 94.1406H201.207V95.167H205.59V94.1406Z" fill="#E2EEFD"/>
<path d="M205.59 95.7783H201.207V96.8027H205.59V95.7783Z" fill="#E2EEFD"/>
<path d="M205.59 97.3569H201.207V98.3813H205.59V97.3569Z" fill="#E2EEFD"/>
<path d="M213.61 83.4795H208.629V84.5059H213.61V83.4795Z" fill="#E2EEFD"/>
<path d="M213.61 85.0586H208.629V86.083H213.61V85.0586Z" fill="#E2EEFD"/>
<path d="M213.61 86.6694H208.629V87.6938H213.61V86.6694Z" fill="#E2EEFD"/>
<path d="M213.61 88.3052H208.629V89.3316H213.61V88.3052Z" fill="#E2EEFD"/>
<path d="M213.61 89.8857H208.629V90.9102H213.61V89.8857Z" fill="#E2EEFD"/>
<path d="M213.61 91.5317H208.629V92.5581H213.61V91.5317Z" fill="#E2EEFD"/>
<path d="M213.61 93.1108H208.629V94.1352H213.61V93.1108Z" fill="#E2EEFD"/>
<path d="M213.61 94.7217H208.629V95.7461H213.61V94.7217Z" fill="#E2EEFD"/>
<path d="M213.61 96.3594H208.629V97.3858H213.61V96.3594Z" fill="#E2EEFD"/>
<path d="M213.61 97.938H208.629V98.9644H213.61V97.938Z" fill="#E2EEFD"/>
<path d="M274.041 79.2573H273.656L273.66 79.227L273.777 78.1986C273.781 78.1664 273.809 78.1401 273.842 78.1401C273.846 78.1401 273.85 78.1401 273.854 78.1401C273.876 78.1422 273.896 78.1522 273.91 78.1664C273.928 78.1825 273.94 78.2067 273.944 78.2329L274.041 79.2573Z" fill="#9DB0F4"/>
<path d="M273.692 79.0234H273.678L273.774 78.1986C273.778 78.1664 273.807 78.1401 273.839 78.1401C273.843 78.1401 273.847 78.1401 273.851 78.1401C273.855 78.1442 273.859 78.1462 273.861 78.1502C273.877 78.1684 273.887 78.1926 273.889 78.2188L273.895 78.8116C273.897 78.9266 273.807 79.0214 273.692 79.0234Z" fill="#AFCDFB"/>
<path d="M274.284 83.8286H273.543V116.625H274.284V83.8286Z" fill="#9DB0F4"/>
<path d="M273.886 83.8286H273.543V116.625H273.886V83.8286Z" fill="#AEC3FF"/>
<path d="M275.096 111.393H272.732V120.07H275.096V111.393Z" fill="#9DB0F4"/>
<path d="M274.141 111.393H272.732V120.07H274.141V111.393Z" fill="#AEC3FF"/>
<path d="M275.208 79.7511C275.208 80.1564 274.6 80.4851 273.85 80.4851C273.792 80.4851 273.737 80.4831 273.681 80.4791C273.01 80.4347 272.492 80.1262 272.492 79.7511C272.492 79.376 273.012 79.0675 273.681 79.0231C273.737 79.0191 273.792 79.0171 273.85 79.0171C274.6 79.0191 275.208 79.3478 275.208 79.7511Z" fill="#9DB0F4"/>
<path d="M274.505 79.7514C274.505 80.0781 274.165 80.3584 273.681 80.4793C273.01 80.435 272.492 80.1265 272.492 79.7514C272.492 79.3763 273.012 79.0678 273.681 79.0234C274.165 79.1444 274.505 79.4247 274.505 79.7514Z" fill="#AEC3FF"/>
<path d="M275.094 84.4759H272.731L271.896 80.459H275.8L275.094 84.4759Z" fill="#AEC3FF"/>
<path d="M276.01 80.1567H271.686V80.5419H276.01V80.1567Z" fill="#9DB0F4"/>
<path d="M274.404 80.1567H271.686V80.5419H274.404V80.1567Z" fill="#AEC3FF"/>
<path d="M273.121 111.392H274.632L274.411 110.721C274.391 110.662 274.336 110.622 274.274 110.622H273.566C273.49 110.622 273.421 110.668 273.391 110.739L273.121 111.392Z" fill="#819DEA"/>
<path d="M272.178 80.6548H275.511L274.86 84.2664H272.945L272.178 80.6548Z" fill="#C5D7FF"/>
<path d="M275.735 80.1564H271.961L272.271 79.7168H275.441L275.735 80.1564Z" fill="#9DB0F4"/>
<path d="M274.804 80.1564H271.961L272.271 79.7168H274.512L274.804 80.1564Z" fill="#AEC3FF"/>
<path d="M208.049 120.106L184.217 120.098V114.276C184.293 114.312 184.37 114.348 184.449 114.387C187.701 116.044 187.274 118.252 191.3 117.442C195.326 116.635 198.646 116.294 200.448 117.442C202.251 118.591 203.573 118.133 205.816 118.125C207.674 118.121 207.992 119.601 208.049 120.106Z" fill="#A8D29F"/>
<path d="M212.994 113.435H190.284L189.236 108.093H211.903L212.994 113.435Z" fill="#D36D1A"/>
<path d="M213.38 113.435H190.673L189.623 108.093H212.29L213.38 113.435Z" fill="#F49540"/>
<path d="M196.987 114.088H190.781C190.507 114.088 190.283 113.867 190.283 113.59V113.433H196.985V114.088H196.987Z" fill="#D36D1A"/>
<path d="M217.561 113.435H196.938V114.088H217.561V113.435Z" fill="#FFA255"/>
<path d="M191.64 114.088L191.252 115.619C191.252 115.619 191.252 115.619 191.252 115.621L190.101 120.152C190.085 120.211 190.032 120.253 189.972 120.253C189.855 120.253 189.766 120.146 189.789 120.031L190.814 114.744L190.941 114.086H191.64V114.088Z" fill="#FFA255"/>
<path d="M191.252 115.619C191.29 114.836 190.816 114.746 190.816 114.746L190.943 114.088H191.641L191.252 115.619Z" fill="#D36D1A"/>
<path d="M196.566 114.088L196.177 115.619C196.177 115.619 196.177 115.619 196.177 115.621L195.027 120.152C195.011 120.211 194.958 120.253 194.898 120.253C194.781 120.253 194.692 120.146 194.714 120.031L195.742 114.744L195.869 114.086H196.566V114.088Z" fill="#FFA255"/>
<path d="M196.177 115.619C196.216 114.836 195.742 114.746 195.742 114.746L195.869 114.088H196.566L196.177 115.619Z" fill="#D36D1A"/>
<path d="M215.68 114.088L216.069 115.619C216.069 115.619 216.069 115.619 216.069 115.621L217.219 120.152C217.235 120.211 217.288 120.253 217.348 120.253C217.465 120.253 217.554 120.146 217.532 120.031L216.504 114.744L216.377 114.086H215.68V114.088Z" fill="#FFA255"/>
<path d="M216.069 115.619C216.03 114.836 216.504 114.746 216.504 114.746L216.377 114.088H215.68L216.069 115.619Z" fill="#D36D1A"/>
<path d="M210.752 114.088L211.141 115.619C211.141 115.619 211.141 115.619 211.141 115.621L212.292 120.152C212.308 120.211 212.36 120.253 212.42 120.253C212.537 120.253 212.626 120.146 212.604 120.031L211.576 114.744L211.449 114.086H210.752V114.088Z" fill="#FFA255"/>
<path d="M211.141 115.619C211.105 114.836 211.576 114.746 211.576 114.746L211.449 114.088H210.752L211.141 115.619Z" fill="#D36D1A"/>
<path d="M198.373 82.6487C197.786 82.9874 197.097 83.2032 196.347 83.2536C193.059 83.4593 191.918 84.6833 189.258 87.2746C187.83 88.6619 185.859 88.9624 184.215 89.0108V71.4106C184.678 71.7414 185.154 72.0842 185.641 72.4068C187.451 73.6207 189.414 74.6068 191.558 74.0845C193.716 73.5582 195.38 73.5905 196.686 74.0119C198.35 74.5362 199.44 75.6776 200.22 77.0771C201.3 78.9988 200.367 81.5073 198.373 82.6487Z" fill="#A8D29F"/>
<path d="M225.227 76.4277C225.227 75.613 225.885 74.9536 226.7 74.9536C227.514 74.9536 228.173 75.613 228.173 76.4277C228.173 77.2424 227.514 77.9018 226.7 77.9018C225.885 77.9018 225.227 77.2403 225.227 76.4277Z" fill="#F8FCFF"/>
<path d="M249.484 75.1149C249.484 75.1149 250.764 73.056 253.827 73.2839C253.827 73.2839 258.272 69.8518 263.011 72.8262C263.011 72.8262 268.049 72.0881 271.781 73.4634C274.267 74.3809 275.09 75.3428 275.09 75.3428L249.484 75.1149Z" fill="#F8FCFF"/>
<g opacity="0.5">
<path opacity="0.5" d="M264.779 80.4042C264.779 80.4042 265.618 79.0572 267.618 79.2064C267.618 79.2064 270.526 76.9621 273.625 78.908C273.625 78.908 276.92 78.426 279.36 79.3254C280.986 79.9243 281.524 80.5535 281.524 80.5535L264.779 80.4042Z" fill="#F8FCFF"/>
</g>
<g opacity="0.5">
<path opacity="0.5" d="M202.25 79.4706C202.25 79.4706 203.088 78.1236 205.089 78.2728C205.089 78.2728 207.997 76.0285 211.096 77.9744C211.096 77.9744 214.391 77.4924 216.831 78.3918C218.459 78.9907 218.995 79.6199 218.995 79.6199L202.25 79.4706Z" fill="#F8FCFF"/>
</g>
<path d="M287.81 120.069H184.217V124.768H287.81V120.069Z" fill="#9DB0F4"/>
<path d="M249.487 118.634C249.487 118.634 248.98 116.791 250.364 114.998C251.748 113.205 254.096 113.687 254.096 113.687C254.096 113.687 254.422 114.191 253.775 114.591C253.127 114.99 250.868 114.191 250.299 118.118C250.297 118.118 250.025 118.93 249.487 118.634Z" fill="#F99746"/>
<path d="M231.92 92.1127C231.92 91.6509 232.295 91.2778 232.754 91.2778C233.216 91.2778 233.588 91.6529 233.588 92.1127C233.588 92.5744 233.216 92.9475 232.754 92.9475C232.295 92.9495 231.92 92.5744 231.92 92.1127Z" fill="#ED7D2B"/>
<path d="M252.133 117.539C252.133 116.891 252.657 116.367 253.304 116.367C253.95 116.367 254.474 116.891 254.474 117.539C254.474 118.186 253.95 118.71 253.304 118.71C252.657 118.71 252.133 118.186 252.133 117.539Z" fill="#9DB0F4"/>
<path d="M226.168 116.643C226.168 115.653 226.97 114.849 227.961 114.849C228.951 114.849 229.755 115.651 229.755 116.643C229.755 117.635 228.953 118.438 227.961 118.438C226.97 118.438 226.168 117.635 226.168 116.643Z" fill="#9DB0F4"/>
<path d="M230.771 92.8978L227.924 113.667L228.633 113.764L231.479 92.9951L230.771 92.8978Z" fill="#131375"/>
<path d="M229.018 93.6065V92.8039L232.667 92.0054L232.907 92.6789L229.018 93.6065Z" fill="#ED7D2B"/>
<path d="M228.021 120.049C226.179 120.049 224.682 118.551 224.682 116.708C224.682 114.865 226.179 113.367 228.021 113.367C229.862 113.367 231.359 114.865 231.359 116.708C231.357 118.551 229.86 120.049 228.021 120.049ZM228.021 114.044C226.552 114.044 225.357 115.24 225.357 116.71C225.357 118.18 226.552 119.376 228.021 119.376C229.49 119.376 230.684 118.18 230.684 116.71C230.682 115.24 229.487 114.044 228.021 114.044Z" fill="#060633"/>
<path d="M253.304 119.981C251.957 119.981 250.863 118.886 250.863 117.539C250.863 116.192 251.957 115.097 253.304 115.097C254.65 115.097 255.744 116.192 255.744 117.539C255.744 118.886 254.65 119.981 253.304 119.981ZM253.304 115.635C252.254 115.635 251.399 116.49 251.399 117.541C251.399 118.591 252.254 119.444 253.304 119.444C254.353 119.444 255.208 118.589 255.208 117.541C255.208 116.488 254.353 115.635 253.304 115.635Z" fill="#060633"/>
<path d="M249.701 118.938H233.13C232.834 118.938 232.592 118.696 232.592 118.4V118.141C232.592 117.845 232.834 117.603 233.13 117.603H249.701C249.998 117.603 250.239 117.845 250.239 118.141V118.4C250.239 118.696 249.998 118.938 249.701 118.938Z" fill="#131375"/>
<path d="M249.897 118.946C249.784 118.946 249.679 118.876 249.643 118.763C249.596 118.622 249.671 118.47 249.812 118.424L253.219 117.287C253.36 117.24 253.512 117.315 253.558 117.456C253.604 117.597 253.53 117.748 253.389 117.795L249.981 118.932C249.953 118.942 249.925 118.946 249.897 118.946Z" fill="#131375"/>
<path d="M228.943 108.487L234.656 117.631H236.107L229.248 106.787L228.943 108.487Z" fill="#131375"/>
<path d="M229.27 113.776L228.746 113.617L228.2 115.413C228.019 116.008 227.447 116.397 226.828 116.345L225.093 116.198L225.047 116.744L226.786 116.892C227.507 116.952 228.158 117.345 228.547 117.956L229.468 119.398L229.929 119.104L229.041 117.71C228.626 117.059 228.515 116.26 228.74 115.522L229.27 113.776Z" fill="#060633"/>
<path d="M254.088 115.667L253.748 115.564L253.393 116.732C253.276 117.119 252.903 117.371 252.5 117.337L251.374 117.242L251.344 117.597L252.474 117.692C252.942 117.732 253.365 117.986 253.619 118.384L254.217 119.321L254.517 119.13L253.939 118.224C253.669 117.801 253.599 117.283 253.744 116.803L254.088 115.667Z" fill="#060633"/>
<path d="M252.986 117.496C252.986 117.347 253.107 117.228 253.254 117.228C253.401 117.228 253.522 117.349 253.522 117.496C253.522 117.645 253.401 117.764 253.254 117.764C253.105 117.764 252.986 117.643 252.986 117.496Z" fill="#F99746"/>
<path d="M227.691 116.643C227.691 116.494 227.812 116.375 227.959 116.375C228.109 116.375 228.227 116.496 228.227 116.643C228.227 116.792 228.107 116.911 227.959 116.911C227.812 116.913 227.691 116.792 227.691 116.643Z" fill="#F99746"/>
<path d="M225.914 113.181C225.914 113.181 227.48 112.084 229.63 112.79C231.782 113.496 232.114 115.869 232.114 115.869C232.114 115.869 231.749 116.347 231.155 115.869C230.563 115.391 230.558 112.994 226.67 113.772C226.672 113.772 225.817 113.788 225.914 113.181Z" fill="#F99746"/>
<path d="M240.79 72.1489C240.79 72.1489 238.088 76.4965 238.088 77.6782C238.088 78.8579 238.948 80.215 238.948 80.215L241.683 77.9424L243.043 75.5004L240.79 72.1489Z" fill="#829CE8"/>
<path d="M242.925 78.5271C242.925 78.5271 242.012 80.1725 240.382 79.8801C240.382 79.8801 239.903 79.1562 239.784 78.5755C239.77 78.5049 239.756 78.4343 239.741 78.3698C239.604 77.7164 239.512 77.3535 239.512 77.3535C239.512 77.3535 239.512 77.3535 239.514 77.3535C239.576 77.3111 241.642 75.948 241.656 76.0246C241.962 77.8011 242.925 78.5271 242.925 78.5271Z" fill="#ED975D"/>
<path d="M238.801 77.4545C238.801 77.4545 241.308 78.2954 241.808 76.7246C242.305 75.1537 242.966 74.2039 241.387 73.601C239.807 72.9981 239.305 73.4982 239.011 73.9821C238.715 74.4661 238.163 77.1944 238.801 77.4545Z" fill="#FFB27D"/>
<path d="M235.957 117.631H240.088C240.128 117.623 240.158 117.615 240.177 117.605C240.453 117.466 240.366 116.409 240.334 116.085C240.328 116.024 240.324 115.988 240.324 115.988C240.324 115.988 238.871 114.826 238.671 115.716C238.665 115.744 238.657 115.77 238.649 115.798C238.397 116.631 237.269 117.01 236.618 117.115C236.118 117.196 235.989 117.486 235.957 117.631Z" fill="#A9453D"/>
<path d="M244.045 117.631H248.176C248.216 117.623 248.244 117.615 248.264 117.605C248.54 117.466 248.454 116.409 248.422 116.085C248.416 116.024 248.412 115.988 248.412 115.988C248.412 115.988 246.959 114.826 246.759 115.716C246.753 115.744 246.745 115.77 246.737 115.798C246.485 116.631 245.357 117.01 244.706 117.115C244.208 117.196 244.079 117.486 244.045 117.631Z" fill="#A9453D"/>
<path d="M236.789 93.7904C236.789 93.7904 237.009 96.5449 237.269 99.856C237.621 104.355 238.044 109.88 238.087 110.927C238.159 112.744 238.647 115.799 238.647 115.799C238.647 115.799 238.941 116.281 240.321 115.988C240.321 115.988 241.752 111.901 242.103 107.509C242.109 107.436 242.113 107.364 242.119 107.291C242.445 102.82 242.953 93.4072 242.953 93.4072L236.789 93.7904Z" fill="#F99746"/>
<path d="M236.789 93.7904C236.789 93.7904 237.009 96.5449 237.269 99.856L242.101 107.509C242.107 107.436 242.111 107.364 242.117 107.291C242.443 102.82 242.951 93.4072 242.951 93.4072L236.789 93.7904Z" fill="#ED7D2B"/>
<path d="M237.797 94.1167C237.797 94.1167 240.507 104.502 243.121 109.188C245.736 113.876 246.669 115.964 246.669 115.964C246.669 115.964 248.271 116.397 248.408 115.988C248.408 115.988 247.038 104.828 245.978 102.219C245.428 100.868 245.172 96.7139 245.118 95.4052C245.063 94.0965 244.144 92.3159 244.144 92.3159L237.797 94.1167Z" fill="#F99746"/>
<path d="M236.905 98.1621C241.933 100.651 247.436 99.8459 247.426 99.6745C247.418 99.487 245.33 88.3861 244.609 85.1496C243.936 82.1349 243.027 79.4933 242.185 78.8903C242.074 78.8137 241.413 79.1545 240.802 79.4711C240.24 79.7635 239.672 79.8058 239.134 79.707C239.134 79.707 238.86 80.07 238.699 80.4652C238.36 81.29 236.595 86.9302 236.573 87.9061C236.573 87.9646 236.571 88.0231 236.569 88.0796C236.563 88.3619 236.557 88.6442 236.553 88.9265C236.551 89.2471 236.849 98.1339 236.905 98.1621Z" fill="#9DB0F4"/>
<path d="M236.718 93.9272C241.663 91.1525 241.173 84.7642 241.173 84.7642L236.557 88.9242C236.553 89.2448 236.549 89.5655 236.549 89.88C236.549 90.116 236.549 90.3519 236.553 90.5838V90.6141C236.547 90.7008 236.549 90.7935 236.551 90.8802C236.553 91.2674 236.714 93.5763 236.718 93.9272Z" fill="#7A96E5"/>
<path d="M231.733 92.0237C231.487 91.5982 231.678 91.4127 231.678 91.4127C231.678 91.4127 235.763 88.4101 236.085 88.1056C236.408 87.7991 238.01 82.8183 238.01 82.8183C238.01 82.8183 238.57 80.7998 239.745 80.6122C240.764 80.4489 241.449 80.9732 241.891 81.5741C242.415 82.292 242.439 83.2619 241.963 84.0121C240.891 85.6979 238.733 89.0433 238.116 89.6059C236.742 90.8602 232.311 92.3705 232.311 92.3705C232.311 92.3705 231.926 92.3584 231.733 92.0237Z" fill="#FFB27D"/>
<path d="M241.679 77.152C241.711 77.1782 242.247 77.398 243.484 75.4117C243.678 75.1012 243.855 74.4035 243.53 73.7441C243.206 73.0847 241.896 72.4676 240.79 72.149C239.684 71.8304 239.355 72.4394 239.031 73.0524C238.69 73.6957 237.836 74.1716 237.836 74.1716C238.757 74.8047 239.998 74.1353 240.391 74.3006C240.784 74.466 240.869 75.1173 240.881 75.325C240.893 75.5327 240.923 75.7061 241.449 75.571C241.975 75.4359 241.612 76.3151 241.515 76.4805C241.515 76.4825 241.405 76.9382 241.679 77.152Z" fill="#233862"/>
<path d="M240.789 72.1489C240.789 72.1489 242.171 74.5143 242.216 75.5246C242.26 76.5349 239.135 79.7068 239.135 79.7068C239.135 79.7068 241.815 80.4106 242.919 79.7068C242.919 79.7068 245.47 76.1517 245.47 75.5024C245.47 74.8511 243.975 72.1872 240.789 72.1489Z" fill="#9DB0F4"/>
<path d="M238.352 93.6934C238.352 93.6934 240.778 94.0906 242.303 93.8688L242.269 96.3088L240.328 97.0529L238.354 95.9559V93.6934H238.352Z" fill="#7A96E5"/>
<path d="M231.668 91.4126C231.668 91.4126 230.104 91.4912 229.79 91.7856C229.477 92.0801 228.861 92.6366 229.326 92.7354L230.449 92.4894C231.023 92.6245 231.23 92.9371 231.595 92.7415C231.96 92.5479 232.361 92.3341 232.361 92.3341L231.668 91.4126Z" fill="#FFB27D"/>
<path d="M227.922 93.0927C227.922 92.6309 228.295 92.2578 228.756 92.2578C229.218 92.2578 229.59 92.6329 229.59 93.0927C229.59 93.5544 229.218 93.9275 228.756 93.9275C228.295 93.9275 227.922 93.5544 227.922 93.0927Z" fill="#F99746"/>
<path d="M250.544 87.2122C250.536 87.3352 250.522 87.442 250.497 87.5308C250.169 88.785 245.929 89.7328 245.454 89.2791C245.365 89.1944 245.272 89.0714 245.178 88.9161C243.971 86.9299 242.439 79.6946 243.042 80.1241C243.042 80.1241 244.168 79.7712 245.095 79.6845L245.258 79.6724H245.264C245.557 79.6543 245.821 79.6704 246.006 79.739C246.794 80.0314 247.425 82.0922 247.425 82.0922C247.425 82.0922 248.073 81.9995 248.654 82.0701C248.724 82.0781 248.795 82.0902 248.863 82.1043C249.041 82.1406 249.202 82.1991 249.323 82.2838C249.818 82.6367 250.63 85.8551 250.544 87.2122Z" fill="#F99746"/>
<path d="M243.578 80.0193C243.578 80.0193 242.123 78.6279 239.689 79.124L239.135 79.7068C239.135 79.7068 241.579 79.1179 242.925 80.4045L243.578 80.0193Z" fill="#F99746"/>
<path d="M239.349 86.6416C239.349 86.6416 240.804 89.2248 244.773 87.9422L245.18 88.9142C245.18 88.9142 240.461 90.2572 238.867 87.6559L239.349 86.6416Z" fill="#F99746"/>
<path d="M239.874 80.2149C239.874 80.2149 238.866 80.0999 238.493 81.0396C238.227 81.7111 237.635 84.865 236.295 87.1638C235.759 88.0853 233.714 89.8841 232.861 90.5374C232.861 90.5374 233.172 91.5356 233.839 91.8018C233.839 91.8018 237.065 92.1305 239.185 89.7147C239.791 89.0291 243.396 83.1509 242.652 81.937C241.911 80.7251 239.874 80.2149 239.874 80.2149Z" fill="#9DB0F4"/>
<path d="M245.266 79.6685C245.121 79.8076 244.841 80.1766 244.934 80.8824C245.059 81.8282 245.363 82.5037 245.367 82.5097L245.262 82.5581C245.258 82.5521 244.95 81.8604 244.821 80.8965C244.736 80.2674 244.936 79.8822 245.099 79.6806L245.266 79.6685Z" fill="#ED7D2B"/>
<path d="M249.367 87.2427L249.256 87.277C249.208 87.1217 248.081 83.486 248.158 82.8145C248.206 82.393 248.458 82.1752 248.652 82.0684C248.722 82.0764 248.793 82.0885 248.861 82.1026C248.726 82.145 248.333 82.3124 248.273 82.8286C248.2 83.4739 249.355 87.2044 249.367 87.2427Z" fill="#ED7D2B"/>
<path d="M244.311 85.6395L245.312 88.4828C245.312 88.4828 246.7 88.5251 247.549 87.9444L246.624 85.0225C246.624 85.0225 245.854 85.6133 244.311 85.6395Z" fill="#ED7D2B"/>
<path d="M250.544 87.2124C250.536 87.3354 250.522 87.4423 250.497 87.531C250.169 88.7853 245.929 89.733 245.454 89.2793C245.365 89.1946 245.272 89.0716 245.178 88.9164C245.218 88.9143 247.626 88.8296 250.544 87.2124Z" fill="#ED7D2B"/>
<path d="M244.311 85.6396L244.605 86.4744L245.931 86.5652L246.882 85.8352L246.624 85.0205C246.624 85.0225 245.131 85.3311 244.311 85.6396Z" fill="#EF873A"/>
<path d="M245.73 86.3151C245.73 86.2687 245.769 86.2324 245.813 86.2324C245.859 86.2324 245.896 86.2687 245.896 86.3151C245.896 86.3615 245.859 86.3978 245.813 86.3978C245.769 86.3978 245.73 86.3615 245.73 86.3151Z" fill="#131375"/>
<path d="M315.865 134.669H191.609V137.797H315.865V134.669Z" fill="#9DB0F4"/>
<path d="M315.865 140.98H191.609V144.106H315.865V140.98Z" fill="#9DB0F4"/>
<path d="M315.865 147.29H246.967V150.416H315.865V147.29Z" fill="#9DB0F4"/>
<path d="M286.314 153.602H232.881V156.73H286.314V153.602Z" fill="#9DB0F4"/>
<path d="M315.865 159.914H246.967V163.041H315.865V159.914Z" fill="#9DB0F4"/>
<path d="M160.671 109.325H127.766V110.888H160.671V109.325Z" fill="#9DB0F4"/>
<path d="M167.465 109.325H163.844V112.949H167.465V109.325Z" fill="#9DB0F4"/>
<path d="M155.167 109.325H140.07V110.888H155.167V109.325Z" fill="#F77D48"/>
<path d="M160.671 100.755H127.766V102.316H160.671V100.755Z" fill="#9DB0F4"/>
<path d="M167.465 100.755H163.844V104.379H167.465V100.755Z" fill="#9DB0F4"/>
<path d="M142.587 100.755H132.072V102.316H142.587V100.755Z" fill="#F77D48"/>
<path d="M160.671 92.1851H127.766V93.7458H160.671V92.1851Z" fill="#9DB0F4"/>
<path d="M167.465 92.1851H163.844V95.8087H167.465V92.1851Z" fill="#7A96E5"/>
<path d="M154.561 92.1851H144.047V93.7458H154.561V92.1851Z" fill="#7A96E5"/>
<path d="M160.671 83.6147H127.766V85.1755H160.671V83.6147Z" fill="#9DB0F4"/>
<path d="M167.465 83.6147H163.844V87.2384H167.465V83.6147Z" fill="#7A96E5"/>
<path d="M148.068 83.6147H132.072V85.1755H148.068V83.6147Z" fill="#7A96E5"/>
<path d="M160.671 75.0444H127.766V76.6052H160.671V75.0444Z" fill="#9DB0F4"/>
<path d="M167.465 75.0444H163.844V78.6681H167.465V75.0444Z" fill="#F77D48"/>
<path d="M157.312 75.0444H143.287V76.6052H157.312V75.0444Z" fill="#F77D48"/>
<path d="M145.782 128.809H142.586V132.007H145.782V128.809Z" fill="#9DB0F4"/>
<path d="M151.495 128.809H148.299V132.007H151.495V128.809Z" fill="#9DB0F4"/>
<path d="M170.368 129.22H153.701V130.408H170.368V129.22Z" fill="#9DB0F4"/>
<path d="M137.814 128.408L140.436 130.408L137.814 131.939V128.408Z" fill="#9DB0F4"/>
<path d="M145.782 134.929H142.586V138.127H145.782V134.929Z" fill="#7A96E5"/>
<path d="M151.495 134.929H148.299V138.127H151.495V134.929Z" fill="#9DB0F4"/>
<path d="M170.368 135.34H153.701V136.526H170.368V135.34Z" fill="#9DB0F4"/>
<path d="M137.814 134.528L140.436 136.526L137.814 138.057V134.528Z" fill="#9DB0F4"/>
<path d="M145.782 141.047H142.586V144.245H145.782V141.047Z" fill="#F77D48"/>
<path d="M151.495 141.047H148.299V144.245H151.495V141.047Z" fill="#9DB0F4"/>
<path d="M170.368 141.46H153.701V142.646H170.368V141.46Z" fill="#9DB0F4"/>
<path d="M137.814 140.648L140.436 142.646L137.814 144.177V140.648Z" fill="#9DB0F4"/>
<path d="M145.782 147.167H142.586V150.365H145.782V147.167Z" fill="#F77D48"/>
<path d="M151.495 147.167H148.299V150.365H151.495V147.167Z" fill="#9DB0F4"/>
<path d="M170.368 147.579H153.701V148.766H170.368V147.579Z" fill="#9DB0F4"/>
<path d="M137.814 146.768L140.436 148.766L137.814 150.297V146.768Z" fill="#9DB0F4"/>
<path d="M145.782 153.287H142.586V156.485H145.782V153.287Z" fill="#7A96E5"/>
<path d="M151.495 153.287H148.299V156.485H151.495V153.287Z" fill="#9DB0F4"/>
<path d="M170.368 153.699H153.701V154.886H170.368V153.699Z" fill="#9DB0F4"/>
<path d="M137.814 152.886L140.436 154.886L137.814 156.415V152.886Z" fill="#9DB0F4"/>
<path d="M145.782 159.405H142.586V162.603H145.782V159.405Z" fill="#7A96E5"/>
<path d="M151.495 159.405H148.299V162.603H151.495V159.405Z" fill="#9DB0F4"/>
<path d="M170.368 159.819H153.701V161.005H170.368V159.819Z" fill="#9DB0F4"/>
<path d="M137.814 159.006L140.436 161.004L137.814 162.535V159.006Z" fill="#9DB0F4"/>
<g opacity="0.5">
<g opacity="0.5">
<path opacity="0.5" d="M127.266 130.174C127.266 130.174 128.11 129.085 129.252 129.085C130.419 129.085 131.138 130.174 131.138 130.174C131.138 130.174 130.53 131.265 129.252 131.265C127.906 131.263 127.266 130.174 127.266 130.174Z" fill="#DDE7FE"/>
</g>
<g opacity="0.5">
<path opacity="0.5" d="M128.449 130.174C128.449 129.757 128.788 129.42 129.203 129.42C129.618 129.42 129.956 129.757 129.956 130.174C129.956 130.592 129.618 130.928 129.203 130.928C128.788 130.928 128.449 130.589 128.449 130.174Z" fill="#15156D"/>
</g>
<g opacity="0.5">
<path opacity="0.5" d="M128.742 130.174C128.742 129.92 128.948 129.712 129.204 129.712C129.458 129.712 129.665 129.918 129.665 130.174C129.665 130.428 129.46 130.635 129.204 130.635C128.948 130.633 128.742 130.428 128.742 130.174Z" fill="#DDE7FE"/>
</g>
</g>
<g opacity="0.5">
<g opacity="0.5">
<path opacity="0.5" d="M127.266 136.292C127.266 136.292 128.11 135.201 129.252 135.201C130.419 135.201 131.138 136.292 131.138 136.292C131.138 136.292 130.53 137.383 129.252 137.383C127.906 137.383 127.266 136.292 127.266 136.292Z" fill="#DDE7FE"/>
</g>
<g opacity="0.5">
<path opacity="0.5" d="M128.449 136.292C128.449 135.875 128.788 135.538 129.203 135.538C129.618 135.538 129.956 135.877 129.956 136.292C129.956 136.71 129.618 137.046 129.203 137.046C128.788 137.046 128.449 136.71 128.449 136.292Z" fill="#15156D"/>
</g>
<g opacity="0.5">
<path opacity="0.5" d="M128.742 136.292C128.742 136.038 128.948 135.831 129.204 135.831C129.458 135.831 129.665 136.036 129.665 136.292C129.665 136.546 129.46 136.754 129.204 136.754C128.948 136.754 128.742 136.546 128.742 136.292Z" fill="#DDE7FE"/>
</g>
</g>
<g opacity="0.5">
<g opacity="0.5">
<path opacity="0.5" d="M127.266 142.412C127.266 142.412 128.11 141.321 129.252 141.321C130.419 141.321 131.138 142.412 131.138 142.412C131.138 142.412 130.53 143.503 129.252 143.503C127.906 143.503 127.266 142.412 127.266 142.412Z" fill="#DDE7FE"/>
</g>
<g opacity="0.5">
<path opacity="0.5" d="M128.449 142.412C128.449 141.995 128.788 141.658 129.203 141.658C129.618 141.658 129.956 141.995 129.956 142.412C129.956 142.83 129.618 143.167 129.203 143.167C128.788 143.167 128.449 142.83 128.449 142.412Z" fill="#15156D"/>
</g>
<g opacity="0.5">
<path opacity="0.5" d="M128.742 142.412C128.742 142.158 128.948 141.95 129.204 141.95C129.458 141.95 129.665 142.156 129.665 142.412C129.665 142.666 129.46 142.872 129.204 142.872C128.948 142.872 128.742 142.666 128.742 142.412Z" fill="#DDE7FE"/>
</g>
</g>
<g opacity="0.5">
<g opacity="0.5">
<path opacity="0.5" d="M127.266 148.532C127.266 148.532 128.11 147.441 129.252 147.441C130.419 147.441 131.138 148.532 131.138 148.532C131.138 148.532 130.53 149.623 129.252 149.623C127.906 149.621 127.266 148.532 127.266 148.532Z" fill="#DDE7FE"/>
</g>
<g opacity="0.5">
<path opacity="0.5" d="M128.449 148.532C128.449 148.115 128.788 147.778 129.203 147.778C129.618 147.778 129.956 148.115 129.956 148.532C129.956 148.95 129.618 149.287 129.203 149.287C128.788 149.287 128.449 148.948 128.449 148.532Z" fill="#15156D"/>
</g>
<g opacity="0.5">
<path opacity="0.5" d="M128.742 148.532C128.742 148.278 128.948 148.07 129.204 148.07C129.458 148.07 129.665 148.276 129.665 148.532C129.665 148.786 129.46 148.994 129.204 148.994C128.948 148.992 128.742 148.786 128.742 148.532Z" fill="#DDE7FE"/>
</g>
</g>
<g opacity="0.5">
<g opacity="0.5">
<path opacity="0.5" d="M127.266 154.65C127.266 154.65 128.11 153.562 129.252 153.562C130.419 153.562 131.138 154.65 131.138 154.65C131.138 154.65 130.53 155.741 129.252 155.741C127.906 155.741 127.266 154.65 127.266 154.65Z" fill="#DDE7FE"/>
</g>
<g opacity="0.5">
<path opacity="0.5" d="M128.449 154.651C128.449 154.233 128.788 153.896 129.203 153.896C129.618 153.896 129.956 154.233 129.956 154.651C129.956 155.068 129.618 155.405 129.203 155.405C128.788 155.405 128.449 155.068 128.449 154.651Z" fill="#15156D"/>
</g>
<g opacity="0.5">
<path opacity="0.5" d="M128.742 154.65C128.742 154.396 128.948 154.188 129.204 154.188C129.458 154.188 129.665 154.394 129.665 154.65C129.665 154.904 129.46 155.112 129.204 155.112C128.948 155.112 128.742 154.906 128.742 154.65Z" fill="#DDE7FE"/>
</g>
</g>
<g opacity="0.5">
<g opacity="0.5">
<path opacity="0.5" d="M127.266 160.771C127.266 160.771 128.11 159.68 129.252 159.68C130.419 159.68 131.138 160.771 131.138 160.771C131.138 160.771 130.53 161.862 129.252 161.862C127.906 161.862 127.266 160.771 127.266 160.771Z" fill="#DDE7FE"/>
</g>
<g opacity="0.5">
<path opacity="0.5" d="M128.449 160.771C128.449 160.353 128.788 160.017 129.203 160.017C129.618 160.017 129.956 160.353 129.956 160.771C129.956 161.188 129.618 161.525 129.203 161.525C128.788 161.525 128.449 161.188 128.449 160.771Z" fill="#15156D"/>
</g>
<g opacity="0.5">
<path opacity="0.5" d="M128.742 160.771C128.742 160.517 128.948 160.309 129.204 160.309C129.458 160.309 129.665 160.515 129.665 160.771C129.665 161.025 129.46 161.233 129.204 161.233C128.948 161.233 128.742 161.025 128.742 160.771Z" fill="#DDE7FE"/>
</g>
</g>
<path d="M315.865 153.602H268.521V156.73H315.865V153.602Z" fill="#F99746"/>
<path d="M304.396 147.29H276.889V150.416H304.396V147.29Z" fill="#F99746"/>
<path d="M305.683 134.669H273.85V137.797H305.683V134.669Z" fill="#F99746"/>
<path d="M311.035 140.98H283.527V144.106H311.035V140.98Z" fill="#7A96E5"/>
<path d="M208.02 88.4123C201.516 80.0962 194.278 79.8038 194.205 79.8018L194.211 79.6143C194.284 79.6163 201.61 79.9107 208.169 88.2954L208.02 88.4123Z" fill="#15156D"/>
<path d="M193.363 79.7069C193.363 79.2794 193.71 78.9346 194.135 78.9346C194.56 78.9346 194.907 79.2814 194.907 79.7069C194.907 80.1344 194.56 80.4792 194.135 80.4792C193.71 80.4792 193.363 80.1344 193.363 79.7069Z" fill="#F77D48"/>
<path d="M207.322 88.2772C207.322 87.8497 207.669 87.5049 208.094 87.5049C208.521 87.5049 208.866 87.8517 208.866 88.2772C208.866 88.7047 208.519 89.0495 208.094 89.0495C207.667 89.0495 207.322 88.7027 207.322 88.2772Z" fill="#F77D48"/>
<path d="M209.965 78.1018L209.822 77.9809C209.871 77.9244 214.707 72.3992 225.334 72.5484L225.332 72.7359C214.783 72.5907 210.014 78.0454 209.965 78.1018Z" fill="#15156D"/>
<path d="M209.366 78.6965C209.034 78.4283 208.981 77.9423 209.249 77.6096C209.517 77.2768 210.003 77.2244 210.335 77.4926C210.668 77.7608 210.72 78.2468 210.452 78.5795C210.184 78.9122 209.697 78.9647 209.366 78.6965Z" fill="#F77D48"/>
<path d="M224.79 73.1936C224.458 72.9254 224.405 72.4394 224.673 72.1066C224.941 71.7739 225.427 71.7215 225.759 71.9897C226.092 72.2579 226.144 72.7439 225.876 73.0766C225.608 73.4073 225.12 73.4598 224.79 73.1936Z" fill="#F77D48"/>
<path d="M259.24 78.0794L259.07 77.9342C259.125 77.8717 264.59 71.6709 277.377 72.4936L277.363 72.7154C264.684 71.9028 259.292 78.0189 259.24 78.0794Z" fill="#15156D"/>
<path d="M258.56 78.747C258.144 78.4123 258.052 77.8375 258.352 77.4625C258.652 77.0874 259.235 77.0572 259.65 77.3919C260.065 77.7266 260.158 78.3013 259.857 78.6764C259.555 79.0495 258.975 79.0817 258.56 78.747Z" fill="#F77D48"/>
<path d="M276.749 73.2216C276.334 72.8869 276.241 72.3122 276.541 71.9371C276.844 71.562 277.424 71.5318 277.839 71.8665C278.254 72.2013 278.347 72.776 278.047 73.151C277.746 73.5261 277.164 73.5563 276.749 73.2216Z" fill="#F77D48"/>
<path d="M250.256 80.9771H237.273V81.1646H250.256V80.9771Z" fill="#15156D"/>
<path d="M236.502 81.0721C236.502 80.6446 236.849 80.2998 237.274 80.2998C237.699 80.2998 238.045 80.6466 238.045 81.0721C238.045 81.4996 237.699 81.8444 237.274 81.8444C236.849 81.8444 236.502 81.4976 236.502 81.0721Z" fill="#FA7267"/>
<path d="M249.484 81.0721C249.484 80.6446 249.831 80.2998 250.256 80.2998C250.683 80.2998 251.028 80.6466 251.028 81.0721C251.028 81.4996 250.681 81.8444 250.256 81.8444C249.831 81.8444 249.484 81.4976 249.484 81.0721Z" fill="#FA7267"/>
<path d="M265.392 131.856L264.068 130.531L262.745 131.856L264.069 133.181L265.392 131.856Z" fill="#F77D48"/>
<path d="M229.967 104.583C222.576 104.583 214.778 103.284 208.457 101.86C196.993 99.2812 187.776 95.7503 187.684 95.714L187.75 95.5386C187.841 95.5749 197.047 99.0997 208.499 101.677C219.06 104.054 233.745 106.085 243.732 102.27C253.759 98.4383 264.376 98.9929 271.515 100.13C279.249 101.364 284.686 103.532 284.74 103.554L284.669 103.728C284.615 103.705 279.195 101.544 271.481 100.314C264.364 99.1784 253.787 98.6279 243.798 102.443C239.758 103.992 234.954 104.583 229.967 104.583Z" fill="#15156D"/>
<path d="M245.105 101.673C245.105 101.245 245.452 100.9 245.877 100.9C246.304 100.9 246.649 101.247 246.649 101.673C246.649 102.1 246.302 102.445 245.877 102.445C245.45 102.445 245.105 102.098 245.105 101.673Z" fill="#17152B"/>
<path d="M223.682 104.391C223.682 103.963 224.028 103.619 224.453 103.619C224.881 103.619 225.225 103.965 225.225 104.391C225.225 104.818 224.879 105.163 224.453 105.163C224.028 105.163 223.682 104.816 223.682 104.391Z" fill="#17152B"/>
<path d="M228.647 123.316C227.053 123.316 225.271 123.042 223.494 122.223L223.573 122.054C228.898 124.504 234.26 122.012 234.313 121.987L234.393 122.157C234.357 122.173 231.895 123.316 228.647 123.316Z" fill="#15156D"/>
<path d="M234.839 122.673C234.507 122.941 234.021 122.889 233.753 122.558C233.485 122.225 233.538 121.739 233.868 121.471C234.201 121.203 234.686 121.253 234.954 121.586C235.222 121.917 235.17 122.405 234.839 122.673Z" fill="#F77D48"/>
<path d="M224.018 122.739C223.685 123.007 223.2 122.955 222.932 122.624C222.664 122.292 222.714 121.806 223.047 121.537C223.379 121.269 223.865 121.32 224.133 121.652C224.401 121.985 224.35 122.471 224.018 122.739Z" fill="#F77D48"/>
<path d="M254.18 123.316C252.586 123.316 250.805 123.042 249.027 122.223L249.106 122.054C254.432 124.504 259.794 122.012 259.846 121.987L259.927 122.157C259.888 122.173 257.428 123.316 254.18 123.316Z" fill="#15156D"/>
<path d="M260.369 122.673C260.036 122.941 259.551 122.889 259.283 122.558C259.015 122.225 259.067 121.739 259.398 121.471C259.73 121.203 260.216 121.253 260.484 121.586C260.754 121.917 260.701 122.405 260.369 122.673Z" fill="#F77D48"/>
<path d="M249.55 122.739C249.218 123.007 248.732 122.955 248.464 122.624C248.196 122.292 248.249 121.806 248.579 121.537C248.912 121.269 249.397 121.32 249.665 121.652C249.933 121.985 249.881 122.471 249.55 122.739Z" fill="#F77D48"/>
<g opacity="0.3">
<path opacity="0.3" d="M287.81 94.8247V121.297L278.353 120.069C278.353 120.069 277.509 114.49 281.527 112.717C285.263 111.072 282.75 96.7142 287.81 94.8247Z" fill="#9DB0F4"/>
</g>
<path d="M283.473 103.645C283.473 103.217 283.819 102.873 284.244 102.873C284.67 102.873 285.016 103.219 285.016 103.645C285.016 104.072 284.67 104.417 284.244 104.417C283.819 104.417 283.473 104.07 283.473 103.645Z" fill="#F77D48"/>
<path d="M187.135 95.6293C187.135 95.2018 187.481 94.8569 187.907 94.8569C188.334 94.8569 188.678 95.2038 188.678 95.6293C188.678 96.0568 188.332 96.4016 187.907 96.4016C187.479 96.4016 187.135 96.0547 187.135 95.6293Z" fill="#F77D48"/>
<g opacity="0.1">
<path opacity="0.1" d="M346.287 68.0854H296.402V124.77H346.287V68.0854Z" fill="#DDE7FE"/>
</g>
<path d="M325.094 71.4971H300.744V72.1928H325.094V71.4971Z" fill="#9DB0F4"/>
<path d="M319.585 73.2271H300.744V73.9227H319.585V73.2271Z" fill="#9DB0F4"/>
<path d="M339.234 71.9004H337.916V73.2192H339.234V71.9004Z" fill="#9DB0F4"/>
<path d="M325.094 79.186H300.744V79.8817H325.094V79.186Z" fill="#9DB0F4"/>
<path d="M319.585 80.916H300.744V81.6117H319.585V80.916Z" fill="#9DB0F4"/>
<path d="M339.234 79.5894H337.916V80.9082H339.234V79.5894Z" fill="#9DB0F4"/>
<path d="M325.094 86.875H300.744V87.5707H325.094V86.875Z" fill="#9DB0F4"/>
<path d="M319.585 88.605H300.744V89.3007H319.585V88.605Z" fill="#9DB0F4"/>
<path d="M339.234 87.2783H337.916V88.5971H339.234V87.2783Z" fill="#9DB0F4"/>
<path d="M325.094 94.564H300.744V95.2596H325.094V94.564Z" fill="#9DB0F4"/>
<path d="M319.585 96.2939H300.744V96.9897H319.585V96.2939Z" fill="#9DB0F4"/>
<path d="M339.234 94.9673H337.916V96.2861H339.234V94.9673Z" fill="#9DB0F4"/>
<path d="M325.094 102.253H300.744V102.949H325.094V102.253Z" fill="#9DB0F4"/>
<path d="M319.585 103.983H300.744V104.679H319.585V103.983Z" fill="#9DB0F4"/>
<path d="M339.234 102.656H337.916V103.975H339.234V102.656Z" fill="#9DB0F4"/>
<path d="M339.234 109.631H337.916V110.95H339.234V109.631Z" fill="#9DB0F4"/>
<path d="M325.094 109.942H300.744V110.638H325.094V109.942Z" fill="#9DB0F4"/>
<path d="M319.585 111.672H300.744V112.368H319.585V111.672Z" fill="#9DB0F4"/>
<path d="M325.094 117.631H300.744V118.327H325.094V117.631Z" fill="#9DB0F4"/>
<path d="M319.585 119.363H300.744V120.058H319.585V119.363Z" fill="#9DB0F4"/>
<path d="M339.234 118.036H337.916V119.355H339.234V118.036Z" fill="#9DB0F4"/>
<path d="M317.511 237.908C317.511 237.908 314.029 246.519 315.256 247.418C316.483 248.317 320.695 244.66 321.811 240.8C322.929 236.938 317.511 237.908 317.511 237.908Z" fill="#EA9963"/>
<path d="M388.656 295.996C373.251 295.994 357.169 295.994 341.969 295.99C341.383 294.574 340.76 293.088 340.112 291.576C335.896 281.749 330.607 270.687 327.663 269.37C322.246 266.948 318.986 269.067 312.246 261.195C305.505 253.322 301.219 250.646 303.867 248.828C306.515 247.013 315.256 253.839 317.68 253.544C319.627 253.306 320.64 248.586 320.481 243.599C320.441 242.294 320.318 240.973 320.11 239.709V239.707C320.007 239.068 319.881 238.447 319.735 237.85C319.504 236.914 319.22 236.039 318.879 235.26C318.216 233.748 318.277 232.71 318.78 232.016C320.292 229.933 325.817 230.937 327.902 231.431C328.833 231.653 331.713 229.907 333.73 230.901C336.859 232.443 338.683 230.663 340.76 232.002C342.229 232.948 345.256 233.391 346.298 234.756C348.283 237.354 348.772 242.851 350.707 247.93C352.496 252.631 353.119 257.563 359.256 265.889C361.991 269.598 370.458 278.204 379.008 286.609C382.321 289.868 385.647 293.096 388.656 295.996Z" fill="#FFB27D"/>
<path d="M318.739 232.004C318.739 232.004 305.887 242.534 307.556 243.948C309.226 245.361 313.462 243.972 320.396 239.528C327.331 235.081 318.739 232.004 318.739 232.004Z" fill="#FFB27D"/>
<path d="M392.509 295.996H388.657C373.252 295.994 357.17 295.994 341.97 295.99H337.428L336.9 294.897C336.9 294.897 337.97 293.447 340.11 291.576C345.726 286.66 358.703 278.827 379.007 286.611C379.909 286.958 380.826 287.333 381.759 287.745L392.509 295.996Z" fill="#2B478B"/>
<path d="M182.461 243.284C182.461 243.284 184.691 252.3 183.349 253.016C182.007 253.732 178.354 249.518 177.794 245.537C177.234 241.56 182.461 243.284 182.461 243.284Z" fill="#EA9963"/>
<path d="M184.386 267.085C176.601 273.923 173.674 271.366 167.969 272.998C164.87 273.885 158.071 284.088 152.51 293.221C152.034 294.002 151.569 294.776 151.113 295.534C132.752 295.468 114.353 295.403 97.4023 295.341C101.997 292.06 108.36 287.478 114.701 282.806C124.353 275.694 133.955 268.37 137.187 265.083C144.439 257.71 145.751 252.917 148.187 248.513C150.783 243.821 150.706 238.299 154.291 238.354C156.058 238.38 157.616 236.073 159.244 235.325C161.489 234.297 163.635 236.585 166.951 235.503C169.089 234.805 172.019 236.694 172.97 236.606C174.802 236.438 179.233 235.759 181.24 236.795C182.354 237.368 182.721 238.467 181.482 240.473C181.035 241.195 180.629 242.022 180.269 242.915C180.065 243.421 179.874 243.948 179.699 244.492C179.285 245.777 178.953 247.142 178.715 248.499C177.853 253.413 178.191 258.231 180.085 258.741C182.443 259.376 192.202 252.822 194.567 254.996C196.931 257.17 192.17 260.245 184.386 267.085Z" fill="#FFB27D"/>
<path d="M181.037 236.735C181.037 236.735 200.446 242.522 199.438 244.462C198.429 246.404 188.271 246.071 180.171 244.589C172.068 243.107 181.037 236.735 181.037 236.735Z" fill="#FFB27D"/>
<path d="M154.318 295.544C153.25 295.54 152.182 295.536 151.114 295.532C132.753 295.466 114.353 295.401 97.403 295.339C95.2086 295.331 93.0404 295.323 90.8984 295.316L111.821 283.536C112.802 283.262 113.761 283.02 114.702 282.806C135.906 277.968 147.648 287.561 152.512 293.221C153.282 294.119 153.882 294.919 154.318 295.544Z" fill="#2B478B"/>
<path d="M253.73 281.029C253.73 281.154 253.739 281.279 253.753 281.398C253.799 281.787 253.92 282.152 254.097 282.481C254.236 282.737 254.414 282.971 254.617 283.177C255.167 283.727 255.925 284.066 256.763 284.066H299.444C301.12 284.066 302.478 282.707 302.478 281.029C302.478 280.19 302.14 279.43 301.59 278.881C301.04 278.331 300.282 277.992 299.444 277.992H256.763C255.089 277.99 253.73 279.351 253.73 281.029Z" fill="#2B478B"/>
<path d="M256.985 277.442H271.618C271.874 277.442 272.084 277.232 272.084 276.976C272.084 276.72 271.874 276.51 271.618 276.51H256.985C256.729 276.51 256.52 276.72 256.52 276.976C256.52 277.232 256.729 277.442 256.985 277.442Z" fill="#2B478B"/>
<path d="M257.793 277.991H259.379V277.44H257.793V277.991Z" fill="#233862"/>
<path d="M254.1 282.481C254.239 282.737 254.416 282.971 254.619 283.177C255.17 283.727 255.927 284.066 256.766 284.066H265.807V282.481H254.1Z" fill="#233862"/>
<path d="M308.131 280.138V281.916C308.131 282.112 308.105 282.302 308.056 282.479C307.81 283.392 306.976 284.064 305.985 284.064H261.525C260.534 284.064 259.701 283.392 259.453 282.479C259.405 282.299 259.379 282.11 259.379 281.916V280.138C259.379 278.952 260.338 277.99 261.525 277.99H305.985C307.172 277.99 308.131 278.952 308.131 280.138Z" fill="#F99746"/>
<path d="M308.056 282.481C307.81 283.394 306.976 284.066 305.984 284.066H261.525C260.533 284.066 259.701 283.394 259.453 282.481H308.056Z" fill="#EF873A"/>
<path d="M303.715 281.039C303.715 281.983 304.057 282.826 304.597 283.384C304.61 283.396 304.622 283.409 304.634 283.421C305.051 283.836 305.581 284.086 306.157 284.086C307.058 284.086 309.288 282.727 310.671 281.826C311.36 281.376 311.837 281.039 311.837 281.039C311.837 281.039 311.358 280.702 310.671 280.253C309.288 279.349 307.058 277.99 306.157 277.99C305.897 277.99 305.645 278.041 305.41 278.135C305.013 278.295 304.66 278.577 304.38 278.948C304.072 279.353 303.854 279.866 303.761 280.434C303.761 280.44 303.759 280.446 303.759 280.454C303.729 280.642 303.715 280.84 303.715 281.039Z" fill="#8C9DF4"/>
<path d="M303.715 281.039C303.715 281.983 304.057 282.826 304.597 283.385L311.441 281.029L303.759 280.455C303.729 280.642 303.715 280.84 303.715 281.039Z" fill="#6980E2"/>
<path d="M304.379 278.948L311.206 280.813L305.409 278.135C305.012 278.295 304.659 278.579 304.379 278.948Z" fill="#9FB1FF"/>
<path d="M310.225 281.039C310.225 281.402 310.41 281.711 310.67 281.826C311.359 281.376 311.837 281.039 311.837 281.039C311.837 281.039 311.357 280.703 310.67 280.253C310.41 280.366 310.225 280.676 310.225 281.039Z" fill="#182D4C"/>
<path d="M39.8986 273.003C41.684 273.007 43.5438 272.802 45.444 272.368C52.6417 270.727 60.3271 265.837 65.9672 256.823C65.9672 256.823 64.7864 250.769 61.3931 246.026H61.391C59.0375 242.737 54.9691 238.835 50.1149 238.809C46.9875 238.793 44.775 239.932 43.0461 241.413C40.1042 243.927 38.5546 247.43 36.2736 247.936C34.0248 248.434 31.5927 249.636 29.5393 251.348C29.2028 251.628 28.8764 251.921 28.5641 252.229L28.562 252.231C28.4311 252.358 28.3041 252.485 28.1772 252.618C28.1731 252.62 28.1711 252.624 28.1691 252.626C25.4065 255.526 23.7783 259.47 25.1586 263.82C25.477 264.828 25.9727 265.875 26.686 266.952C29.221 270.795 34.1457 272.991 39.8986 273.003Z" fill="#ED7D2B"/>
<path d="M47.7809 241.332C47.7809 241.332 51.9903 239.86 53.9772 242.407C55.964 244.956 53.286 246.533 51.0413 246.128C48.7965 245.722 45.6773 242.724 47.7809 241.332Z" fill="#FFB583"/>
<path d="M25.1602 263.82C25.4785 264.828 26.077 265.816 26.6876 266.954C31.0038 274.986 37.0448 278.359 41.6351 279.462C46.709 280.68 56.2099 278.621 59.986 276.179C66.1883 272.17 68.0784 265.03 65.9647 256.821C65.9647 256.821 64.7838 250.767 61.3905 246.026H61.3885C61.3885 246.026 58.6884 259.914 42.8703 264.5C35.6887 266.583 29.6315 265.558 25.1602 263.82Z" fill="#EA6C2D"/>
<path d="M31.2873 243.927C31.3679 241.401 34.0801 240.53 36.2926 238.916C38.5071 237.305 41.1327 233.157 41.1327 233.157C41.1327 233.157 37.5984 233.292 33.3869 234.526C29.1755 235.759 31.2873 243.927 31.2873 243.927Z" fill="#A8D29F"/>
<path d="M31.2875 243.927C30.9752 241.306 32.1983 237.608 33.8245 236.462C35.4506 235.317 41.131 233.159 41.131 233.159C41.131 233.159 37.5966 233.294 33.3852 234.528C29.1758 235.758 31.2875 243.927 31.2875 243.927Z" fill="#82B378"/>
<path d="M36.2733 247.939C34.0245 248.437 31.5924 249.638 29.5391 251.35C33.2427 248.572 39.1589 249.517 39.5095 247.787C39.8823 245.93 42.929 241.578 43.0459 241.413C40.1039 243.928 38.5543 247.432 36.2733 247.939Z" fill="#EA6C2D"/>
<path d="M28.1777 252.621C28.2845 252.526 28.4115 252.399 28.5626 252.233C28.4316 252.36 28.3047 252.487 28.1777 252.621Z" fill="#95C38B"/>
<path d="M39.2509 247.989C37.4132 245.162 33.7982 243.74 31.09 243.048C28.9339 242.496 25.8126 242.085 24.3155 241.907C23.9991 241.869 23.7996 242.236 24.0011 242.484L24.5331 243.137C25.0651 243.792 25.857 244.184 26.7013 244.206C29.2966 244.27 35.1241 244.795 38.0681 248.122C38.3986 248.495 39.5814 248.493 39.2509 247.989Z" fill="#82B378"/>
<path d="M73.7167 193.198L70.7246 193.679L76.3899 228.971L79.382 228.49L73.7167 193.198Z" fill="#B5453C"/>
<path d="M71.2301 187.229L70.7324 193.684L73.7248 193.202L71.2301 187.229Z" fill="#EFCBAB"/>
<path d="M106.155 196.737L103.176 196.184L96.6532 231.33L99.6329 231.884L106.155 196.737Z" fill="#B5453C"/>
<path d="M105.804 190.272L103.166 196.182L106.146 196.737L105.804 190.272Z" fill="#EFCBAB"/>
<path d="M102.361 186.437L99.3809 185.883L92.8547 221.029L95.8344 221.584L102.361 186.437Z" fill="#B5453C"/>
<path d="M102.024 179.963L99.3867 185.874L102.367 186.428L102.024 179.963Z" fill="#EFCBAB"/>
<path d="M105.825 208.104H81.9531V242.532H105.825V208.104Z" fill="#ED7D2B"/>
<path d="M93.8878 208.104H70.0156V242.532H93.8878V208.104Z" fill="#F99746"/>
<path d="M344.48 191.12L316.127 185.725L311.269 211.29L339.623 216.685L344.48 191.12Z" fill="#A8D29F"/>
<path d="M342.404 193.254L314.051 187.858L313.351 191.541L341.704 196.936L342.404 193.254Z" fill="#82B378"/>
<path d="M153.591 181.75L125.523 188.474L131.577 213.781L159.645 207.057L153.591 181.75Z" fill="#8C9DF4"/>
<path d="M153.593 181.749L125.525 188.473L126.857 194.038L154.924 187.314L153.593 181.749Z" fill="#6980E2"/>
<path d="M360.01 166.13L331.582 171.112L336.068 196.745L364.496 191.763L360.01 166.13Z" fill="#699DEE"/>
<path d="M360.012 166.13L331.584 171.112L332.57 176.749L360.999 171.767L360.012 166.13Z" fill="#548EE2"/>
<defs>
<linearGradient id="paint0_linear_126_12694" x1="415.408" y1="13.762" x2="136.793" y2="407.184" gradientUnits="userSpaceOnUse">
<stop stop-color="#F20732"/>
<stop offset="1" stop-color="#FF928E"/>
</linearGradient>
</defs>
</svg>
