<svg width="60" height="60" viewBox="0 0 60 60" fill="none" xmlns="http://www.w3.org/2000/svg">
<path d="M22.9031 19.4387C20.6066 21.7471 20.4628 25.5924 22.9388 28.0835C26.4964 31.641 31.226 33.6001 36.2571 33.6001C41.2097 33.6001 45.9497 31.7089 49.611 28.0477C51.972 25.6741 51.972 21.8121 49.611 19.4386C49.6104 19.438 49.6098 19.4374 49.6093 19.4368C42.1139 11.9415 30.1542 12.1411 22.9031 19.4387ZM24.1496 26.8077C22.5004 25.1497 22.4254 22.4028 24.1821 20.6461C25.2877 19.5405 26.5086 18.6197 27.8059 17.8814C26.632 19.5749 25.9636 21.6131 25.9636 23.7432C25.9636 25.878 26.6351 27.9206 27.8141 29.6163C26.4825 28.8565 25.2554 27.9178 24.1496 26.8077ZM39.9468 31.4396C37.5306 31.9716 34.9831 31.9716 32.5671 31.4396C29.6204 30.024 27.7217 27.0134 27.7217 23.7432C27.7217 20.4815 29.611 17.4784 32.5442 16.0582C33.7652 15.7883 35.0104 15.6529 36.2558 15.6529C37.5025 15.6529 38.7493 15.7888 39.972 16.0595C42.904 17.4803 44.7921 20.4826 44.7921 23.7432C44.7922 27.0134 42.8935 30.024 39.9468 31.4396ZM48.3318 26.8402C47.2339 27.9382 46.0126 28.8678 44.6995 29.617C45.8786 27.9211 46.5504 25.8784 46.5504 23.7432C46.5504 21.6139 45.8825 19.5764 44.7093 17.8831C46.0696 18.6573 47.2703 19.5845 48.3644 20.6784C50.0104 22.3333 50.0929 25.0791 48.3318 26.8402Z" fill="white"/>
<path d="M36.2571 17.4106C32.7653 17.4106 29.9246 20.2513 29.9246 23.7431C29.9246 27.2348 32.7653 30.0754 36.2571 30.0754C39.7487 30.0754 42.5894 27.2348 42.5894 23.7431C42.5894 20.2514 39.7487 17.4106 36.2571 17.4106ZM36.2571 28.3174C33.7348 28.3174 31.6828 26.2654 31.6828 23.7432C31.6828 21.221 33.7349 19.169 36.2571 19.169C38.7793 19.169 40.8312 21.221 40.8312 23.7432C40.8312 26.2654 38.7793 28.3174 36.2571 28.3174Z" fill="white"/>
<path d="M19.4601 6.94631C10.9761 15.4305 10.2653 28.7875 17.3246 38.0901L13.723 41.6918C12.991 41.2821 12.0466 41.3864 11.4249 42.0078L1.35805 52.0746C-0.452541 53.8853 -0.452542 56.8314 1.35817 58.6421C3.169 60.4527 6.11492 60.4526 7.92552 58.6421L17.9924 48.5752C18.6141 47.9534 18.7183 47.009 18.3085 46.277L21.9117 42.674C25.4447 45.349 29.6824 47.003 34.1275 47.4009C34.6109 47.4454 35.0384 47.0872 35.0815 46.6037C35.1249 46.1201 34.7679 45.693 34.2844 45.6497C23.1326 44.6515 14.2611 35.3081 14.2611 23.743C14.2611 17.8676 16.5491 12.3439 20.7037 8.18948C29.28 -0.386907 43.2345 -0.386673 51.8107 8.18948C60.387 16.7656 60.387 30.7204 51.8107 39.2965C48.172 42.9353 43.3491 45.1915 38.2301 45.6497C37.7466 45.693 37.3896 46.1201 37.4329 46.6037C37.4738 47.0606 37.8574 47.4044 38.3075 47.4044C38.3337 47.4044 38.3602 47.4032 38.3869 47.4009C43.9155 46.9061 49.1244 44.4695 53.0541 40.5399C62.3158 31.2781 62.3158 16.208 53.0541 6.9462C43.7918 -2.31542 28.7219 -2.31542 19.4601 6.94631ZM16.749 47.3319L6.68212 57.3988C5.55711 58.5242 3.72623 58.5239 2.60134 57.3988C1.47351 56.2712 1.47339 54.4457 2.60134 53.318L12.6681 43.2512C12.7321 43.1872 12.8363 43.1873 12.8999 43.2512L16.7491 47.1003C16.813 47.1641 16.813 47.2681 16.749 47.3319ZM20.5421 41.5568L17.1172 44.9817L15.0183 42.8829L18.4432 39.458C19.0916 40.1919 19.8173 40.9163 20.5421 41.5568Z" fill="white"/>
<path d="M54.581 22.5655C55.0634 22.5116 55.4109 22.0766 55.3568 21.5942C54.8678 17.2233 52.963 13.2666 49.8483 10.1518C42.3539 2.65762 30.16 2.65786 22.6657 10.1518C15.1714 17.6462 15.1714 29.8401 22.6657 37.3344C26.4129 41.0815 31.3349 42.955 36.2569 42.955C46.0102 42.955 54.263 35.6694 55.3568 25.8921C55.4109 25.4097 55.0634 24.9747 54.581 24.9208C54.0987 24.8666 53.6637 25.2142 53.6096 25.6966C51.9868 40.2008 34.2166 46.3989 23.909 36.0911C17.1002 29.2824 17.1002 18.2039 23.909 11.3952C30.7179 4.58649 41.7964 4.58672 48.6049 11.3952C51.4348 14.2249 53.1653 17.8194 53.6095 21.7898C53.6636 22.272 54.0977 22.6211 54.581 22.5655Z" fill="white"/>
</svg>
