<svg width="45" height="46" viewBox="0 0 45 46" fill="none" xmlns="http://www.w3.org/2000/svg">
<path d="M44.4798 35.0042L37.4332 27.9566L38.8239 26.9462C40.185 25.9573 40.7502 24.2178 40.2304 22.6175L39.2807 19.695C39.1804 19.3861 39.1804 19.0595 39.2807 18.7507L40.2304 15.828C40.7503 14.2278 40.185 12.4882 38.8239 11.4995L36.3377 9.69301C36.0749 9.50211 35.8829 9.23797 35.7827 8.92907L34.833 6.00641C34.3131 4.40633 32.8335 3.33114 31.151 3.33114H28.0778C27.753 3.33114 27.4425 3.23024 27.1798 3.03934L24.6936 1.23301C23.3325 0.244187 21.5034 0.244187 20.1422 1.23301L17.6559 3.03946C17.3932 3.23036 17.0827 3.33126 16.7579 3.33126H13.6848C12.0023 3.33126 10.5226 4.40633 10.0027 6.00653L9.05297 8.9293C8.95265 9.23797 8.7607 9.50211 8.49797 9.69313L6.01183 11.4995C4.6507 12.4884 4.08551 14.2279 4.60535 15.828L5.55504 18.7507C5.65535 19.0595 5.65535 19.3861 5.55504 19.6948L4.60535 22.6176C4.08551 24.2178 4.6507 25.9575 6.01183 26.9462L7.4025 27.9566L0.355895 35.0041C0.076286 35.2837 -0.0433624 35.6855 0.0376142 36.0726C0.118591 36.4598 0.389411 36.7798 0.757731 36.924L6.4173 39.1384L8.63168 44.7979C8.7757 45.1662 9.09586 45.4369 9.48305 45.518C9.56285 45.5348 9.64324 45.5429 9.72305 45.5429C10.0305 45.5429 10.3296 45.4217 10.5517 45.1996L19.2142 36.5382L20.1422 37.2125C20.8228 37.7069 21.6203 37.9541 22.4179 37.9541C23.2153 37.9541 24.013 37.7069 24.6935 37.2124L25.6216 36.5381L34.2843 45.1996C34.5063 45.4217 34.8053 45.5429 35.1128 45.5429C35.1926 45.5429 35.273 45.5348 35.3528 45.518C35.74 45.4371 36.06 45.1662 36.2041 44.7979L38.4185 39.1384L44.0781 36.924C44.4464 36.78 44.7171 36.4598 44.7982 36.0726C44.8792 35.6857 44.7594 35.2837 44.4798 35.0042ZM10.1614 42.2755L8.41312 37.807C8.29406 37.5025 8.05324 37.2618 7.74879 37.1427L3.28031 35.3943L9.07863 29.5951L10.0028 32.4391C10.5227 34.0393 12.0023 35.1144 13.6849 35.1144H16.758C16.9254 35.1144 17.0889 35.1417 17.244 35.1937L10.1614 42.2755ZM21.5197 35.3164L19.0336 33.51C18.3677 33.0263 17.5809 32.7706 16.758 32.7706H13.6849C13.0209 32.7706 12.437 32.3464 12.2319 31.7149L11.2822 28.7923C11.0393 28.0445 10.5825 27.402 9.96164 26.9241C9.94031 26.9059 9.91828 26.8889 9.89602 26.8725C9.8891 26.8673 9.88277 26.8616 9.87574 26.8565L7.38961 25.0501C6.85254 24.66 6.62941 23.9734 6.83461 23.342L7.7843 20.4193C8.03859 19.6366 8.03859 18.8093 7.7843 18.0266L6.83461 15.104C6.62941 14.4725 6.85254 13.786 7.38961 13.3957L9.87574 11.5893C10.5417 11.1055 11.028 10.4361 11.2822 9.65364L12.2319 6.73098C12.437 6.09946 13.0211 5.67524 13.6849 5.67524H16.758C17.5811 5.67524 18.368 5.41954 19.0337 4.93579L21.5197 3.12958C22.0569 2.73934 22.779 2.73923 23.316 3.12958L25.8021 4.93602C26.468 5.41977 27.2548 5.67547 28.0778 5.67547H31.151C31.8149 5.67547 32.3987 6.09981 32.6039 6.73122L33.5536 9.65375C33.8078 10.4365 34.2941 11.1058 34.9601 11.5896L37.4463 13.396C37.9834 13.7863 38.2064 14.4727 38.0012 15.1043L37.0515 18.027C36.7973 18.8096 36.7973 19.637 37.0515 20.4196L38.0012 23.3423C38.2064 23.9738 37.9834 24.6602 37.4462 25.0505L34.9602 26.8568C34.9515 26.8631 34.9437 26.8702 34.935 26.8766C34.9152 26.8913 34.8956 26.9064 34.8765 26.9226C34.2545 27.4006 33.7969 28.0437 33.5536 28.7925L32.6039 31.7152C32.3987 32.3468 31.8149 32.771 31.151 32.771H28.0778C27.255 32.771 26.4681 33.0267 25.8021 33.5104L23.3161 35.3166C22.7786 35.7068 22.0568 35.7064 21.5197 35.3164ZM37.087 37.1427C36.7826 37.2618 36.5419 37.5025 36.4227 37.807L34.6744 42.2755L27.5917 35.1938C27.7468 35.1417 27.9103 35.1145 28.0777 35.1145H31.1509C32.8332 35.1145 34.313 34.0394 34.8329 32.4393L35.7571 29.5951L41.5556 35.3945L37.087 37.1427Z" fill="white"/>
<path d="M27.8375 27.9146C28.0805 27.9146 28.3224 27.839 28.5265 27.6908C28.8873 27.4286 29.0681 26.9844 28.9928 26.5447L28.0618 21.1169L32.0053 17.2729C32.3248 16.9616 32.4396 16.4959 32.3018 16.0716C32.1639 15.6474 31.7972 15.3383 31.3559 15.2741L25.906 14.4821L23.4688 9.54371C23.2713 9.14375 22.864 8.8905 22.4179 8.8905C21.9717 8.8905 21.5644 9.14375 21.367 9.54371L18.9299 14.4821L13.4801 15.2741C13.0387 15.3382 12.672 15.6474 12.534 16.0716C12.3961 16.4959 12.5112 16.9616 12.8306 17.2729L16.7741 21.1169L15.8432 26.5447C15.7677 26.9844 15.9484 27.4286 16.3094 27.6908C16.6702 27.9531 17.1486 27.9875 17.5435 27.7801L22.4179 25.2174L27.2924 27.78C27.4638 27.8701 27.651 27.9146 27.8375 27.9146ZM22.9631 22.8562C22.7924 22.7665 22.6051 22.7217 22.4179 22.7217C22.2306 22.7217 22.0432 22.7666 21.8726 22.8562L18.5545 24.6007L19.1883 20.9059C19.2536 20.5257 19.1275 20.1378 18.8513 19.8685L16.167 17.252L19.8767 16.7128C20.2583 16.6573 20.5883 16.4176 20.759 16.0718L22.4179 12.7104L24.0768 16.0719C24.2475 16.4177 24.5774 16.6575 24.9591 16.7129L28.6689 17.2521L25.9845 19.8686C25.7084 20.1378 25.5823 20.5257 25.6474 20.906L26.2812 24.6008L22.9631 22.8562Z" fill="white"/>
</svg>
