<svg width="60" height="60" viewBox="0 0 60 60" fill="none" xmlns="http://www.w3.org/2000/svg">
<path d="M52.968 0.00109863H7.03052C3.15349 0.00109863 -0.000732422 3.15532 -0.000732422 7.03235V29.9229C-0.000732422 33.8 3.15349 36.9542 7.03052 36.9542H9.53411C10.065 39.4511 11.4037 41.6527 13.2634 43.2707C8.08579 45.9871 4.5452 51.4162 4.5452 57.6573C4.5452 58.9518 5.5945 60.0011 6.88895 60.0011H34.672C35.9665 60.0011 37.0157 58.9518 37.0157 57.6573C37.0157 51.4477 33.5109 46.0421 28.3762 43.3123C30.2609 41.6904 31.6183 39.4727 32.1536 36.9542H36.8743V43.8292C36.8743 45.9296 39.4115 46.9499 40.8753 45.4866L49.4076 36.9542H52.968C56.845 36.9542 59.9993 33.8 59.9993 29.9229V7.03235C59.9993 3.15532 56.845 0.00109863 52.968 0.00109863V0.00109863ZM20.8439 41.4221C17.053 41.4221 13.9688 38.3381 13.9688 34.5471C13.9688 30.7563 17.053 27.6721 20.8439 27.6721C24.6348 27.6721 27.7189 30.7563 27.7189 34.5471C27.7189 38.3381 24.6348 41.4221 20.8439 41.4221ZM32.0892 55.3136H9.47177C10.558 50.0662 15.2161 46.1096 20.7805 46.1096C26.3449 46.1096 31.003 50.0662 32.0892 55.3136ZM55.3118 29.9229C55.3118 31.2153 54.2604 32.2667 52.968 32.2667H48.4367C47.8152 32.2667 47.2189 32.5136 46.7795 32.953L41.5617 38.1708V34.6103C41.5617 33.3159 40.5124 32.2666 39.2179 32.2666H32.18C31.1182 26.9794 26.439 22.9845 20.8439 22.9845C15.2488 22.9845 10.5696 26.9794 9.50774 32.2666H7.03052C5.73817 32.2666 4.68677 31.2152 4.68677 29.9228V7.03235C4.68677 5.74 5.73817 4.6886 7.03052 4.6886H52.968C54.2604 4.6886 55.3118 5.74 55.3118 7.03235V29.9229ZM50.7805 11.5636C50.7805 12.8581 49.7312 13.9074 48.4367 13.9074H11.5618C10.2674 13.9074 9.21806 12.8581 9.21806 11.5636C9.21806 10.2692 10.2674 9.21989 11.5618 9.21989H48.4368C49.7312 9.21989 50.7805 10.2692 50.7805 11.5636ZM50.7805 20.7823C50.7805 22.0768 49.7312 23.1261 48.4367 23.1261H29.9993C28.7048 23.1261 27.6555 22.0768 27.6555 20.7823C27.6555 19.4879 28.7048 18.4386 29.9993 18.4386H48.4367C49.7312 18.4386 50.7805 19.4879 50.7805 20.7823Z" fill="white"/>
</svg>
