<svg width="60" height="60" viewBox="0 0 60 60" fill="none" xmlns="http://www.w3.org/2000/svg">
<path d="M11.7188 13.2422C11.7188 11.9476 12.7679 10.8984 14.0625 10.8984H45.9375C47.2321 10.8984 48.2812 11.9476 48.2812 13.2422C48.2812 14.5367 47.2321 15.5859 45.9375 15.5859H14.0625C12.7679 15.5859 11.7188 14.5367 11.7188 13.2422ZM48.2812 22.6172C48.2812 21.3226 47.2321 20.2734 45.9375 20.2734H14.0625C12.7679 20.2734 11.7188 21.3226 11.7188 22.6172C11.7188 23.9117 12.7679 24.9609 14.0625 24.9609H45.9375C47.2321 24.9609 48.2812 23.9117 48.2812 22.6172ZM14.0625 29.6484C12.7679 29.6484 11.7188 30.6976 11.7188 31.9922C11.7188 33.2867 12.7679 34.3359 14.0625 34.3359H24.8438C26.1383 34.3359 27.1875 33.2867 27.1875 31.9922C27.1875 30.6976 26.1383 29.6484 24.8438 29.6484H14.0625ZM57.9424 47.9988C60.6821 50.7385 60.6821 55.199 57.9405 57.9405C56.57 59.3111 54.7691 59.9968 52.9688 59.9968C51.1684 59.9968 49.3675 59.3111 47.997 57.9405L35.1805 45.1003C34.8949 44.8141 34.6884 44.4594 34.5808 44.0698L31.9601 34.6101C31.7322 33.7862 31.9702 32.9036 32.5822 32.3067C33.1938 31.7102 34.0819 31.4932 34.8999 31.7418L44.1257 34.5442C44.4951 34.6564 44.8311 34.8578 45.1035 35.1311L57.9424 47.9988ZM38.9333 42.2246L47.5484 50.8557L50.8635 47.5406L42.2003 38.8582L37.6149 37.4652L38.9333 42.2246ZM54.6259 51.3116L54.1745 50.8589L50.8598 54.1736L51.313 54.6277C52.2253 55.54 53.7122 55.54 54.6259 54.6259C55.54 53.7122 55.54 52.2253 54.6259 51.3116ZM50.625 0H9.375C4.20547 0 0 4.20547 0 9.375V50.625C0 55.7945 4.20547 60 9.375 60H38.0859C39.3805 60 40.4297 58.9508 40.4297 57.6562C40.4297 56.3617 39.3805 55.3125 38.0859 55.3125H9.375C6.79047 55.3125 4.6875 53.2095 4.6875 50.625V9.375C4.6875 6.79047 6.79047 4.6875 9.375 4.6875H50.625C53.2095 4.6875 55.3125 6.79047 55.3125 9.375V38.2031C55.3125 39.4977 56.3617 40.5469 57.6562 40.5469C58.9508 40.5469 60 39.4977 60 38.2031V9.375C60 4.20547 55.7945 0 50.625 0Z" fill="white"/>
</svg>
