<svg width="61" height="60" viewBox="0 0 61 60" fill="none" xmlns="http://www.w3.org/2000/svg">
<path d="M44.8542 31.2591L46.3269 29.7864C46.3274 29.7859 46.3278 29.7854 46.3283 29.785C46.3288 29.7845 46.3292 29.784 46.3297 29.7835L51.5249 24.5884C51.5251 24.588 51.5254 24.5878 51.5258 24.5876C51.5261 24.5873 51.5264 24.587 51.5266 24.5866L56.7227 19.3905C56.7228 19.3904 56.7229 19.3903 56.7231 19.3902C56.7232 19.3901 56.7233 19.39 56.7234 19.3898L59.5775 16.5357C60.4938 15.6196 60.9984 14.4013 60.9984 13.1055C60.9984 11.8098 60.4937 10.5915 59.5775 9.67546L51.3233 1.42113C50.4071 0.504955 49.1888 0.000228543 47.8931 0.000228543C46.5972 0.000228543 45.3791 0.504838 44.4629 1.42113L29.7395 16.1443L19.7458 6.15058C18.0729 4.47761 15.9761 3.28675 13.6822 2.70679L3.18712 0.0537832C2.58712 -0.0979746 1.95103 0.0772207 1.51333 0.51515C1.07552 0.952846 0.900327 1.58859 1.05208 2.18882L3.70521 12.6839C4.28505 14.9777 5.47591 17.0746 7.14888 18.7475L17.1426 28.7412L2.41919 43.4645C1.50302 44.3808 0.998413 45.5989 0.998413 46.8947C0.998413 48.1905 1.50302 49.4086 2.41931 50.3248L10.6736 58.5791C11.5899 59.4955 12.8081 60.0001 14.104 60.0001C15.3997 60.0001 16.6179 59.4955 17.534 58.5792L25.5821 50.5312C25.5834 50.5301 25.5846 50.5288 25.5859 50.5276C25.5872 50.5264 25.5883 50.5251 25.5895 50.5239L32.2574 43.856L45.7925 57.3913C47.529 59.1278 49.8099 59.9961 52.091 59.9961C54.372 59.9961 56.653 59.1279 58.3895 57.3913C61.8626 53.9183 61.8626 48.2673 58.3895 44.7943L44.8542 31.2591ZM7.11349 11.8223L5.18271 4.18453L12.8205 6.11542C14.4999 6.53988 16.035 7.41175 17.2598 8.63659L18.6457 10.0225L11.0205 17.6476L9.63466 16.2618C8.40982 15.0368 7.53806 13.5018 7.11349 11.8223ZM13.5064 20.1334L21.1316 12.5082L27.2536 18.6302L19.6284 26.2554L13.5064 20.1334ZM14.104 56.4845C13.7472 56.4845 13.412 56.3455 13.1597 56.0933L4.90521 47.839C4.65302 47.5868 4.51416 47.2514 4.51416 46.8947C4.51416 46.538 4.65302 46.2026 4.90521 45.9503L46.9487 3.90691C47.2009 3.65472 47.5364 3.51574 47.8931 3.51574C48.2498 3.51574 48.5851 3.65472 48.8374 3.90691L57.0917 12.1614C57.3439 12.4134 57.4829 12.7488 57.4829 13.1055C57.4829 13.4623 57.3439 13.7976 57.0917 14.05L55.4803 15.6614L50.1181 10.2991C49.4319 9.61265 48.3188 9.61265 47.6322 10.2991C46.9458 10.9855 46.9458 12.0985 47.6322 12.785L52.9944 18.1473L50.2829 20.8588L47.5194 18.0954C46.833 17.4088 45.72 17.409 45.0335 18.0954C44.347 18.7819 44.347 19.8948 45.0335 20.5813L47.797 23.3447L45.0855 26.0562L39.7234 20.6939C39.0369 20.0074 37.924 20.0074 37.2375 20.6939C36.551 21.3803 36.551 22.4933 37.2375 23.1798L42.5996 28.5419L39.8881 31.2534L37.1246 28.49C36.4383 27.8037 35.3252 27.8037 34.6387 28.49C33.9522 29.1764 33.9522 30.2894 34.6387 30.9759L37.4021 33.7393L34.7376 36.4038L29.3755 31.0417C28.689 30.3552 27.5761 30.3552 26.8896 31.0417C26.2031 31.728 26.2031 32.8411 26.8896 33.5276L32.2517 38.8897L29.5402 41.6012L26.7768 38.8378C26.0905 38.1514 24.9774 38.1514 24.291 38.8378C23.6045 39.5242 23.6045 40.6372 24.291 41.3237L27.0543 44.0871L24.3429 46.7986L18.9808 41.4366C18.2945 40.7502 17.1814 40.7502 16.4949 41.4366C15.8085 42.1229 15.8085 43.236 16.4949 43.9225L21.857 49.2845L19.1455 51.996L16.3821 49.2326C15.6957 48.5462 14.5827 48.5462 13.8962 49.2326C13.2097 49.9189 13.2097 51.032 13.8962 51.7185L16.6596 54.4819L15.0481 56.0933C14.796 56.3456 14.4606 56.4845 14.104 56.4845ZM35.9735 40.1399C35.976 40.1375 35.9783 40.1352 35.9808 40.1327C35.9832 40.1303 35.9856 40.1279 35.9879 40.1255L41.1292 34.9842C41.1299 34.9835 41.1306 34.9829 41.1311 34.9822C41.1317 34.9815 41.1324 34.9809 41.1331 34.9802L42.3684 33.745L49.8171 41.1936L42.1919 48.8188L34.7433 41.3701L35.9735 40.1399ZM55.9036 54.9053C53.8013 57.0075 50.3806 57.0075 48.2784 54.9053L44.6778 51.3046L52.303 43.6794L55.9037 47.28C58.0059 49.3825 58.0059 52.803 55.9036 54.9053Z" fill="white"/>
</svg>
