<svg width="58" height="60" viewBox="0 0 58 60" fill="none" xmlns="http://www.w3.org/2000/svg">
<path d="M8.06593 60H43.2659C43.8548 60 44.4215 59.7666 44.8325 59.3444L57.2324 46.9445C57.6546 46.5224 57.888 45.9666 57.888 45.3779V12.3999C57.888 8.01106 54.3213 4.44436 49.9324 4.44436H46.7769V2.22218C46.7771 0.999944 45.777 0 44.5547 0C43.3325 0 42.3325 0.999944 42.3325 2.22218V4.44436H15.666V2.22218C15.666 0.999944 14.6659 0 13.4436 0C12.2214 0 11.2214 0.999944 11.2214 2.22218V4.44436H8.06593C3.67705 4.44436 0.110352 8.01106 0.110352 12.3999V52.0444C0.110352 56.4333 3.67705 60 8.06593 60ZM43.4436 54.4555V47.311C43.4436 46.9554 43.7325 46.6665 44.0881 46.6665H51.2326L43.4436 54.4555ZM4.5549 12.3999C4.5549 10.4667 6.13266 8.88891 8.06593 8.88891H11.2214V11.1111C11.2214 12.3333 12.2214 13.3333 13.4436 13.3333C14.6659 13.3333 15.6658 12.3333 15.6658 11.1111V8.88891H42.3325V11.1111C42.3325 12.3333 43.3325 13.3333 44.5547 13.3333C45.777 13.3333 46.7769 12.3333 46.7769 11.1111V8.88891H49.9324C51.8657 8.88891 53.4434 10.4667 53.4434 12.3999V42.2222H44.0879C41.2767 42.2222 38.9989 44.5 38.9989 47.3111V55.5556H8.06593C6.13266 55.5556 4.5549 53.9779 4.5549 52.0446V12.3999Z" fill="white"/>
<path d="M16.2216 25.5555C17.7557 25.5555 18.9993 24.3118 18.9993 22.7777C18.9993 21.2436 17.7557 20 16.2216 20C14.6875 20 13.4438 21.2436 13.4438 22.7777C13.4438 24.3118 14.6875 25.5555 16.2216 25.5555Z" fill="white"/>
<path d="M28.4437 25.5555C29.9778 25.5555 31.2215 24.3118 31.2215 22.7777C31.2215 21.2436 29.9778 20 28.4437 20C26.9096 20 25.666 21.2436 25.666 22.7777C25.666 24.3118 26.9096 25.5555 28.4437 25.5555Z" fill="white"/>
<path d="M40.6659 25.5555C42.2 25.5555 43.4436 24.3118 43.4436 22.7777C43.4436 21.2436 42.2 20 40.6659 20C39.1318 20 37.8882 21.2436 37.8882 22.7777C37.8882 24.3118 39.1318 25.5555 40.6659 25.5555Z" fill="white"/>
<path d="M16.2216 36.6666C17.7557 36.6666 18.9993 35.4229 18.9993 33.8888C18.9993 32.3547 17.7557 31.1111 16.2216 31.1111C14.6875 31.1111 13.4438 32.3547 13.4438 33.8888C13.4438 35.4229 14.6875 36.6666 16.2216 36.6666Z" fill="white"/>
<path d="M28.4437 36.6666C29.9778 36.6666 31.2215 35.4229 31.2215 33.8888C31.2215 32.3547 29.9778 31.1111 28.4437 31.1111C26.9096 31.1111 25.666 32.3547 25.666 33.8888C25.666 35.4229 26.9096 36.6666 28.4437 36.6666Z" fill="white"/>
<path d="M40.6659 36.6666C42.2 36.6666 43.4436 35.4229 43.4436 33.8888C43.4436 32.3547 42.2 31.1111 40.6659 31.1111C39.1318 31.1111 37.8882 32.3547 37.8882 33.8888C37.8882 35.4229 39.1318 36.6666 40.6659 36.6666Z" fill="white"/>
<path d="M16.2216 47.7776C17.7557 47.7776 18.9993 46.534 18.9993 44.9999C18.9993 43.4658 17.7557 42.2222 16.2216 42.2222C14.6875 42.2222 13.4438 43.4658 13.4438 44.9999C13.4438 46.534 14.6875 47.7776 16.2216 47.7776Z" fill="white"/>
<path d="M28.4437 47.7776C29.9778 47.7776 31.2215 46.534 31.2215 44.9999C31.2215 43.4658 29.9778 42.2222 28.4437 42.2222C26.9096 42.2222 25.666 43.4658 25.666 44.9999C25.666 46.534 26.9096 47.7776 28.4437 47.7776Z" fill="white"/>
</svg>
