<svg width="53" height="60" viewBox="0 0 53 60" fill="none" xmlns="http://www.w3.org/2000/svg">
<path fill-rule="evenodd" clip-rule="evenodd" d="M51.6318 24.2198H11.6507L50.0529 13.0952C50.3514 13.0087 50.6032 12.8069 50.7533 12.5349C50.9035 12.2626 50.9392 11.9421 50.8526 11.6437L48.8431 4.70627C48.0402 1.93542 45.4602 0 42.569 0C41.9597 0 41.3527 0.0865173 40.764 0.256805L4.70826 10.7016C3.04063 11.1845 1.65864 12.2932 0.815897 13.8226C-0.0263877 15.352 -0.224141 17.113 0.258799 18.7802L2.22215 25.5579V53.4782C2.22215 57.0744 5.14771 60 8.74345 60H22.8252C23.4724 60 23.997 59.4754 23.997 58.8281C23.997 58.1808 23.4724 57.6562 22.8252 57.6562H8.7439C6.43998 57.6562 4.5659 55.7822 4.5659 53.4782V37.5307H10.5695H10.5722H10.5745H19.7517H19.7545H19.7572H28.9345H28.9372H28.94H38.1172H38.12H38.1222H50.4599V53.4782C50.4599 55.7822 48.5858 57.6562 46.2819 57.6562H32.2002C31.5533 57.6562 31.0283 58.1808 31.0283 58.8281C31.0283 59.4754 31.5533 60 32.2002 60H46.2819C49.8781 60 52.8036 57.0744 52.8036 53.4782V25.3917C52.8036 24.7444 52.279 24.2198 51.6318 24.2198ZM30.9679 35.1869L35.947 26.5636H42.4229L37.4443 35.1869H30.9679ZM21.7851 35.1869L26.7642 26.5636H33.2402L28.2616 35.1869H21.7851ZM12.6028 35.1869L17.5815 26.5636H24.0579L19.0788 35.1869H12.6028ZM16.9598 20.0162L8.62214 12.0081L14.8692 10.1985C14.9132 10.2626 14.9645 10.323 15.023 10.3793L23.3608 18.3875L17.1137 20.197C17.0697 20.1329 17.018 20.072 16.9598 20.0162ZM32.663 5.26932L41.0007 13.2774L34.7536 15.087C34.7096 15.0229 34.6584 14.962 34.5998 14.9062L26.2621 6.89804L32.5092 5.0885C32.5531 5.15259 32.6044 5.21301 32.663 5.26932ZM23.8428 7.82455L32.1805 15.8322L25.9334 17.6422C25.8894 17.5781 25.8382 17.5172 25.7796 17.4614L17.4419 9.45328L23.689 7.64374C23.7334 7.70737 23.7846 7.76825 23.8428 7.82455ZM41.4163 2.50809C41.7926 2.39914 42.1803 2.34375 42.569 2.34375C44.4234 2.34375 46.0773 3.58337 46.5918 5.35858L48.2754 11.1699L43.5738 12.5317C43.5294 12.4677 43.4781 12.4072 43.4195 12.3509L35.0822 4.34326L41.4163 2.50809ZM2.86897 14.9533C3.40913 13.9723 4.29398 13.2619 5.36057 12.9529L6.04905 12.7533C6.09345 12.8174 6.14472 12.8783 6.20286 12.9341L14.5406 20.9422L4.19373 23.9397L2.51008 18.1284C2.20109 17.0622 2.32881 15.9348 2.86897 14.9533ZM4.5659 26.5636H14.8752L9.89655 35.1869H4.5659V26.5636ZM40.1506 35.1869L45.1292 26.5636H50.4599V35.1869H40.1506Z" fill="#F20732"/>
<path fill-rule="evenodd" clip-rule="evenodd" d="M35.6161 47.4742C35.6161 47.0554 35.3927 46.6686 35.0301 46.4594L24.7346 40.5153C24.372 40.3061 23.9252 40.3061 23.5627 40.5153C23.2001 40.7245 22.9767 41.1113 22.9767 41.5302V53.4183C22.9767 53.8367 23.2001 54.2235 23.5627 54.4327C23.744 54.5375 23.9463 54.5902 24.1486 54.5902C24.351 54.5902 24.5533 54.5375 24.7346 54.4327L35.0301 48.4891C35.3927 48.2799 35.6161 47.8931 35.6161 47.4742ZM25.3205 51.3886V43.5599L32.1004 47.4742L25.3205 51.3886Z" fill="#F20732"/>
<path fill-rule="evenodd" clip-rule="evenodd" d="M27.5127 57.6562C26.8672 57.6562 26.3408 58.1827 26.3408 58.8281C26.3408 59.4736 26.8672 60 27.5127 60C28.1586 60 28.6846 59.4736 28.6846 58.8281C28.6846 58.1827 28.1586 57.6562 27.5127 57.6562Z" fill="#F20732"/>
</svg>
