<svg width="58" height="58" viewBox="0 0 58 58" fill="none" xmlns="http://www.w3.org/2000/svg">
<path d="M35.8824 45.7647L45.4118 55.2941C48.0588 57.9412 52.6471 57.9412 55.2941 55.2941C58.1176 52.6471 58.1176 48.0588 55.2941 45.4118L45.7647 35.8824C47.5294 32.5294 48.5882 28.6471 48.5882 24.5882C48.5882 23.8824 48.5882 23.1765 48.4118 22.6471L54.9412 16.1177C55.6471 15.4118 55.6471 14.353 54.9412 13.6471C54.2353 12.9412 53.1765 12.9412 52.4706 13.6471L47.7059 18.4118C46.6471 14.353 44.5294 10.8235 41.5294 7.82354C32.1765 -1.5294 17.1765 -1.5294 7.82354 7.82354C-1.5294 17.1765 -1.5294 32.1765 7.82354 41.5294C15.5882 49.2941 27.0588 50.5294 35.8824 45.7647ZM52.6471 47.8824C54.0588 49.2941 54.0588 51.4118 52.6471 52.8235C51.2353 54.2353 49.1177 54.2353 47.7059 52.8235L38.7059 43.8235C39.5882 43.1177 40.4706 42.4118 41.3529 41.5294C42.2353 40.6471 42.9412 39.7647 43.6471 38.8824L52.6471 47.8824ZM10.2941 10.2941C18.2353 2.35296 31.1177 2.35296 39.0588 10.2941C42.0588 13.2941 44 17.1765 44.7059 21.4118L41.1765 24.9412L35.353 19.1177C34.6471 18.4118 33.5882 18.4118 32.8824 19.1177L23.7059 28.2941L19.6471 24.2353C18.9412 23.5294 17.8824 23.5294 17.1765 24.2353L10.1177 31.2941C9.41178 32 9.41178 33.0588 10.1177 33.7647C10.8235 34.4706 11.8824 34.4706 12.5882 33.7647L18.4118 27.9412C21.0588 30.0588 23 33.9412 24.9412 32L34.1177 22.8235L39.9412 28.6471C40.6471 29.3529 41.7059 29.3529 42.4118 28.6471L44.8824 26.1765C44.5294 31.1177 42.4118 35.5294 39.0588 39.0588C31.1177 47 18.2353 47 10.2941 39.0588C2.35296 31.1177 2.35296 18.2353 10.2941 10.2941Z" fill="white"/>
</svg>
