<svg width="60" height="58" viewBox="0 0 60 58" fill="none" xmlns="http://www.w3.org/2000/svg">
<path d="M13.0793 27.2335H20.8686C22.24 27.2335 23.356 26.1175 23.356 24.7455V16.1327C23.356 14.7613 22.24 13.6453 20.8686 13.6453H13.0793C11.7078 13.6453 10.5918 14.7613 10.5918 16.1327V24.7455C10.5918 26.1175 11.7078 27.2335 13.0793 27.2335ZM12.4668 16.1327C12.4668 15.8009 12.7469 15.5203 13.0793 15.5203H20.8686C21.2009 15.5203 21.481 15.8009 21.481 16.1327V24.7455C21.481 25.0779 21.2009 25.3585 20.8686 25.3585H13.0793C12.7469 25.3585 12.4668 25.0779 12.4668 24.7455V16.1327Z" fill="white"/>
<path d="M26.5731 15.9495H37.0101C37.5283 15.9495 37.9476 15.5297 37.9476 15.012C37.9476 14.4943 37.5283 14.0745 37.0101 14.0745H26.5731C26.055 14.0745 25.6356 14.4943 25.6356 15.012C25.6356 15.5297 26.055 15.9495 26.5731 15.9495Z" fill="white"/>
<path d="M26.5731 21.5916H37.0101C37.5283 21.5916 37.9476 21.1717 37.9476 20.6541C37.9476 20.1364 37.5283 19.7166 37.0101 19.7166H26.5731C26.055 19.7166 25.6356 20.1364 25.6356 20.6541C25.6356 21.1717 26.055 21.5916 26.5731 21.5916Z" fill="white"/>
<path d="M58.7439 52.3652L53.2031 45.2781C52.9559 44.9613 52.5998 44.7599 52.1997 44.7109C51.7978 44.6619 51.4042 44.7709 51.0883 45.0185L50.276 45.654L49.1822 44.2564C51.3441 42.0334 52.5943 39.1345 52.6942 36.0142C52.8014 32.6977 51.6102 29.5392 49.3407 27.1194C47.4452 25.0991 45.0256 23.8686 42.488 23.4129V8.26827C42.488 6.70321 41.2145 5.43017 39.6499 5.43017H37.6641V3.61471C37.6641 2.04964 36.3906 0.776611 34.826 0.776611H3.77559C2.211 0.776518 0.9375 2.04955 0.9375 3.61471V43.9002C0.9375 45.4653 2.211 46.7383 3.77559 46.7383H5.76141V48.557C5.76141 50.1202 7.03491 51.3919 8.5995 51.3919H39.6497C41.2143 51.3919 42.4878 50.1202 42.4878 48.557V47.8366C44.4087 47.4937 46.2133 46.6988 47.7808 45.5072L48.7996 46.8088L47.9845 47.4464C47.3317 47.9568 47.2146 48.9035 47.7254 49.558L53.2699 56.6465C53.5665 57.0246 54.0097 57.2227 54.4573 57.2224C54.7805 57.2224 55.1074 57.1185 55.3811 56.9042L58.4839 54.4766C59.1376 53.9664 59.2548 53.0193 58.7439 52.3652ZM3.77559 44.8633C3.24459 44.8633 2.8125 44.4312 2.8125 43.9002V3.61471C2.8125 3.08371 3.24459 2.65152 3.77559 2.65152H34.8257C35.3567 2.65152 35.7888 3.08361 35.7888 3.61461V5.43008H8.59959C7.035 5.43008 5.7615 6.70311 5.7615 8.26817V44.8632H3.77559V44.8633ZM40.6128 48.557C40.6128 49.0862 40.1807 49.5169 39.6497 49.5169H8.59959C8.06859 49.5169 7.6365 49.0861 7.6365 48.557V8.26827C7.6365 7.73727 8.06859 7.30517 8.59959 7.30517H39.6497C40.1807 7.30517 40.6128 7.73727 40.6128 8.26827V23.2093C38.0654 23.1408 35.5031 23.8614 33.3033 25.3584H26.5732C26.055 25.3584 25.6357 25.7782 25.6357 26.2959C25.6357 26.8136 26.055 27.2334 26.5732 27.2334H31.1248C30.089 28.3636 29.2958 29.641 28.7548 31.0004H11.5292C11.011 31.0004 10.5917 31.4202 10.5917 31.9379C10.5917 32.4556 11.011 32.8754 11.5292 32.8754H28.1811C27.9039 34.1118 27.8205 35.3819 27.9248 36.6424H11.5293C11.0111 36.6424 10.5918 37.0622 10.5918 37.5799C10.5918 38.0976 11.0111 38.5174 11.5293 38.5174H28.2214C28.5361 39.8315 29.0609 41.1068 29.811 42.2839H11.5293C11.0111 42.2839 10.5918 42.7037 10.5918 43.2214C10.5918 43.7391 11.0111 44.1589 11.5293 44.1589H31.2697C33.5347 46.5482 36.5887 47.9238 39.8823 48.0297C40.1288 48.0371 40.3658 48.0274 40.6129 48.0211C40.6128 48.1997 40.6128 48.3783 40.6128 48.557ZM39.9427 46.1556C37.1274 46.0649 34.5154 44.8839 32.5891 42.8294C28.6111 38.5882 28.8263 31.9016 33.067 27.9237C35.0373 26.0762 37.5843 25.0704 40.2722 25.0704C40.3875 25.0704 40.5029 25.0723 40.6192 25.076C43.4344 25.1666 46.0464 26.3476 47.9727 28.4021C51.9507 32.6433 51.7356 39.3299 47.4939 43.3078C45.4403 45.235 42.7716 46.2411 39.9427 46.1556ZM54.5178 55.1987L49.4311 48.6952L51.9525 46.7227L57.0382 53.2276L54.5178 55.1987Z" fill="white"/>
<path d="M46.4209 29.8568C43.245 26.4725 37.9093 26.3023 34.5255 29.4764C31.1389 32.6492 30.9677 37.9871 34.1418 41.375C35.7953 43.1374 38.0365 44.0283 40.2823 44.0283C42.3477 44.0283 44.4177 43.2753 46.0409 41.755C49.4239 38.5804 49.5942 33.2429 46.4209 29.8568ZM44.7584 40.3872C42.1253 42.8559 37.9771 42.7222 35.5097 40.0928C33.0424 37.4593 33.176 33.3106 35.8073 30.8442H35.8082C37.0681 29.6618 38.6757 29.0767 40.2806 29.0767C42.0255 29.0767 43.7678 29.7694 45.0532 31.1389C47.5196 33.7712 47.3868 37.9203 44.7584 40.3872Z" fill="white"/>
<path d="M45.2819 34.4972C44.696 31.8097 42.0309 30.1018 39.3429 30.6873C38.8366 30.7976 38.5162 31.297 38.6261 31.8028C38.7369 32.3082 39.2376 32.6277 39.7421 32.5192C41.4294 32.154 43.0846 33.2209 43.4509 34.8973C43.5462 35.3358 43.9343 35.6352 44.3655 35.6347C44.4314 35.6347 44.4992 35.6279 44.5661 35.6132C45.0722 35.5029 45.3927 35.003 45.2819 34.4972Z" fill="white"/>
</svg>
