<svg width="54" height="60" viewBox="0 0 54 60" fill="none" xmlns="http://www.w3.org/2000/svg">
<path d="M6.91658 45.9335C6.51332 45.9335 6.12658 45.7733 5.84144 45.4881C5.55629 45.203 5.3961 44.8162 5.3961 44.413C5.38197 42.7537 5.53479 41.0971 5.85224 39.4684C5.93209 39.0731 6.1657 38.7257 6.5017 38.5026C6.83769 38.2795 7.24854 38.199 7.64387 38.2789C8.03919 38.3587 8.38661 38.5923 8.60969 38.9283C8.83276 39.2643 8.91323 39.6752 8.83339 40.0705C8.55839 41.5014 8.42563 42.956 8.43705 44.413C8.43705 44.8162 8.27686 45.203 7.99171 45.4881C7.70657 45.7733 7.31983 45.9335 6.91658 45.9335Z" fill="white"/>
<path d="M7.34129 41.2899C7.23915 41.2903 7.13724 41.2801 7.0372 41.2595C6.64205 41.1796 6.29481 40.946 6.07184 40.6101C5.84887 40.2743 5.76842 39.8636 5.84819 39.4684C6.7696 34.907 8.97631 32.2715 10.9225 29.9401C12.7846 27.7101 14.445 25.7274 15.0542 22.2363C13.6865 22.8843 12.1916 23.2188 10.6782 23.2155H8.55768C8.45592 23.2151 8.35511 23.2349 8.26112 23.2739C8.16713 23.3129 8.08187 23.3703 8.0103 23.4426C7.1507 24.3029 5.98455 24.7864 4.76841 24.7869C3.55227 24.7874 2.38575 24.3047 1.52547 23.4451C0.665194 22.5855 0.181628 21.4194 0.181153 20.2032C0.180677 18.9871 0.663332 17.8206 1.52294 16.9603L2.73932 15.7439C3.73123 14.7541 4.51891 13.579 5.05754 12.2853C6.40874 9.05382 8.70668 7.03158 10.1319 6.02199V1.52341C10.1319 1.12015 10.2921 0.733411 10.5772 0.448266C10.8624 0.163122 11.2491 0.00292969 11.6524 0.00292969C11.9189 0.00292969 17.9096 0.0607077 20.3941 4.82993C21.0654 4.9947 21.7216 5.21614 22.3555 5.49185C24.4568 6.46901 26.0533 7.9094 27.1075 9.77655C27.3054 10.1278 27.3558 10.5433 27.2474 10.9316C27.1391 11.32 26.8809 11.6494 26.5297 11.8474C26.1785 12.0454 25.763 12.0957 25.3746 11.9874C24.9863 11.879 24.6569 11.6208 24.4588 11.2697C23.7249 9.96813 22.5866 8.94941 21.0763 8.24391C20.8431 8.13443 20.2603 7.90636 18.9831 7.60734C18.7459 7.55153 18.5255 7.43953 18.3407 7.28076C18.1558 7.12199 18.0118 6.92112 17.9208 6.69505C16.9953 4.41028 14.7207 3.55273 13.182 3.23039V6.83392C13.1821 7.09396 13.1155 7.34969 12.9886 7.57667C12.8618 7.80365 12.6788 7.99429 12.4572 8.13038C10.4704 9.34676 8.75737 11.3376 7.87245 13.4541C7.18103 15.1131 6.17056 16.6202 4.8984 17.8898L3.68201 19.1062C3.53391 19.2482 3.41562 19.4184 3.33407 19.6067C3.25253 19.795 3.20937 19.9976 3.20713 20.2028C3.20488 20.408 3.24359 20.6116 3.32099 20.8016C3.39839 20.9917 3.51292 21.1644 3.65789 21.3096C3.80285 21.4549 3.97534 21.5697 4.16524 21.6475C4.35514 21.7252 4.55864 21.7643 4.76383 21.7624C4.96903 21.7606 5.17179 21.7178 5.36024 21.6366C5.5487 21.5554 5.71906 21.4374 5.86136 21.2896C6.2148 20.9348 6.63508 20.6535 7.09789 20.4621C7.5607 20.2708 8.05686 20.173 8.55768 20.1746H10.6772C11.619 20.1766 12.5518 19.9919 13.4217 19.6313C14.2916 19.2706 15.0814 18.7411 15.7455 18.0733C15.9581 17.8605 16.2291 17.7156 16.5241 17.6569C16.8192 17.5981 17.125 17.6282 17.4029 17.7434C17.6808 17.8585 17.9183 18.0535 18.0854 18.3037C18.2525 18.5538 18.3416 18.8479 18.3414 19.1488C18.3414 25.8074 15.7556 28.9001 13.2549 31.8914C11.3736 34.1417 9.59667 36.2663 8.82832 40.0725C8.75853 40.4156 8.57245 40.7242 8.30153 40.946C8.0306 41.1678 7.69143 41.2893 7.34129 41.2899Z" fill="white"/>
<path d="M16.3628 52.9673H6.91657C5.78749 52.9643 4.70556 52.5141 3.90765 51.7153C3.10974 50.9164 2.66085 49.8339 2.65924 48.7048V47.155C2.66058 46.0249 3.11009 44.9416 3.90915 44.1425C4.70822 43.3434 5.79159 42.8939 6.92164 42.8926H20.7387C21.142 42.8926 21.5287 43.0528 21.8139 43.3379C22.099 43.6231 22.2592 44.0098 22.2592 44.4131C22.2592 44.8163 22.099 45.203 21.8139 45.4882C21.5287 45.7733 21.142 45.9335 20.7387 45.9335H6.91657C6.59367 45.9354 6.2846 46.0649 6.05674 46.2937C5.82889 46.5225 5.70072 46.8321 5.70019 47.155V48.7048C5.70072 49.0278 5.82889 49.3374 6.05674 49.5662C6.2846 49.795 6.59367 49.9244 6.91657 49.9263H16.3628C16.766 49.9263 17.1528 50.0865 17.4379 50.3716C17.7231 50.6568 17.8833 51.0435 17.8833 51.4468C17.8833 51.85 17.7231 52.2368 17.4379 52.5219C17.1528 52.8071 16.766 52.9673 16.3628 52.9673Z" fill="white"/>
<path d="M49.5487 59.9999H24.4183C23.2882 59.9989 22.2046 59.5494 21.4055 58.7503C20.6064 57.9512 20.157 56.8677 20.1559 55.7375V54.1887C20.157 53.0585 20.6064 51.975 21.4055 51.1759C22.2046 50.3768 23.2882 49.9273 24.4183 49.9263H49.5487C50.6788 49.9273 51.7624 50.3768 52.5615 51.1759C53.3606 51.975 53.81 53.0585 53.8111 54.1887V55.7375C53.81 56.8677 53.3606 57.9512 52.5615 58.7503C51.7624 59.5494 50.6788 59.9989 49.5487 59.9999ZM24.4183 52.9672C24.0944 52.9675 23.7839 53.0963 23.5549 53.3253C23.3259 53.5543 23.1971 53.8648 23.1968 54.1887V55.7375C23.1971 56.0614 23.3259 56.3719 23.5549 56.6009C23.7839 56.8299 24.0944 56.9587 24.4183 56.959H49.5487C49.8726 56.9587 50.1831 56.8299 50.4121 56.6009C50.6411 56.3719 50.7699 56.0614 50.7702 55.7375V54.1887C50.7699 53.8648 50.6411 53.5543 50.4121 53.3253C50.1831 53.0963 49.8726 52.9675 49.5487 52.9672H24.4183Z" fill="white"/>
<path d="M43.8459 28.518H30.1211C28.9296 28.5002 27.793 28.0144 26.9568 27.1656C26.1205 26.3167 25.6518 25.173 25.6518 23.9814C25.6518 22.7898 26.1205 21.6461 26.9568 20.7973C27.793 19.9484 28.9296 19.4626 30.1211 19.4448H43.8459C45.0374 19.4626 46.174 19.9484 47.0102 20.7973C47.8465 21.6461 48.3152 22.7898 48.3152 23.9814C48.3152 25.173 47.8465 26.3167 47.0102 27.1656C46.174 28.0144 45.0374 28.5002 43.8459 28.518ZM30.1211 22.4858C29.7312 22.4959 29.3606 22.658 29.0884 22.9373C28.8162 23.2167 28.6639 23.5914 28.6639 23.9814C28.6639 24.3715 28.8162 24.7461 29.0884 25.0255C29.3606 25.3049 29.7312 25.4669 30.1211 25.4771H43.8459C44.2358 25.4669 44.6064 25.3049 44.8786 25.0255C45.1508 24.7461 45.3031 24.3715 45.3031 23.9814C45.3031 23.5914 45.1508 23.2167 44.8786 22.9373C44.6064 22.658 44.2358 22.4959 43.8459 22.4858H30.1211Z" fill="white"/>
<path d="M36.9835 22.4858C35.4554 22.4858 33.9617 22.0327 32.6911 21.1837C31.4206 20.3348 30.4303 19.1281 29.8456 17.7164C29.2608 16.3046 29.1078 14.7512 29.4059 13.2525C29.704 11.7538 30.4398 10.3771 31.5204 9.2966C32.6009 8.21609 33.9775 7.48026 35.4762 7.18215C36.9749 6.88404 38.5284 7.03704 39.9401 7.6218C41.3519 8.20657 42.5585 9.19684 43.4075 10.4674C44.2564 11.7379 44.7095 13.2317 44.7095 14.7597C44.7074 16.8082 43.8927 18.7721 42.4442 20.2205C40.9958 21.669 39.0319 22.4836 36.9835 22.4858ZM36.9835 10.0746C36.0569 10.0746 35.1511 10.3494 34.3806 10.8642C33.6101 11.379 33.0096 12.1107 32.655 12.9668C32.3004 13.8229 32.2076 14.7649 32.3884 15.6738C32.5692 16.5826 33.0154 17.4174 33.6706 18.0726C34.3258 18.7278 35.1607 19.174 36.0695 19.3548C36.9783 19.5356 37.9203 19.4428 38.7764 19.0882C39.6325 18.7336 40.3642 18.1331 40.879 17.3626C41.3938 16.5922 41.6686 15.6864 41.6686 14.7597C41.6672 13.5176 41.1732 12.3267 40.2949 11.4484C39.4165 10.57 38.2256 10.076 36.9835 10.0746Z" fill="white"/>
<path d="M25.5424 52.9673C25.1391 52.9673 24.7524 52.8071 24.4672 52.5219C24.1821 52.2368 24.0219 51.85 24.0219 51.4468V51.2136C24.027 46.9836 25.3539 42.8608 27.817 39.4218L27.9468 39.2384C29.8443 36.5765 31.6263 34.0617 31.6263 26.9975C31.6263 26.5943 31.7865 26.2075 32.0717 25.9224C32.3568 25.6372 32.7435 25.4771 33.1468 25.4771C33.55 25.4771 33.9368 25.6372 34.2219 25.9224C34.5071 26.2075 34.6673 26.5943 34.6673 26.9975C34.6673 35.0317 32.4149 38.2024 30.4282 40.9991L30.2994 41.1805C28.2009 44.1064 27.0693 47.615 27.0629 51.2157V51.4488C27.0623 51.8517 26.9019 52.2379 26.6168 52.5226C26.3317 52.8073 25.9453 52.9673 25.5424 52.9673Z" fill="white"/>
<path d="M48.4246 52.9671C48.0213 52.9671 47.6346 52.8069 47.3494 52.5217C47.0643 52.2366 46.9041 51.8499 46.9041 51.4466V51.2135C46.8976 47.6128 45.766 44.1042 43.6675 41.1783L43.5388 40.9969C41.552 38.2002 39.2997 35.0295 39.2997 26.9953C39.2997 26.5921 39.4599 26.2053 39.745 25.9202C40.0302 25.635 40.4169 25.4749 40.8202 25.4749C41.2234 25.4749 41.6101 25.635 41.8953 25.9202C42.1804 26.2053 42.3406 26.5921 42.3406 26.9953C42.3406 34.0595 44.1267 36.5743 46.0182 39.2362L46.1479 39.4196C48.6121 42.8589 49.9397 46.9825 49.945 51.2135V51.4466C49.945 51.8499 49.7848 52.2366 49.4997 52.5217C49.2145 52.8069 48.8278 52.9671 48.4246 52.9671Z" fill="white"/>
</svg>
