<svg width="16" height="14" viewBox="0 0 16 14" fill="none" xmlns="http://www.w3.org/2000/svg">
<path d="M16 1.87196C15.4 2.17965 14.8 2.28221 14.1 2.38478C14.8 1.97452 15.3 1.35914 15.5 0.538624C14.9 0.94888 14.2 1.15401 13.4 1.35914C12.8 0.743752 11.9 0.333496 11 0.333496C8.9 0.333496 7.3 2.38478 7.8 4.43606C5.1 4.3335 2.7 3.00016 1 0.948881C0.1 2.48734 0.6 4.43606 2 5.4617C1.5 5.4617 1 5.25657 0.5 5.05145C0.5 6.58991 1.6 8.0258 3.1 8.43606C2.6 8.53862 2.1 8.64119 1.6 8.53862C2 9.87196 3.2 10.8976 4.7 10.8976C3.5 11.8207 1.7 12.3335 0 12.1284C1.5 13.0514 3.2 13.6668 5 13.6668C11.1 13.6668 14.5 8.43606 14.3 3.61555C15 3.20529 15.6 2.58991 16 1.87196Z" fill="white"/>
</svg>
