<svg width="16" height="12" viewBox="0 0 16 12" fill="none" xmlns="http://www.w3.org/2000/svg">
<path d="M15.6 2.28555C15.4 1.61889 14.9 1.14269 14.2 0.952218C13 0.666504 7.89999 0.666504 7.89999 0.666504C7.89999 0.666504 2.90001 0.666504 1.60001 0.952218C0.900006 1.14269 0.399997 1.61889 0.199997 2.28555C-3.05474e-06 3.52365 0 5.99984 0 5.99984C0 5.99984 3.03984e-06 8.47603 0.300003 9.71412C0.500003 10.3808 0.999997 10.857 1.7 11.0475C2.9 11.3332 8 11.3332 8 11.3332C8 11.3332 13 11.3332 14.3 11.0475C15 10.857 15.5 10.3808 15.7 9.71412C16 8.47603 16 5.99984 16 5.99984C16 5.99984 16 3.52365 15.6 2.28555ZM6.39999 8.28555V3.71412L10.6 5.99984L6.39999 8.28555Z" fill="white"/>
</svg>
